<?xml version="1.0" encoding="utf-8"?>
<!-- Generator: Adobe Illustrator 24.3.0, SVG Export Plug-In . SVG Version: 6.00 Build 0)  -->
<svg version="1.1" id="圖層_1" focusable="false" xmlns="http://www.w3.org/2000/svg" xmlns:xlink="http://www.w3.org/1999/xlink"
	 x="0px" y="0px" viewBox="0 0 450 450" style="enable-background:new 0 0 450 450;" xml:space="preserve">
<style type="text/css">
	.st0{fill:#C1AB93;}
</style>
<g>
	<path class="st0" d="M24.2,241c-1.1,0-2.2,0-3.3,0c-0.1-0.2-0.2-0.4-0.4-0.6c2.6-1,2.4-3.5,3.3-5.4c0.6-1.2,2.3-2,3.6-2.7
		c1.1-0.7,2.4-1.2,3.6-1.7c0.5-0.2,1.1-0.5,1.5-0.4c3.4,1.1,6.5-0.7,9.8-1c3.2-0.3,6.3-2.1,9.3-3.3c2.2-0.9,4.4-2.1,6.6-3.1
		c1.9-0.9,3.9-1.7,3.6-4.4c0-0.2,0.1-0.7,0.3-0.8c2.3-1.1,3.3-3.4,4.9-5.2c1.6-1.7,3.9-3.1,6.1-4c1.8-0.7,3.4-1.5,4.3-3.3
		c0.2-0.4,0.7-0.8,1.1-1.1c3.3-1.7,6.6-3.5,10-4.8c2.4-0.9,5.1-1,7.7-1.4c2.9-0.4,5.8-0.6,8.6-2.1c2.7-1.4,6.1-1.6,9.2-2.3
		c2.5-0.6,4.9-1.4,7.4-2.1c0.8-0.2,1.7-0.5,2.5-0.4c3.8,0.6,7.5,0.3,11.2-0.8c1.1-0.3,2.4,0.4,3.7,0.4c1.1,0,2.3-0.3,3.4-0.6
		c2.8-0.7,4.9,1.5,7.5,1.7c1.6,0.1,3.3,0,4.9,0c0-0.3,0.1-0.5,0.1-0.8c-0.9-0.4-1.8-1-2.7-1.3c-4.7-1.2-9.2-2.8-13-6
		c-2.1-1.9-4.5-3.5-6.7-5.2c-0.5-0.4-1.3-0.5-1.9-0.8c-0.6-0.3-1.4-0.5-1.8-0.9c-2.5-3.9-5-7.8-7.3-11.8c-1.8-3.2-3.2-6.7-5.1-9.9
		c-1.1-1.8-2.8-3.4-4.7-4.4c-3.1-1.7-6.2-3.2-7.2-7c-0.1-0.3-0.5-0.6-0.8-0.8c-1.3-1.2-2.2-2.3-2.3-4.3c-0.1-2.7-2.3-4.4-4.5-5.8
		c-1.1-0.7-2.1-1.6-2.9-2.6c-1-1.2-1.6-2.6-2.6-3.7c-0.7-0.8-1.4-1.6-2.9-1.1c-1.6,0.6-3.6-1.5-3.7-3.3c-0.1-2.1-1.4-3-3.2-3.8
		c-1-0.4-2.3-1.3-2.4-2.1c-0.4-3.3-3.1-4.4-5.2-6.1c-0.6-0.5-1.3-1-1.7-1.6c-1.5-2.3-3-4.7-4.3-7.1c-1.2-2.2-0.9-4.7,0.1-6.8
		c0.9-1.7,2.3-3.1,4.9-3.3c4-0.4,7.5,0.2,10.9,2.1c1.2,0.7,2.3,1.7,3.5,2.4c3.1,1.8,6.4,3.2,9.2,5.4c4.2,3.3,9.5,4.5,13.6,7.5
		c5.2,3.8,11.3,5.6,16.5,9.1c4.3,3,9.2,4.3,14,6.1c6.6,2.5,13.3,4.9,19.6,8c3.6,1.7,6.5,4.7,9.8,7.1c1,0.8,2.3,1.3,3.2,2.2
		c3.2,3.2,6.2,6.6,9.3,9.9c0.8,0.8,1.7,1.7,2.7,2.2c2.4,1.4,5,2.1,7,4.3c2.8,3,6.4,5.2,9.6,7.9c2.5,2.1,4.9,4.4,7.3,6.7
		c0.7,0.7,1.1,1.6,1.5,2.5c0.6,1.3,0.9,2.7,3,2.3c0.6-0.1,1.6,1.4,2.4,2.2c2.8-2.4,1.3-5.5,1.2-8.4c-0.1-2.6-0.1-5.2-0.5-7.8
		c-0.3-2.1-0.9-4.2-1.4-6.4c-0.4-1.6-0.8-3.2-1.2-4.9c-1-4.3-2.1-8.5-2.8-12.9c-0.7-4.6-0.9-9.2-1.2-13.8c-0.2-3.3-0.4-6.7-0.2-10
		c0.3-4.6,0.7-9.3,1.6-13.8c1.3-6.3,3.1-12.5,4.6-18.8c0.8-3.3,1.4-6.7,2.2-9.9c0.3-1.3,1.3-2.4,1.5-3.6c0.5-2.9,0.8-5.8,1.1-8.7
		c0.2-1.8,0.2-3.7,0.6-5.5c0.5-2.4,1.1-4.7,1.8-7c0.4-1.3,1-2.5,1.6-3.7c0.8-1.5,1.8-2.9,1-4.9c-0.3-0.7,0.1-1.7,0.4-2.5
		c0.5-1.2,1.1-2.4,1.8-4c1.1-0.2,3.2,0.1,2.9-2.6c0.7,0,1.4-0.1,1.9,0.2c2.1,1,3.8,0.3,5-1.6c0.9-1.4,2.1-2.7,3.4-3.6
		c0.6-0.4,2.5,0.1,2.8,0.7c0.9,1.8,1.7,3.8,1.9,5.8c0.2,2-0.4,4.2-0.6,6.2c-0.1,1.4-0.4,2.9,1.1,3.9c0.3,0.2,0.3,1.1,0.3,1.7
		c0.1,2.9,0,5.8,0.2,8.7c0,0.7,0.4,1.4,0.7,2.1c0.8,1.8,1.9,3.6,2.5,5.5c1,3.5,1.7,7.1,2.4,10.6c0.4,1.9,0.5,3.9,0.8,5.8
		c0.3,1.7,0.6,3.4,0.9,5c0.6,2.9,1.1,5.9,1.8,8.8c1.6,6.4,2.3,12.9,2.6,19.5c0,0.2,0.1,0.5,0,0.7c-1.3,4-0.4,7.9-0.1,11.9
		c0.1,2.7,0.3,5.5,0.1,8.1c-0.3,7.3-1.1,14.7-3.1,21.9c-0.6,2.4-1,4.9-1.4,7.3c-0.1,0.3,0.4,0.8,0.6,1.1c-2.5,1.5-2.9,6.7-1.4,9.4
		c1,1.7,1,3.1,0.7,4.8c-0.1,0.3,0.1,0.6,0.2,1.2c3.8-1.3,6.8-3.3,8.9-6.5c1-1.5,1.8-3.2,2.9-4.5c3-3.3,6-6.5,9.2-9.7
		c1.2-1.2,3.2-1.8,4.2-3.1c2.3-3.1,5.8-4.9,8.5-7.5c2.4-2.4,5.8-3.8,8.8-5.6c3.3-1.9,6.9-3.5,10.1-5.6c2.8-1.9,5.2-4.4,7.8-6.5
		c1-0.8,2.2-1.2,3.3-1.7c0.3-0.1,0.7-0.1,0.9-0.2c1.7-2.9,5.1-2.7,7.5-4.2c2.5-1.6,5.4-2.3,8.2-3.5c5.2-2.1,10.3-4.8,15.7-6.3
		c2.7-0.8,5.2-2.1,7.8-2.9c1.3-0.4,2.7-0.3,4-0.4c-0.7,0.5-1.7,0.8-2,1.4c-0.7,1.7-2.1,2-3.7,2.5c-2.3,0.6-4.6,1.6-6.7,2.7
		c-2.6,1.3-5,2.9-7.6,4.4c-1,0.6-2.1,1.1-3.3,1.5c-1.6,0.5-3.5,0.4-4.8,1.3c-2.6,1.7-4.9,3.9-7.4,5.8c-1,0.8-2.2,1.8-3.3,1.9
		c-1.5,0.2-2.6,0.4-3.3,1.8c-0.2,0.4-1.6,0.8-1.7,0.6c-1.3-1.6-2.1-0.3-3.1,0.3c-0.8,0.5-1.5,1.1-2.4,1.5c-3,1.5-6.2,2.9-9.2,4.6
		c-3.4,2-6.4,4.5-10.4,5.2c-0.5,0.1-0.9,0.5-1.3,0.9c-2.7,2.8-5.4,5.6-9,7.4c-1.6,0.8-2.7,2.4-4,3.8c-0.5,0.5-0.6,1.3-1.1,1.7
		c-2.4,1.8-4.7,3.7-6.5,6.2c-1.6,2.2-3.2,4.2-4.2,6.8c-0.7,1.8-2,3.3-4.6,3.4c0.7,0.4,1.2,0.7,1.9,1.2c-4.1,4-8,7.8-12,11.7
		c0.1,0.1,0.2,0.3,0.3,0.4c1.6-1,3.1-2,4.7-2.9c2.8-1.5,6.2-2.3,6.5-6.3c0-0.3,0.5-0.5,0.8-0.8c2.6-1.9,5.3-3.7,7.7-5.9
		c1.5-1.3,2.4-3.2,3.6-4.8c0.6-0.8,1.9-1.9,1.7-2.2c-1.4-2.5,0.7-3.1,2-4c2.8-1.9,5.6-3.8,8.6-5.4c2.4-1.2,5.2-1.7,7.5-3
		c2.2-1.2,4.7-2.6,6.1-4.6c2.1-3.1,5.5-3.8,8.3-4.9c3.3-1.3,6.7-2.3,9.5-4.5c3.1-2.5,6.5-4.7,9.7-7c1.9-1.4,3.7-3.1,5.8-4.2
		c6-3.2,12.2-6.1,18.3-9.2c0.8-0.4,1.9-0.7,2.3-1.4c1.4-2.3,3.7-2.2,5.9-2.3c1.2,0,2.5,0.1,3.5-0.4c4-1.9,7.9-3.9,11.8-6
		c0.7-0.4,1.3-1.1,1.9-1.7c-0.1-0.2-0.3-0.4-0.4-0.7c-2.3-0.1-4.4,0.9-6.5,1.8c-2.5,1.1-4.9,2.9-7.8,1c-0.5-0.3-1.6,0.2-2.4,0.3
		c0.9-0.6,1.8-1.4,2.8-1.8c2.9-1.1,6-1.4,8.9-3.1c2.6-1.5,5.9-1.6,8.9-2.3c1.1-0.2,2.2-0.4,3.3-0.6c1.5-0.3,3-0.4,4.3-0.9
		c1.5-0.5,3-1.3,4.3-2.1c1.4-0.9,2.3-0.4,3.2,0.7c0.8,0.9,1.8,1.5,2.9,2.4c1.2-2.8,2.4-3.8,4.8-2c0.8,0.6,2.3,0.5,3.4,0.3
		c2.3-0.5,2.4,1.7,2.4,2.5c-0.1,2.9-0.4,5.9-1.1,8.7c-0.4,1.5-1.5,3-2.7,4c-4.5,3.7-7.1,8.8-10.6,13.3c-0.2,0.3-0.5,0.6-0.7,0.9
		c-1.1,1.5-2.2,3-3.3,4.4c0.2,0.2,0.4,0.3,0.5,0.5c-0.9-0.1-1.8-0.3-3.4-0.5c-0.6,1.4-1.5,3.2-2.2,5.2c-0.4,1-0.7,1.9-2.1,1.5
		c-0.3-0.1-0.7-0.1-0.9,0c-2.5,2.6-6.4,3.8-7.4,7.9c-0.3,1.4-1.4,2.6-2.2,3.9c-1.4,2.1-3,4.1-4.5,6.1c-1.4,1.9-2.9,3.8-4.3,5.8
		c-1.4,2.1-2.5,4.3-4,6.3c-1.3,1.8-3.1,3.2-4.6,4.9c-2.5,2.6-4.9,5.2-7.3,7.9c-0.4,0.5-0.4,1.3-0.7,1.9c-1.9,4.4-5.6,6.9-9.6,9.2
		c-2.9,1.6-5.6,3.4-8.4,5.1c0.1,0.2,0.1,0.5,0.2,0.7c1.7-0.1,3.5-0.2,5.2-0.3c0.7,0,1.4-0.1,2,0.1c4,1.6,7.9,3.3,11.9,4.9
		c0.7,0.3,1.4,0.4,2.2,0.5c1.3,0.2,2.7,0.2,4,0.4c3.1,0.4,6.2,0.6,9.2,1.3c3.6,0.9,7,2.4,10.5,3.4c0.9,0.3,2.6,0.1,3.1-0.5
		c1.6-2,3.5-1.3,5.1-0.6c3.6,1.4,7,1.6,10.5-0.3c2.6-1.4,5.4-1.6,8.3-1.4c0.8,0.1,1.7,0,2.5-0.2c2.5-0.9,4.9-0.9,7.4-0.1
		c0.8,0.3,1.8,0,2.7-0.1c1.1,0,2.6-0.5,3.1,0c2.2,2.1,4.7,1.1,7.1,1.3c2.9,0.2,5,3,5.2,5.9c0.2,2.7-1.3,4.5-2.5,6.5
		c-1.5,2.4-3,4.8-4.9,7c-1.1,1.3-2.7,2.1-4,3.2c-0.8,0.7-1.4,1.5-1.9,2.4c-1.5,2.7-3,5.4-4.5,8.1c-0.1,0.3-0.4,0.7-0.6,0.7
		c-2.5-0.4-2.9,1.8-4.1,3.1c-2.8,2.9-5.7,5.6-10.2,6c-2.7,0.3-5.3,1.6-7.8,2.7c-3.4,1.5-6.6,3.3-10,4.9c-1.7,0.8-3.6,1.4-5.4,2.2
		c-2.6,1.2-5.2,2.6-7.9,3.8c-0.8,0.4-1.7,0.4-2.6,0.7c-0.9,0.2-1.9,0.2-2.6,0.8c-2.7,2.3-5.7,2.1-8.9,1.8c-0.6-0.1-1.2,0.3-1.8,0.5
		c-1.9,0.6-3.8,1.3-5.7,1.9c-1.9,0.5-3.8,1-5.7,1.3c-1.4,0.2-2.8-0.2-4.2-0.3c-2.2-0.3-4.4-0.7-6.6-1c-0.6-0.1-1.2,0-1.8-0.1
		c-1.9-0.5-3,0.6-4.3,1.8c-2.3,2-2.6,3.4-0.4,5.9c1.9,2.3,2.4,5.8,4.4,8c1.9,2.1,2.4,4.6,3.7,6.8c0.9,1.6,2.7,2.6,4.4,3.5
		c1.6,4.2,3.2,8.5,4.8,12.7c0.2,0,0.3-0.1,0.5-0.1c0.2-0.9,0.4-1.8,0.8-3.2c0.6,0.8,0.9,1.2,1.2,1.6c0.7,1.3,1.5,2.6,2.1,4
		c0.4,0.9,0.5,2,0.8,3c1.3,4.2,3.4,7.8,6.5,11c1.3,1.4,1.8,3.4,2.7,5.1c1.1,1.9,2.4,3.7,3.4,5.7c1.1,2.2,1.9,4.5,3.1,6.7
		c0.7,1.3,2.2,2.3,2.8,3.6c2.3,5.2,4.7,10.4,3.9,16.3c-0.1,0.5,0.3,1,0.5,1.7c-5.1,4.7-11.4,2.7-17.5,2.1c-0.9-4.3-0.9-4.3-5.6-4.6
		c-0.9-0.1-1.8-0.4-2.6-0.8c-3.3-1.5-6.5-3.1-9.8-4.7c-0.7-0.4-1.7-0.6-2.1-1.3c-1.3-1.9-2.7-1.5-4.3-0.5c-1,0.6-1.6,0.4-2.7-0.4
		c-2.3-1.6-5-2.7-7.6-3.7c-1.3-0.5-2.6-0.6-2.8-2.4c-0.1-0.6-0.6-1.3-1.1-1.6c-4.3-2.7-8.5-5.5-12.9-8.1c-2.2-1.4-4.6-2.6-6.9-3.9
		c-0.8-0.4-1.8-0.8-2.8-0.8c-4.8-0.3-6.1-1.6-5.7-5.9c-6-4.8-11.2-9.9-13.5-17.4c-0.4-1.2-1.8-2.1-2.4-3.3
		c-1.8-3.6-3.4-7.3-5.1-10.9c-0.1-0.2-0.4-0.4-0.4-0.3c-0.9,0.7-1.7,1.3-2.4,1.9c-0.5,0.4-1.4,1-1.4,1.3c0.7,3.2-1.3,5.8-1.8,8.6
		c-0.2,1.2,0.1,2.9,0.8,3.9c2.4,3.6,3.8,7.4,3.9,11.7c0,0.2,0.2,0.5,0.1,0.7c-2.1,2.9-1.1,6.4-1.7,9.6c-0.4,2.2-0.1,4.6,0,6.9
		c0.1,1.6,0.5,3.1,0.7,4.7c0.4,4,1.5,8,1,11.9c-0.6,4.5,0.2,8.7,0.4,13.1c0.1,2.6,0.7,5.3,0.4,7.9c-0.3,3-1.1,6-2.2,8.8
		c-1.7,4.1-3,8.3-3.3,12.7c-0.1,2-0.1,4-0.1,6.1c0,1,0,2-0.4,2.9c-1.4,3.4-1,6.9-0.5,10.4c0.4,2.7-1.3,4.6-2.4,6.6
		c-1.5,2.8-3.3,5.7-7.2,5.5c-1.5-0.1-3.3-0.3-4.4-1.2c-2.3-1.8-4-4.2-5.6-6.7c-2-3-3.4-6.7-7-8.6c-1.4-0.8-2.4-2.6-3.4-4
		c-2.4-3.6-4.8-7.2-6.9-11c-1.5-2.8-2.4-5.9-3.5-8.9c-0.2-0.4-0.3-0.9-0.2-1.3c1.2-4.2-0.5-8-1.2-12c-0.5-3.1-1.9-6-2.5-9.1
		c-0.6-2.8-0.7-5.7-1.1-8.6c-0.1-1-0.6-2-0.7-3.1c-0.1-1.1-0.3-2.4,0.1-3.4c1.4-3,1.9-5.7-0.5-8.7c-0.8-0.9-0.5-2.9-0.4-4.3
		c0.4-3.3,0-6.4-2-8.9c-1-1.3-3-1.9-3.4-3.8c-0.1-0.6-0.4-1.2-0.3-1.7c0.3-2.9-0.2-6.2,1.1-8.6c1.7-3.3-0.7-6.7,1-9.8
		c0.3-0.5-0.2-1.6-0.6-2.2c-1.4-2.5-1.1-3.8,1.6-5.4c1.7-1.1,1.5-2.6,1.6-4.4c0.2-3.3-2.7-4.6-3.4-7.2c-0.2-0.9-1.4-1.6-1.9-2.1
		c-2.9,2.4-5.2,4.6-7.8,6.6c-3.8,2.9-7.6,5.9-10.4,9.9c-0.5,0.8-1.5,1.2-2.4,1.8c0.3,1.3,0.7,2.6,1.1,4.1c-3,1.5-2.9,4.3-2.7,7.1
		c0.2,3.9-3.2,7.6-7,8c-1.8,0.2-3.6,1.4-5.3,2.1c-2.4,0.9-4.9,1.7-7.3,2.8c-1.3,0.6-2.5,1.5-3.6,2.5c-1.4,1.3-2.7,2.8-3.9,4.2
		c-2.1,2.6-4.1,5.3-6.3,7.8c-1,1.2-2.4,2.1-3.7,2.9c-3.6,1.9-7.1,3.8-10.8,5.4c-3.9,1.8-7.1,4.6-10.4,7.2c-1.9,1.5-4.6,1.9-7,2.8
		c-1.4,0.5-2.9,0.7-4.2,1.4c-2.3,1.1-4.4,2.6-6.9,0.5c-0.4-0.4-1.3-0.3-2-0.4c-3.7-0.5-5.8-3.2-5.2-6.9c0.1-0.5,0.4-1.3,0.8-1.3
		c2.3-0.4,2.3-2.5,2.4-3.9c0.2-3.2,1.7-5.8,2.9-8.6c0.8-1.8,1.7-3.7,2.6-5.5c0.1-0.3,0.3-0.6,0.6-0.7c4.6-1.4,4.4-6.3,6.8-9.4
		c1-1.3,1.6-2.9,2.1-4.4c0.8-2.3,1.3-4.7,2-7c0.3-1.1,0.4-2.7,1.2-3.3c2.9-2.3,2.9-5.9,4.1-8.8c1.8-4.5,2.9-9.3,4.7-13.9
		c1-2.5,2.8-4.7,4.5-7.4c-2.7-1-5.7-2-8.6-3c-0.2-0.1-0.6,0.1-0.9,0.2c-2.6,1-5.1,2.1-7.7,2.9c-1,0.3-2.4,0.3-3.4-0.1
		c-2.8-1.3-5-0.8-7,1.6c-0.3,0.3-1.1,0.4-1.6,0.3c-0.9-0.2-1.9-0.6-2.8-1c-3.2-1.3-6.6-1.4-9.9-1.1c-2.2,0.2-4.4,1.6-6.6,2.4
		c-2.6,0.9-5,0.5-7.3-1.2c-1.4-1-3.3-1.4-4.9-2.2c-1.7-0.8-3.6-1.3-4.8-2.5c-3.6-3.6-8-5.7-12.6-7.6c-2-0.8-4.1-1.4-6.2-2.1
		c-0.3-0.1-0.6-0.1-0.9-0.3c-5.5-4.1-12.2-4.3-18.6-5.2c-2.2-0.3-4.7,0.5-6.4-2c-0.6-0.8-2.1-0.9-3-1.5c-1.6-1.1-2.3-5-1.7-6.9
		c0.4-1.2,0.6-2.5,0.7-3.7c0.2-2.6,0.7-3.1,3.1-3.5C22.7,242.8,23.4,241.6,24.2,241c0.7-0.7,1.4-1.5,2.2-1.9c4.3-1.8,8.6-3.5,13-5.2
		c0.5-0.2,0.9-0.5,1.4-0.7c-2,0-4-2.3-5.7,0c-0.1,0.1-0.4-0.1-0.6-0.1c-2.1-0.9-3.9,0.6-5.4,1.4c-1.9,1.1-3.2,3.3-4.7,5.1
		C24,239.9,24.2,240.5,24.2,241z M249.1,222.3c-0.9-0.1-1.7-0.3-2.4-0.4c-0.5,0.8-0.9,1.5-1.3,2.3c-0.6-0.6-1.2-1.2-1.8-1.7
		c-0.3-0.2-0.6-0.4-0.9-0.5c-3-0.5-0.9-2.5-0.9-3.8c0-0.6,1.6-1.9,2.1-1.7c1.9,0.7,2.4-0.7,3.3-1.5c-1.5-2.9-2.3-3.4-4-3
		c0.5,0.4,1.1,0.9,1.7,1.4c-0.6,0.6-1.1,1.3-1.7,1.8c-0.6,0.5-1.3,1-2.1,1.4c-0.5,0.3-1.6,0.7-1.7,0.6c-0.5-0.6-0.7-1.4-0.9-2.2
		c-0.1-0.5,0.1-1,0.2-1.5c-0.2-0.1-0.5-0.1-0.7-0.2c-0.1,0.6-0.4,1.2-0.4,1.9c0,1.2,0.6,2.6,0.2,3.6c-1.7,3.6,0.6,6.9,0.3,10.4
		c-0.2,2.8,1.1,5.8,1.5,8.7c0.8,5.4,2.1,10.9,1.8,16.3c-0.3,4.9,1.2,9.4,1.4,14.1c0.2,5.4,1.2,10.9,1.7,16.3
		c0.5,5,0.8,10.1,1.1,15.1c0.3,5.2,0.4,10.3,0.8,15.5c0.3,3.5,0.8,7,1.2,10.6c0.3,2.4,1,4.9,0.8,7.3c-0.1,1.4,0,2.4,1.1,2.4
		c2.3-0.1,4.7-0.3,6.8-1.2c0.9-0.4,1.2-2.4,1.7-3.6c-2.8-1.8-2.8-1.8-1.1-4.3l-0.1,0.1c1.6-1.8,4-3.1,3.3-6.4
		c-2.3,0.4-4.4,0.7-6.6,1.1c-0.1-0.3-0.1-0.6-0.2-1c2.1-0.7,4.2-1.4,6.3-2.1c-0.4-1.8-1.3-2.4-3.3-1.7c-0.8,0.3-1.7,0.1-2.6,0.2
		c0-0.2,0-0.4-0.1-0.6c1.4-0.6,2.9-1.2,4.3-1.8c-0.6-2.2-1.9-1.1-3-1.1c-0.7,0-1.4-0.4-2.1-0.6c0.5-0.4,1-0.8,1.6-1.2
		c0.5-0.3,1-0.4,2.1-0.8c-1.4-1.1-2.5-1.9-3.3-2.6c0.8-0.9,1.6-1.6,2.3-2.3c-0.1-0.2-0.3-0.5-0.4-0.7c-1.3,0-2.7,0-4,0
		c0-0.2,0-0.3,0-0.5c1.8-0.5,3.5-0.9,5.3-1.4c0-0.2-0.1-0.5-0.1-0.7c-1.5-0.6-3-1.2-4.5-1.8c0.1-0.3,0.2-0.7,0.3-1
		c1.5,0.3,2.9,0.5,4.5,0.8c0-0.6,0.1-1.3,0.1-2c0.1-2.6,0.4-4.9,1.7-7.4c1.1-2.1,1.2-4.7,1.5-7.2c0.1-0.5-0.5-1-0.6-1.5
		c-0.4-1.3-1.2-2.6-1.1-3.8c0.3-4.8,0.1-9.6-1.7-14.2c-0.5-1.3-0.5-2.7-0.8-4c-0.8-3.7,0.8-7.9-2.6-10.9c-0.1-0.1-0.2-0.4-0.2-0.6
		c-1.2-4.7-3.4-9.3-0.8-14.2c-0.9-2.4,1.3-3,2.4-4.2c0.3-0.3,1.2-0.3,1.8-0.2c0.8,0.1,1.6,0.4,2.6,0.7c0.1,0.2,0.3,0.7,0.5,1.3
		c-0.8,0.3-1.9,0.3-2.1,0.8c-0.9,2.3-1.6,4.6-2.4,6.9c-0.4,1.3-0.8,2.7-1.1,3.8c0.8,2.6,1.8,5.1,2.5,7.7c0.8,3,0.7,6.6,2.4,8.9
		c1.4,1.8,2.2,3.2,2,5.4c0,0.2,0.2,0.4,0.2,0.6c0.9,2.3,2.2,4.4,2.7,6.8c0.4,1.9,0,4,0,6.1c0,0.5,0.1,1.1,0.3,1.6
		c0.2,0.6,0.6,1.2,0.8,1.9c0.1,0.8,0,1.6,0,2.4c1.1,0.1,1.9,0.1,2.9,0.2c0.2,2.3,0,4.6,0.6,6.5c0.5,1.4,0.7,2.4,0,3.7
		c-0.2,0.4-0.2,1.1,0,1.5c1,2.4,1.4,5.2,3.8,7c1.1,0.9,1.6,2.5,2.4,3.8c0.6,1,1.1,2.2,1.9,2.8c1.3,0.8,4.1,0.5,1.7,3.2
		c-0.1,0.1,0.1,0.3,0.1,0.4c0.4,1.7,4.2,5.5,5.8,5.4c1.5-0.2,1.9,0.2,1.9,1.6c0,0.3,1,1,1.3,0.9c2.3-0.6,2.9-0.3,4,2
		c0.4,0.8,1.5,1.8,2.2,1.8c1.8-0.1,3,0.5,3.9,1.9c-4.3,1.7-6.2-2-8.9-4.1c-2.2,3-1.2,6.3,1.9,6.4c5.1,0.2,8.9,3.3,13,5.7
		c0.8,0.5,1.9,0.5,2.8,0.7c0.1-0.2,0.2-0.4,0.3-0.6c-1.2-1.7-2.5-3.4-3.7-5.1c0.1-0.1,0.3-0.2,0.5-0.4c1.6,1.8,3.2,3.6,4.8,5.3
		c3.9,4,7.7,8,12.6,10.9c3.1,1.9,5.8,4.3,9.8,2.8c0.4-0.1,1-0.1,1.3,0.1c1.5,0.8,2.9,1.8,4.3,2.6c3.1,1.7,6.3,3.4,9.5,5.1
		c0.1-0.2,0.2-0.4,0.4-0.6c-3.5-3.3-7-6.6-10.5-9.9c-3.6-3.4-7.2-6.7-10.8-10c0.2-0.3,0.4-0.5,0.7-0.8c1.5,1,3,2,4.4,3.2
		c2.6,2.1,5.1,4.2,7.6,6.3c0.4,0.3,0.6,0.9,0.9,1.3c0.4,0.5,0.8,1.1,1.4,1.5c5,4.2,10.1,8.3,15,12.6c2.6,2.3,6.4,3,9.9,1.4
		c-1-0.2-1.8-0.4-2.5-0.6c0.2-0.1,0.3-0.2,0.5-0.3c-0.8-1.7-1.2-3.6-2.4-5c-1.3-1.6-3.2-2.8-4.8-4.2c-2.7-2.4-5.3-4.8-8.1-7.2
		c-0.8-0.7-1.9-1.2-2.8-1.8c-1.7-1.2-3.3-2.4-5.6-4c-2.1,0.2-3.6-1.1-3-3.4c0.6-2.1-0.7-2.3-2-2.7c-0.7-0.2-1.6-0.4-2.2-0.9
		c-1.5-1.3-3-2.7-4.4-4c-0.7-0.7-1.8-1.3-1.9-2.1c-0.1-2.4-1.4-4.1-2.9-5.8c-3-3.7-5.8-7.7-8.7-11.5c-0.6-0.7-1.5-1.2-2.2-1.8
		c-1.3-1.1-3.3-1.6-3.4-3.8c-0.1-2.1-1.3-3.4-3.3-4c-0.4-0.1-0.7-0.5-0.9-0.6c0.1-1.1,0.6-2.1,0.3-2.8c-1.5-3.3-2-7.4-6.4-8.7
		c-0.3-0.1-0.4-0.6-0.6-0.9c-2.2-2.4-1.5-5.7-3.6-8.4c-4-5.1-6.8-11.1-10.2-16.6c-2.8-4.4-5.9-8.6-8.5-13.2
		c-3.6-6.7-8.3-12.7-12.6-19.1c-0.6-0.9-1.1-2-1.9-2.7c-2.4-2-5.3-3.6-7.3-5.9c-2.7-3.3-5.2-3.3-8.3-0.9c0,0,0,0.1-0.1,0.3
		c0.5,0.4,1.1,0.9,1.6,1.3c0-0.2,0.1-0.4,0.1-0.6c1.1,0.1,2.1,0.2,3.2,0.4C249.5,221.1,249.3,221.7,249.1,222.3L249.1,222.3z
		 M218.8,197.2c-2.8-1.8-5.8-2.9-8.8-3.2c0.1,1.2,0.5,2.4,0.1,2.8c-1,1.2-1.5,3.2-3.7,2.9c-0.3,0-0.7-0.3-0.9-0.6
		c-1.6-2.4-3.3-4.7-6-6.2c-1.1-0.6-1.9-1.7-1.1-3.2c5.5,3.5,5.5,3.5,6.4,2.4c-1.6-1.7-3.3-3.4-4.5-4.6c-1.5,0.3-2.7,1-3.3,0.6
		c-1.7-1.1-3.2-2.6-4.7-3.9c-0.7-0.6-1.5-1.1-2.3-1.7c-0.7-0.5-1.3-1-2-1.5c0.1-0.2,0.3-0.4,0.4-0.6c1.4,0.3,3.5,0.2,4.1,1.1
		c1.4,2.1,2.7,0.2,4,0.5c0.3,0.1,0.7,0.3,1,0.6c1.1,1,2,2,3.1,2.9c0.8,0.7,1.7,1.2,2.8,1.9c0.2-3.3-2.1-3.9-3.7-5
		c-3.6-2.3-4.1-3.8-2.2-7.1c-0.7-0.3-1.4-1-2-0.9c-3.2,0.2-3.5-0.1-1.9-3.5c-1.1,0-2-0.1-2.9,0c-2.1,0.3-2.4-0.1-2-2.2
		c0.1-0.8-0.3-1.7-0.5-2.5c-0.2,0-0.4,0-0.6-0.1c-0.2,0.5-0.5,1.1-0.8,1.8c-0.9-1-1.4-1.5-2-2.2c0.8-0.6,1.4-1.1,2.4-1.8
		c-0.9-0.6-1.6-1.1-2.3-1.6c-0.4-0.3-1-0.5-1.1-0.9c-1.2-2.5-2.5-3-5.1-2c-1.4,0.5-2.2,0.2-2.5-1.3c-0.2-1.2-0.3-2.4-0.5-3.5
		l0.1,0.1c-1.6-2.5-5-3.6-7.4-2.6c-0.6,0.3-1.4,0-2.3,0c0.5-2.1,0-3.5-1.8-4.3l0.1,0.1c-1.1-1.6-2.1-3.4-3.5-4.7
		c-2.5-2.4-6.1-3.5-7.5-7c-0.1-0.4-0.9-0.5-1.3-0.8c-1.4-0.9-2.7-1.9-4-2.8c0.1-0.2,0.2-0.5,0.3-0.7c0.5,0.1,1.2-0.1,1.6,0.2
		c3.2,2.8,7.6,3.9,10.3,7.3c0.1,0.2,0.4,0.3,0.6,0.4c2.9,1.5,5.6,3.2,7.6,5.9c0.3,0.5,1.2,0.5,1.7,0.9c1.9,1.1,3.8,2.2,5.7,3.5
		c2,1.4,3.9,2.9,5.8,4.3c0.2-0.2,0.3-0.4,0.5-0.7c-1.4-1.2-3.3-2.1-4.2-3.6c-2.9-5.1-8-7.8-12.2-11.5c-1.8-1.5-3.9-2.7-6-3.8
		c-1.8-1-3.8-1.6-5.6-2.5c-1.7-0.9-3.4-2.7-5.1-2.7c-4.9-0.1-8.4-3.2-12.7-4.6c-3.6-1.2-6.8-3.7-10.4-4.9c-6.3-2.1-11-7.1-17.5-9.2
		c-3.7-1.2-7.2-3.1-11.1-4c-2.9-0.7-5.9-1.6-8.6-2.9c-3.5-1.7-6.8-3.8-10.1-5.9c-1.5-0.9-2.6-2.4-4.4-4c-3-0.2-4.8,0.7-4.5,3.3
		c0.3,2.6,1.7,5,2.6,7.5c0.2-0.1,0.5-0.2,0.7-0.2c0-1.2,0-2.5,0-4c1-0.1,1.9-0.2,2.8-0.2c0.1,1.4,0.2,2.5,0.3,3.9
		c0.8-0.4,1.3-0.8,2.3-1.3c-0.5,2.1-1.1,3.7-1.1,5.2c0,2.5,0.8,3.2,2.5,3.4c-1-2.7,0.4-6.6,2.8-7.3c-0.1,0.7-0.2,1.3-0.4,1.8
		c-0.5,1.4-1.5,2.8,0.4,4c0.3,0.2-0.1,1.2-0.1,1.9c-0.1,0.8-0.1,1.5-0.2,2.3c0.7-0.3,1.3-0.7,2-0.9c0.5-0.2,1.1-0.4,1.7-0.4
		c0.2,0,0.4,0.9,0.5,1.3c0.3,2.7-1.4,2.2-3.4,1.6c0.2,0.9,0.2,1.6,0.6,1.9c2.3,1.8,4.7,3.5,7.1,5.3c1.2,0.9,2.4,2,3.3,3.1
		c0.8,1,1.3,2.2,1.9,3.3c0.2-0.1,0.3-0.2,0.5-0.2c0.3-1.8,0.6-3.6,1-5.8c3.4,1.6,0.8,4.4,2,6.2c0.6-0.3,1.3-0.6,1.8-0.9
		c0.7,0.9,1.3,1.8,1.9,2.6c-0.4,0.5-0.8,1.2-1.3,1.8c0.2,0,0.4-0.1,0.7-0.1c0.5,1.1,0.9,2.2,1.4,3.3c1.1,2.1,2.1,4.3,3.3,6.4
		c0.5,0.9,1.4,1.5,2.2,2.2c1.1,1.1,2.2,2.3,3.5,3.2c2.9,2,5.2,4.2,6.4,7.7c0.7,2.3,2.2,4.4,3.5,6.4c1.7,2.6,3.7,5.1,5.2,7.8
		c1.5,2.6,2.5,5.5,6,6.3c0.3,0.1,0.6,0.5,0.8,0.8c3.6,3.8,8.1,6.3,12.6,8.5c2.8,1.4,6.2,1.6,9.4,2.2c0.5,0.1,1.1-0.2,1.7-0.4
		c-1.8-1.4-3.3-2.6-4.9-3.8c0.3-0.3,0.5-0.6,0.8-1c1.1,0.9,2,2,3.2,2.6c2.9,1.4,6,2.6,9,3.8c0.3,0.1,0.8,0.2,1.1,0.1
		c2.6-0.6,4.7,0.7,6.7,2c1.3,0.8,2.8,2.2,4.1,2c2.4-0.3,4.1,0.8,6.2,1.5l0.1-0.1c-1,0.3-2,0.9-2.9,0.7c-2.3-0.4-4.4-1.3-6.8-0.4
		c-0.8,0.3-2.1,0-2.8-0.5c-2.6-1.8-5.3-2.1-8.2-1.1c-0.5,0.2-1.1,0.1-1.6,0.2c-3,0.2-6,0.4-9.1,0.6c-1,0-2.1,0-3.1-0.4
		c-5.7-2-11.4-2.1-17.3-0.9c-3.3,0.7-6.8,1.4-10.1,1c-4.1-0.5-7.6,1.1-11.4,1.9c-3.5,0.8-6.7,2.4-10.2,3.1
		c-3.8,0.9-7.8,1.1-11.7,1.7c-0.7,0.1-1.5,0.3-2.2,0.6c-1.8,1-3.6,2.2-5.3,3.3c-1.3,0.8-2.4,1.8-3.7,2.6c0.7,0.6,1.1,0.7,1.4,0.6
		c2.6-1.7,5.5-1.8,8.5-2c0.6,0,1.2-0.5,1.9-0.7c3-1,6-2,9-3c0.4-0.1,0.9,0.1,1.1-0.2c1.6-2.1,4.3-1.4,6.4-2.4
		c3.5-1.7,7.1-0.1,10.7,0.8c2,0.5,4,1,5.7-0.9c0.4-0.4,1.3-0.7,1.6-0.5c1.7,0.8,3.1,0.1,4.5-0.6c0.5-0.3,1.2-0.4,1.7-0.4
		c5.2,0,10.3-0.3,15.5,0.2c4.4,0.4,8.8-2.1,13.1,0.2c0.2,0.1,0.5,0.1,0.7,0.1c3.1-0.5,5,1.7,7.2,3.1c0.6,0.4,1.3,0.8,1.9,0.8
		c6.6,0,13.2,0.1,19.8,1.1c3.5,0.5,7.2-0.2,10.8-0.3c2.9-0.1,6.1-1,8.6,0c2.6,1,5.5-0.4,7.3,1.6c0.9-1.2,1.6-2.2,2.5-3.5
		c-0.5-0.4-1.1-0.9-1.8-1.3c-0.5-0.3-1.2-0.4-1.8-0.6c0.5-0.5,1-1.2,1.6-1.5c0.7-0.3,1.6-0.3,2.4-0.4c0.8,1.1,1.5,2.2,2.3,3.3
		c0.4,0.5,0.9,0.9,1.1,1.4c0.3,0.8,0.3,1.7,0.4,3c-0.9,0.6-2.1,1.5-3.8,2.6c1.6,0.1,3.2,0.8,3.8,0.2c2.5-2.3,2.8-0.2,3.4,1.4
		c0.4,0.9,0.6,1.9,0.9,2.8l0.1-0.1c-1.4,0.5-3.2,0.2-3.8,2.3c-0.3,0.9-0.9,1.8-1.6,2.3c-1.5,1.2-4.1,0.8-4.6,3.4
		c0,0.1-0.4,0.2-0.6,0.2c-2.1-0.1-2.9,1.7-4,2.9c-1,1-1.8,2.9-2.9,3.1c-2.1,0.3-2.9,1.4-3.9,3c-1.6,2.5-2.3,6.2-6.5,6
		c-0.3,0-0.7,0.5-1,0.8c-0.8,0.7-1.5,1.7-2.4,2.2c-1.5,0.8-3.2,1-4.6,1.8c-3.2,2-6.3,4.1-9.2,6.4c-1.2,0.9-1.9,2.6-3.1,3.6
		c-1.2,0.9-2.1,1.7-1.7,3.3c0.1,0.4-0.3,0.9-0.6,1.3c-1.2,1.6-2.8,2.9-3.7,4.6c-2.5,4.5-4.6,9.3-7.1,13.8c-2.1,3.7-4.7,7-6.9,10.6
		c-3.9,6.2-7.6,12.5-11.4,18.8c-0.9,1.5-1.4,3.2-2.4,4.6c-2.4,3.2-4.9,6.3-7.4,9.4c-4.2,5.3-8.4,10.6-12.6,15.9
		c-1,1.2-2.1,2.4-2.9,3.8c-0.9,1.7-1,4.1-4,3c-0.2-0.1-0.5,0.3-0.7,0.5c-3.6,4.1-7.3,8.1-10.8,12.3c-0.6,0.7-1.1,1.7-1.3,2.6
		c-0.3,2.1-1.6,2.9-3.8,2.6c4.5,3.3,9.4,3,12.6-0.4c-0.4-0.9-0.9-1.8-1.6-3.4c1.6,0.3,2.6,0.5,2.9,0.6c1.5-0.9,2.7-1.5,3.9-2.2
		c0.6,0.6,1.2,1.1,1.6,1.5c-1.2,1-2.3,2-3.5,2.9c0.1,0.2,0.3,0.4,0.4,0.7c2-0.9,4.6-0.4,5.9-3.1c1.1-2.1,2.8-3.6,5.2-4.4
		c1.9-0.6,4.2-1.4,5.1-2.9c1.3-2.1,3-2.7,5.1-3.4c2.4-0.9,5.2-1.3,6.9-3.6c0.9-1.3,2-2.4,3.1-3.6c1.9-2.2,3.7-4.7,5.9-6.7
		c2.8-2.4,4-7.2,9.1-6.5c0.4,0.1,0.8-0.3,1.3-0.5c2.3-0.9,4.5-2.1,6.9-2.7c2.2-0.6,4.2-0.8,5.7-3c1.7-2.6,2.2-3.8,0.1-6.2
		c1.2-2.4,4.3-4.2,2.7-7.5c-0.8-1.8-0.2-2.9,1.4-3.7c1-0.6,2-1.2,3.1-1.8c-0.4-0.3-0.6-0.3-0.8-0.3c-0.8-0.2-1.6-0.5-2.3-0.7
		c0.5-0.7,0.8-1.7,1.5-2c1.3-0.6,2.5-1.2,4.1-1.5c4.5-0.8,5.9-6.3,10.5-7.2c0.1,0,0.1-0.1,0.1-0.2c1.4-1.5,2.7-3,4.2-4.4
		c0.5-0.4,1.8-0.7,2.2-0.4c2.1,1.8,4.7,3.5,5.8,5.9c1.3,3,1.4,6.6,1.9,9.6c2-1.1,0.4-5.3,4-6.3c0,1.9,0.7,4.1-0.1,5.2
		c-1.4,1.8-1.3,3.6-1.4,5.6c0,0.8-0.6,1.5-0.8,2.3c-0.8-0.3-1.6-0.6-2.8-1.1c-0.2,1-0.7,2.5-0.9,3.9c-0.2,1.1,0.1,2.3-0.1,3.4
		c-0.7,3.5-1.7,6.9-2.2,10.5c-0.3,2.2-0.9,4.7,1.5,6.9c1.1-4.3,2.2-8.3,3.3-12.5c0.5-0.1,1.2-0.3,2-0.6c0,1,0,1.8,0,2.7
		c1-1.3,1.8-2.4,2.7-3.5c0.2,0.2,0.5,0.3,0.7,0.5c-0.6,1.6-0.9,3.3-1.8,4.7c-2,3.1-4,6.1-3.3,10.1c-2.2,2.5,0.4,5-0.1,7.7
		c-0.5,2.8-0.2,6,2.1,8.3c0.2,0.2-0.2,0.7-0.1,1.1c0.2,3.6-1.2,6.9-0.5,10.8c1,6.1,2.7,12,3.6,18.1c0.3,2.2,1.3,4.4,1.6,6.6
		c0.4,2.8,0.4,5.7,0.8,8.5c0.1,1.2,0.8,2.3,0.9,3.5c0.3,2.3,1,4.3,2.9,5.9c0.9,0.7,1.5,1.8,2.1,2.8c1.4,2.1,2.6,4.3,4.1,6.2
		c1.5,1.9,3.6,3.4,5.1,5.3c1.8,2.3,3.3,5,5,7.4c0.4,0.5,1,0.8,2.1,1.7c0.5-3.3,1-5.8,1.2-8.4c0.1-0.8-0.7-1.7-1.2-2.8
		c1.6-1.3,1.6-3.2-1-5.6c1.3-1.9,2.1-3.8,1.2-6.4c-1.2-3.6-0.7-7.5-0.7-11.3c0-0.9-0.6-1.8-0.5-2.7c0.1-2.4,0.7-4.7,0.6-7.1
		c-0.1-2.4-1.2-4.8-1.4-7.2c-0.5-6.3-0.7-12.7-1-19.1c-0.3-5.9-0.6-11.8-0.7-17.7c-0.1-3.5-0.2-7.1,0.1-10.6
		c0.5-4.8,0.8-9.5-1.1-14.1c-0.2-0.4,0.1-0.9,0-1.3c-0.4-3.1-0.5-6.3-1.4-9.2c-1.2-4.2-3.7-8.2-4.3-12.5c-0.8-5.2-0.3-10.6-0.2-15.9
		c0.1-3.7,0.6-7.4,0.7-11.2c0.1-5.1,0-10.3,0.1-15.4c0-5.7,0.1-11.3,0-17c0-1.6-0.3-3.4-2.7-3.8c-1.9-0.3-2.1-3-0.3-4.1
		c1.5-0.9,1.7-1.7,1.3-3.3c-0.7-3,2.6-6,5.6-5.2c0.6,0.2,1.3,0.1,1.9-0.1c1.4-0.4,2.7-0.9,4-1.4c0.5-0.2,1.1-0.5,1.4-0.9
		c0.7-0.8,1.2-1.7,1.9-2.5c0.9-0.9,2-2.6,2.8-2.5c2,0.2,0.3,1.7,0.4,2.7c0,0.1,0.1,0.1,0.2,0.4c0.4,0.1,0.9,0.4,1.4,0.4
		c2.4,0.1,4.1,1.1,5.3,3.2c0.7,1.1,2,1.8,3,2.6c0.4,0.3,0.9,0.7,1,1.1c1,4.1,4,7,6.5,10.1c2.5,3.2,5.9,5.7,9.1,8.3
		c4,3.3,8.3,6.2,12.4,9.5c2.2,1.8,4.5,3.6,6.4,5.7c2,2.2,3.9,4.6,5.5,7.1c2.3,3.8,4.5,7.7,6.5,11.6c1.6,3.1,2.9,6.2,4.4,9.4
		c1.3,2.8,2.6,5.5,4.1,8.2c0.8,1.4,0.9,3.3,3,3.7c0.4,0.1,0.5,1.3,0.8,2c0.3,0.9,0.4,1.9,0.9,2.7c3.5,5.3,7.1,10.6,10.7,15.9
		c1.4,2,3,3.9,4.5,5.9c2.2,3,4.5,6,6.7,9.1c3.1,4.5,5.7,9.4,9.4,13.3c2.2,2.4,4,4.8,5.5,7.6c0.4,0.8,1,1.5,1.5,2.2
		c1.6,2.6,3.2,5.1,4.6,7.7c1,2,1.7,4.2,2.7,6.2c0.2,0.4,0.8,0.7,1.2,1c0.2-0.1,0.4-0.2,0.5-0.3c-0.8-3.4-1.5-6.8-2.4-10.1
		c-0.2-0.9-0.9-1.7-1.4-2.5c-0.8-1.2-1.7-2.2-2.3-3.5c-1.7-3.4-3.1-7-4.8-10.4c-2.6-5.2-5.8-10-9.6-14.4c-1.2-1.3-1.8-3.1-2.9-4.5
		c-2.3-2.9-4.8-5.6-7.1-8.5c-0.2-0.3,0-0.9,0-1.4c0-0.2,0-0.4-0.1-0.7c-0.7,0.1-1.4,0.2-2.2,0.3c-0.5-1.4-0.7-2.8-1.3-4.1
		c-1.6-3.1-3.2-6.1-4.9-9.1c-3.1-5.6-6.3-11.1-9.5-16.7c-0.6-1-1.7-1.6-2.1-2.6c-2.3-5.4-5.5-10.2-8.8-15
		c-3.4-4.9-7.5-9.3-10.7-14.3c-2.6-3.9-5.8-6.5-10-8.3c-2.3-1-5.2-1.8-5.9-5c0-0.2-0.5-0.4-0.7-0.5c-1.5-0.6-2.9-1.2-4.4-1.6
		c-1.3-0.4-2.4-0.7-2.5-2.5c-0.1-0.8-1.2-1.7-2.1-2.2c-1.8-1-4-3.8-4-5.9c1.4,0.6,2.9,1.1,4.1,1.9c1,0.7,1.7,1.9,2.5,2.9
		c0.3-0.2,0.5-0.4,0.8-0.6c-1.5-0.9-0.3-3.4-2.7-3.9c-0.6-0.1-1.2-0.9-1.7-1.4c0.5-0.6,1.1-1.1,1.7-1.8c-0.6-2.6-3.2-1.2-4.8-1.8
		c-1.3-0.6-3.3,0.2-5,0.4c0.1-1,0.2-1.7,0.3-2c-1.3-1.2-2.6-2-3.3-3.1c-0.4-0.6,0.1-1.8,0.4-2.6c0.1-0.2,1.7-0.1,1.8,0.2
		c1.1,2.4,3.4,2.7,5.3,2.9c2,0.2,2.9,0.7,2.9,2.3c2.2,0.6,4.1,1.2,6.3,1.9c-0.5,1.4-0.9,2.7-1.3,3.7c1.3-0.5,3.3-2,4.1-1.5
		c4.1,2.5,0.3,4.4-1.1,6.8c0.6,0.3,1.2,0.6,1.7,0.8c-0.6,1.3-1.1,2.1-1.6,3.1c0.9,0.4,1.7,0.8,2.7,1.3c0.1-1.1,0.2-1.7,0.3-2.8
		c2,2.6,3.7,4.8,5.3,7c0.5-0.9,0.9-1.6,1.4-2.3c0.7,0.5,1.5,1,2,1.6c1,1.2,1.9,1.5,2.9,0.1c0.2-0.3,0.7-0.5,0.9-0.6
		c0.6,1.2,1.1,2.3,1.7,3.5c-0.5,0.4-1.1,0.9-2.3,1.8c2.6,1,4.7,2.5,7,2.6c5.9,0.3,11.8,0,17.6,0.1c0.6,0,1.7,0.7,1.8,1.1
		c0.3,1.8-2.1,4.8-4.1,5.4c-0.3-0.9-0.5-1.8-0.9-3.2c-1.6,0.6-3.2,1.2-5,1.8c-1.3-0.7-1.2-1.8,0.1-2.9c-2.1-0.1-2.5,0.5-1.9,2.4
		c0.3,0.8,0.2,1.7,0.3,2.7c-2.9-0.9-4-2.4-3.4-5c-0.8-0.1-1.5-0.1-2.8-0.3c0.8,1.8,1.6,3.1,1.9,4.6c0.5,2.5,1.3,4.5,4.3,4.7
		c0.4,0,0.7,0.5,1.1,0.7c0.8,0.4,1.8,1.2,2.5,1.1c2.2-0.4,3.1,0.9,4.1,2.5c0.8,1.3,2,2.2,3.1,3.3c0.2-0.1,0.3-0.3,0.5-0.4
		c0,0.5,0.1,1,0.1,1.4c1.2-0.2,2.3-0.4,3.4-0.6c0.1,0.2,0.2,0.5,0.2,0.7c-0.5,0.3-1,0.8-1.6,0.9c-1.4,0.2-2.8,0.2-4.3,0.3
		c-0.6,0.1-1.3,0.3-1.8,0.7c-0.2,0.1,0.1,1.1,0.4,1.4c0.5,0.3,1.2,0.6,1.7,0.4c1.8-0.4,3.3,0.3,4.6,1.4c0.3,0.2,0.7,0.4,1.1,0.5
		c1.5,0.1,3,0.3,4.5,0.3c1,0,2-0.4,3-0.7c0.6-0.2,1.1-0.6,1.7-0.5c2.2,0.2,4.3,0.6,6.4,0.9c1.2,0.2,2.4,0.2,3.6,0.3
		c0.5,0.1,0.9,0.3,1.3,0.4c1.1,0.4,2.1,0.8,2.8,1.1c0.3-1.2,0.3-2,0.7-2.3c2.5-1.9,6.7-3.1,10.3-0.8c1.3,0.9,3.5,1.4,5,0.9
		c4.8-1.7,9.3-3.8,13.7-5.7c-1.2-2.2-2-3.7-2.9-5.3c-0.2,0.1-0.4,0.2-0.6,0.2c0.1,0.7,0.4,1.4,0.3,2.1c-0.1,0.6-0.5,1.4-1,1.7
		c-0.4,0.3-1.2,0.3-1.7,0.2c-0.6-0.1-1.6-0.4-1.6-0.7c0-0.6,0.2-1.7,0.7-1.9c1.5-0.6,1.5-1.6,1.3-2.9c-0.1-0.4,0.2-0.8,0.4-1.4
		c0.7,0.5,1.2,0.9,1.6,1.2c1.1-0.4,2.1-0.8,3-1.1c0.3-3.3,4.3-3.3,5.2-6.2c1.2,2.2,2,4.3,2.7,6.5c0.1,0.2-0.3,0.7-0.6,0.9
		c-0.9,0.4-1.8,0.7-2.6,1.1c-2.1,0.8-3.8,1.4-1.6,4.4c4.3-1.9,8.5-3.9,13.2-6c-2.2-2.2-5.2-3.7-2.4-7.2c0.3,1,0.5,1.7,0.8,2.7
		c1.7-1.5,2.2-0.5,2.6,0.9c0.1,0.5,0.1,1.1,0.3,1.6c0.2,0.5,0.7,1.1,1.1,1.2c0.5,0.1,1.1-0.4,1.7-0.6c0-0.2-0.1-0.4-0.1-0.6
		c-0.6-0.1-1.2-0.2-1.8-0.3c0-2.1,0-2.1,3.3-3.4c0,1.2,0,2.1,0,3.5c1.6-1.8,4.2-2.3,4.8-5.1c0.1-0.4,0.8-0.7,1.2-1
		c0.3,0.5,0.8,0.9,0.9,1.4c0.1,0.5-0.2,1-0.4,1.6c-0.5-0.1-1-0.2-1.8-0.3c0.3,0.7,0.6,1.1,0.9,1.8c1.6-1.1,3.4-1.9,4.6-3.2
		c1.8-1.9,1.1-3.3-1.4-3.8c-1.8-0.4-2.7-2.2-1.8-3.8c0.2-0.4,0.8-0.6,1.2-0.9c0.3,0.4,0.6,0.8,0.7,1.2c0.2,0.6,0.2,1.3,0.3,2.2
		c1.4-1.3,0.6-3.6,2.9-4.2c0,1.9,0,3.5,0,5.3c1-0.5,1.7-0.9,2.5-1.3c-0.2-0.1-0.4-0.2-0.5-0.2c0.5-1.2,0.9-2.4,1.4-3.5
		c0.6,0.3,1.2,0.5,1.8,0.8c2.9-2.6,3.5-7.1,7.2-9.3c1.5-0.9,2.6-2.5,3.7-3.9c0.9-1.1,1.5-2.4,2.4-3.6c2-2.5,2.9-5,0.4-8.3
		c-1.5,0.2-3.3,0.5-5.1,0.7c-0.6,0.1-1.6,0-1.8-0.4c-1.3-1.8-2.9-1.9-4.8-1.4c-0.7,0.2-1.6-0.2-2.4-0.3c-1.8-0.3-4-1.3-5.3-0.7
		c-2.8,1.4-5.1,0.4-7,0.1c-2.6,1.3-4.8,2.4-7,3.5c1.2-0.1,2.4-0.5,3.6-0.6c2.6-0.3,5.3-0.8,7.8-0.5c2.3,0.3,4.4,1.6,6.7,0.2
		c0.3-0.2,0.7,0,1.1,0.1c1.2,0.1,2.4,0.2,3.5,0.5c0.6,0.1,1.1,0.6,1.6,0.9c-0.1,0.2-0.2,0.5-0.3,0.7c-2.6,0-5.1,0.5-6.7,2.8
		c-0.2,0.3-0.8,0.5-1.2,0.5c-1.7,0.1-3.5,0-5.2,0.1c-6.5,0.3-13.2-1.2-19.6,1.4c-0.2,0.1-0.5,0.1-0.7,0.1
		c-5.8-0.5-11.7-0.9-17.5-1.5c-4.1-0.4-8.1-1.1-12.1-1.6c-1.7-0.2-3.4-0.1-5-0.3c-5.9-0.7-11.9-1.7-17.8-2
		c-3.8-0.2-7.5,0.2-11.4-0.5c-5.3-1-10.9-0.5-16.4-0.4c-3,0-6,0.4-9,0.6c-0.6,0-1.3-0.5-1.9-0.6c-1.3-0.3-2.7-0.7-4-0.7
		c-3.5-0.1-6.8,0-10.1-1.6c-4.5-2.2-9.2-4.1-14.3-4.2c-2.5,0-4.8-2.1-7.4-0.5c-1.9-1.9-3.7-0.5-5.7,0.6c-0.4-1-0.9-1.8-1.1-2.7
		c-0.6-2.6-2.8-4.4-5.5-4.1c-1.6,0.1-2.1-0.4-1.8-1.9c0.1-0.4,0.1-0.8,0.1-1.6c-1.1,0.7-2,1.2-2.8,1.8c-1.3-1.7-1.1-2.7,0.7-3.3
		c1.4-0.4,2.8-0.7,4.3-0.7c2.3,0,3.6-1.1,4.4-3.2c-0.3-0.2-0.7-0.5-0.8-0.4c-1.8,1.3-4.7-0.1-6.1,2.5c-0.2,0.4-1.2,0.3-1.8,0.4
		c-0.5,0.1-1.2-0.1-1.6,0.2c-1.9,1.2-3.6,1.3-5.3-1c-2.5,2.2-4.7,4.2-7.3,6.5c-0.4-1.3-0.7-2.6-1.3-3.6c-0.6-1-1.3-2.4-3-1.2
		c1,1.8,2.1,3.5,2.9,5.3c0.3,0.7,0.1,1.9-0.4,2.6c-0.2,0.3-1.6,0.3-2.2,0c-1.6-0.7-3.2-1.6-4.8-2.5
		C218.7,197.5,218.7,197.4,218.8,197.2c0.9-0.8,1.8-1.5,2.8-2.3c-3.1-2.9-6.4-4.9-10.8-4.6c0.8,0.7,1.8,1.2,2.7,1.8
		C215.5,193.7,219,193.6,218.8,197.2z M139.6,272.6c0.1,0.3,0.2,0.6,0.3,0.9c-1.2,1-2.7,1.8-3.5,3.1c-1.6,2.5-2.5,5.4-4.1,7.8
		c-2.6,3.9-3.9,8-4.8,12.6c-0.8,3.9-2.7,7.7-4.2,11.5c-0.7,1.8-1.6,3.5-2.3,5.3c-1.6,4.1-2.8,8.3-4.7,12.2c-1.9,3.8-4.5,7.3-6.7,11
		c-0.4,0.7-0.7,1.4-1.2,2.3c-0.4,0.1-1,0.1-1.5,0.2c-1.5,4.2-3,8.1-4.5,12.1c1.1,0.5,2.5-0.3,2.5-2.2c0-4.9,3.4-7.5,6.3-10.4
		c3-2.9,5.4-5.9,7-9.8c0.9-2.4,0.7-5.6,3.8-7c0.3-0.1,0.3-0.7,0.5-1c1.5-3.8,3-7.6,4.5-11.4c0.9-2.2,2.2-4.4,2.5-6.8
		c0.5-4.3,2.6-8,4.2-11.9c0.5-1.3,0.7-2.7,1.5-3.8c2.1-3.1,4.4-6.1,6.8-9.1c1.7-2.2,3.6-4.3,5.3-6.4c0.8-1,1.5-2,2.3-3
		c1.2-1.5,2.5-2.8,3.5-4.4c2-2.8,3.9-5.8,5.8-8.7c1.8-2.8,3.7-5.7,5.5-8.5c0.5-0.8,1.1-1.8,1.9-2.2c3-1.4,6-2.7,9-4
		c2.3-1.1,4.7-2.1,7-3.3c2.7-1.4,5.4-2.9,8-4.5c1.2-0.7,2.3-1.7,3.2-2.8c2.3-3.1,3.8-6.8,7.3-8.9c1-0.6,2.2-1,2.9-1.8
		c2-2.6,5-3.6,7.7-3.5c5.2,0.3,8.2-3.5,12.2-5.7c-1.2-0.5-2.3-0.5-3.4-0.7c-3.4-0.6-4.5,2-5.6,4.4c-1.7-2.3-1.7-2.3-0.4-5.8
		c-2.9,1-5.4,2-7.9,2.8c-0.9,0.3-2,0.8-2.9,0.7c-1.6-0.2-3.1-1.1-4.7-1.1c-2.2,0.1-4.4,0.7-6.7,1.1c-1.3,0.2-3,1.3-3.7-0.8
		c-0.5-1.5-1.3-1.4-2.4-1.3c-2,0.1-4.2,0.6-6.1,0.2c-4.4-0.8-7.6,1.5-10.6,3.9c-1.8,1.5-3.7,1.5-5.1-0.4c-1.1-1.5-2.5-2.4-4.5-2.2
		c-1.9,0.2-3.8,0.2-5.7,0.4c-3.3,0.3-6.6,0.5-9.9,1.2c-3.2,0.7-6.4,1.6-9.6,2.7c-3.5,1.2-6.8,2.9-10.3,4c-1.8,0.5-3.6,2.3-5.9,0.2
		c-1-0.9-3.1-0.9-4.7-0.7c-1.6,0.2-3.1,1.1-4.6,1.9c-2.5,1.5-5.2,2.8-7.3,4.7c-3,2.7-6.1,4.2-10.3,3.8c-3.4-0.3-6.8-0.3-10.2-0.2
		c-0.8,0-1.6,0.4-2.3,0.8c-1.4,0.9-2.6,2-4,3c-4.1,3.1-8.7,5.1-13.8,6.1c-3.4,0.7-6.7,1.7-10.1,2.8c-1.4,0.5-2.8,2-4.1,1.9
		c-1.8-0.2-3.1,0.5-4.6,0.8c-4.9,1-9.9,1.9-14.9,2.8c-0.4,0.1-0.7,0.3-1,0.4c-1.1,0.3-2.3,0.9-3.4,0.8c-2.1-0.2-2.7,1.1-2.2,2.4
		c0.9,2.1,2.4,3.9,3.7,6c0.9-1.9,1.5-3.2,2.1-4.5c0.2,0.1,0.4,0.2,0.6,0.3c0.2,3.1,0.2,3.1,1.3,3.7c1.1-0.9-0.1-3.4,2.4-3.5
		c-0.1,1.3-0.3,2.5-0.4,4c1.6,0.3,3.1,0.6,4.6,0.9c0.1-0.2,0.1-0.5,0.2-0.7c-1.8,0-3.6-0.1-3.4-2.6c0.2-1.6,0.8-2.9,2.8-2.6
		c0.1,1.3,0.3,2.4,0.4,3.5c0.2,0,0.5,0,0.7,0c0.8-1.3,1.3-3,2.5-3.7c1.2-0.7,3.1-0.5,4.6-0.7c0.2,0,0.4-0.2,0.6-0.2
		c1.2-0.3,2.5-0.6,3.7-1c0.9-0.3,1.9-0.6,2.8-1.1c2.9-1.6,5.6-3.3,9.2-3c1.7,0.1,3.6,0.3,5.2-1.4c1.7-1.8,3.3-1.8,5.1-0.8
		c-1.5,1-3,2-4.5,3c0.1,0.2,0.2,0.4,0.3,0.6c0.5,0,1,0,1.5,0c2.3-0.1,4.5-0.2,6.8-0.2c0.4,0,0.8,0.7,1.1,1.1
		c-0.5,0.3-1.2,0.9-1.4,0.7c-2.1-1.6-4.2,0-6.3,0.1c-1.6,0.1-3.1,0.7-4.6,1.1c-2.5,0.7-4.9,1.7-7.4,2.2c-1.4,0.2-2.9-0.4-4.3-0.7
		c0.2,0.3,0.5,0.6,1,1.2c-2,0.8-3.9,1.5-5.7,2.1c-0.4-1.2-0.6-1.9-1-3.1c-0.9,0.8-1.7,1.3-2.2,2c-0.1,0.2,0.2,1.1,0.5,1.3
		c3,2,6.2,2.9,9.8,1.1c1.9-1,4-2,6-1.1c2.2,1,4.2,0.5,6.4,0.6c0.5,0,1,0.3,1.6,0.3c1.8,0.1,3.7,0.5,5.5,0.3c1.7-0.2,3.9-0.7,4.7-1.9
		c2-2.9,4.7-1.5,7.1-2.1c-2.7,1.4-5.4,2.6-8.1,3.8c-1.2,0.5-2.3,1.5-3.4,1.5c-4,0.1-8-0.1-12-0.2c-0.2,0-0.4-0.2-0.7-0.1
		c-2.1,0.1-4.2-0.1-6.2,0.4c-0.6,0.1-0.9,1.8-1.3,2.7c0.8,0.2,1.8,0.9,2.4,0.7c2-0.8,2.2,0.4,2.5,1.8c0.2,1.2,0.5,2.4,0.8,3.9
		c1.1-0.7,1.7-1.1,2.2-1.4c1.9,1.3,3.7,2.6,5.7,3.7c0.4,0.2,1.3-0.4,1.9-0.6c0.9-0.3,2.4-1.1,2.7-0.7c1.5,1.6,2.9,0.5,4.3,0.1
		c0.4-0.1,0.9-0.2,1.3-0.3c0.1,0.3,0.3,0.5,0.4,0.8c-1.4,1-2.8,2-4.3,3c0.1,0.3,0.1,1.1,0.5,1.5c2.1,2.2,4.1,4.4,6.5,6.3
		c2,1.6,6.1,0.7,7.5-0.9c1-1.1,2.5-2.1,4-2.4c3.3-0.8,6.4,0.1,9.2,2.1c2.2,1.6,4.7,1.6,6.3-0.1c1.6-1.8,3.3-1.3,5.2-1.1
		c1.9,0.3,3.9,0.4,5.7,0.1c1.4-0.2,2.6-1.3,4-1.9c1.4-0.7,2.9-1.3,4.3-1.9c0.5-0.4,1.3,0,1.8-0.3c2.7-1.5,2.5,0.3,2.6,2.1
		c0,0.5,0.9,1,1.4,1.5c0.1-0.2,0.3-0.4,0.4-0.5c-2.3-4.7-1.2-6.3,4.7-7.1c-0.1,1.1-0.3,2.2-0.4,2.9
		C137.3,271.8,138.5,272.2,139.6,272.6z M403.1,101c0.1,0.2,0.2,0.3,0.3,0.5c-2,1.1-3.9,2.4-6,3.3c-3,1.3-6.2,2.1-9.3,3.3
		c-1.7,0.7-3.5,1.4-5.1,2.3c-1,0.5-1.8,1.8-2.7,1.8c-4,0.4-6.2,3.5-9.2,5.4c-1.2,0.7-2.4,1.3-3.4,2.2c-3.9,3.3-7.1,7.3-9.6,11.6
		c-1.1,1.9-2.3,2.3-4,2c-1.9-0.3-3.1,0.4-4.4,1.8c-1.9,2-4.1,3.8-5.9,5.9c-1.8,2.1-3.2,4.5-4.8,6.8c-0.8,1.1-1.5,2.4-2.5,3.3
		c-1.1,1-2.6,1.5-3.7,2.4c-2.3,1.9-4.5,4-6.8,5.8c-1.5,1.2-3.1,2.1-4.6,3.3c-2.9,2.4-2.9,2.4-6,0c-2.2,1.8-4.4,3.8-6.8,5.6
		c-2.8,2-5.7,3.9-8.7,5.6c-2.6,1.4-5.3,2.6-8,3.8c-3.6,1.7-7.2,3.6-10.9,5c-3.9,1.5-7.7,3.6-12.2,3.2c-1.4-0.1-3.2,0.2-4.1,1.1
		c-2.2,2.3-4.9,2.1-7.6,2.2c-2.7,0.2-4.3,1.4-5,3.8c0.9,0.2,1.8,0.3,2.6,0.7c0.9,0.5,2,1.2,2.3,2c0.8,2,1.8,3.4,3.9,3.8
		c1.9,0.4,3.9,0.8,5.8,1.2c0.3,0,0.6-0.7,0.9-0.8c0.8-0.3,2.1-0.9,2.5-0.5c2.1,2.2,4.8,1.7,7.2,1.5c6.3-0.6,12.5-1.8,18.7-2.4
		c5.1-0.5,10.2-0.7,15.3-0.6c3.5,0,6.9,0.8,10.4,1.2c-0.1-4,2.5-5.8,6-4.7c1.6,0.5,3.7,0.3,5.2-0.4c3.6-1.7,6.9-3.9,10.3-6
		c0.5-0.3,1.1-0.6,1.4-1.1c1.6-2.4,3.3-4.7,4.6-7.2c2-4,5.8-6,8.7-9.1c1.3-1.4,2.7-2.6,3.7-4.1c1.4-2.2,2.2-4.8,3.7-6.9
		c2.4-3.6,5-7,7.7-10.3c2.5-3.1,2.9-8,7.6-9.2c0.1,0,0.1-0.1,0.1-0.2c2.8-2.9,4.7-6.2,5.8-9.8c-0.9-0.4-1.8-0.8-2.6-1.2
		c0.1-0.2,0.2-0.5,0.3-0.7c0.6,0,1.3-0.2,1.8,0c2.1,1.3,3.4-0.3,4.6-1.4c2.7-2.5,5-5.4,7.6-8c1.6-1.5,0.5-3.8,2.3-5.4
		c-1.1-0.5-1.8-0.8-2.3-1c-0.6,0.7-1,1.3-1.5,1.6c-0.1,0.1-1-0.4-1-0.6c0.1-1,0.2-2.2,0.6-3.1c0.4-0.8,1.3-1.4,2-2.1
		c0.1-0.2,0.1-0.5,0.2-0.7c2.7,0.8,1.8,3.8,2.7,6c0.8-0.3,1.6-0.6,2.4-0.9c-0.5-1.6-1.1-2.9-1.4-4.3c-0.1-0.6,0.6-2,0.8-2
		c2.9,0.4,2.5-2.1,3.6-3.4C405.3,102.1,404.2,101.5,403.1,101z M242.3,27.9c-2.6,1.2-4,3.5-3.8,6c0.4,4-0.1,7.8-1.2,11.6
		c-0.3,1-0.7,2.1-1,3.1c-0.8,2.8,1.5,5.6,0,8.4c-0.1,0.1,0.1,0.3,0.1,0.4c0.2,0.9,0.5,1.7,0.6,2.6c0.2,3.5,0.2,7,0.5,10.5
		c0.6,5.6,1.5,11.1,2.2,16.7c0.2,1.8,0,3.2-2.4,2.4c-0.6,3.3-1.1,6.4-1.7,9.8c1.6-0.6,3.2-0.8,2.7-2.9c-0.1-0.4,0.7-1.1,1.4-1.9
		c0.4,3.7,0.7,6.7,1.1,9.8c0.4,2.7,1.8,5.4-1,7.9c1.1,0.2,1.9,0.3,2.6,0.4c0.4,1.6,0.8,3.1,1.3,5.2c-1.4-0.8-2.1-1.3-3.2-1.9
		c-0.7,1.8-1.3,3.5-2,5.5c1.6,0.1,2.7,0.5,3.7,0.2c0.7-0.2,1.1-1.3,1.8-2.2c0.1,2.2,0.5,4.3,0.4,6.3c-0.2,5.3-0.6,10.5-1,15.8
		c-0.1,1.6-0.1,3.2-0.3,4.7c-0.5,3.6-1,7.1-1.5,10.7c-0.3,1.6-0.4,3.4-1,4.9c-0.9,2.2-1.8,4.3-1.3,6.8c0.1,0.4-0.3,1-0.5,1.4
		c-0.9,2.4-1.8,4.7-2.6,7.1c-0.2,0.6,0.2,1.4,0.5,2.1c1.1,2.3,1.7,4.7,1.3,7.3c-0.2,1.1,0,2.3,0,3.8c2.9-1.4,5.3-2.4,7.6-3.5
		c-0.1-0.2-0.3-0.7-0.5-1.1c1.3-1.1,2.6-2,4.2-3.3c-2.7-0.5-5.6,2.6-7.4-1.1c0.9-0.4,1.8-0.7,2.8-1.1c-1.7-2.1-0.5-3.7,1-5.2
		c1.3-1.3,2.6-2.7,3.7-3.8c-0.4-0.2-1.3-0.6-2.4-1.1c1.8-0.8,3.1-1.4,4.7-2c-2.1-1.6-3.7-2.8-5.3-4c0.1-0.3,0.2-0.5,0.3-0.8
		c1.1,0.1,2.2,0.2,3.7,0.3c-0.8-0.6-1.4-0.9-1.9-1.4c-0.4-0.4-0.8-0.9-1.1-1.4c0.6-0.2,1.3-0.5,1.9-0.7c0.7-0.2,1.9-0.4,1.9-0.7
		c0.1-0.8-0.2-1.7-0.6-2.5c-0.3-0.6-1.1-1.1-1.4-1.7c-0.5-1-0.8-2.1-1.4-3.5c0.7,0,1.5-0.1,2.3,0c3,0.6,3,0.7,4.1-2.4
		c-0.2-0.1-0.4-0.3-0.6-0.3c-2.2,0.9-2.7-1.5-4.1-2c-0.1,0-0.2-0.8,0-1c0.3-0.2,0.8-0.4,1.2-0.3c1.2,0.5,2.4,1.1,3.8,1.7
		c0.2-1.5,0.3-2.9,0.4-3.8c-1.7-1-3.1-1.8-4.4-2.7c-0.3-0.2-0.4-0.9-0.6-1.3c0.5,0,1.1-0.2,1.6,0c1.3,0.4,2.6,0.9,3.9,1.4
		c0.1-0.2,0.2-0.5,0.4-0.7c-1.9-1.9-3.8-3.8-5.7-5.6c0.2-0.2,0.3-0.5,0.5-0.7c1.6,0.5,3.2,1.1,4.8,1.6c0.1-0.2,0.3-0.5,0.4-0.7
		c-3.9,0-3-3.8-5-5.3c0.1-0.2,0.3-0.4,0.4-0.6c1.3,0.4,2.6,0.7,3.9,1.1c-0.3-1-0.9-1.6-1.6-2.2c-0.9-0.9-1.9-1.7-2.7-2.7
		c-0.2-0.3,0-1,0.2-1.4c0-0.1,0.8-0.1,1,0c1.1,0.9,2.1,1.9,3.5,3.3c0.4-2,0.8-3.6,0.9-5.3c0.1-1.4-0.4-2.8-0.4-4.3
		c0.1-3.4,0.5-6.8,0.5-10.2c0-2.3-0.3-4.6-0.5-6.8c-0.3-2.8-0.3-5.8-1.4-8.3c-1.5-3.3-1.9-6.8-2.1-10.2c-0.4-8.9-2.2-17.5-5.9-25.6
		c-0.4-0.9-0.7-1.9-0.8-2.8c-0.5-3.4-0.7-6.8-1.3-10.1c-0.1-0.8-1.2-1.5-1.9-2.3c-0.4-0.4-1.3-0.7-1.2-0.9c0.1-0.6,0.7-1,1-1.5
		c0.4-0.8,1-1.5,1.2-2.3c0.2-1.2-0.3-2.6,0-3.6C244.3,30.8,243.7,29.3,242.3,27.9z M224.1,182.2c0.4,1.6,0.7,2.8,1.1,4.6
		c1.1-1.4,1.8-2.2,2.4-2.9c0.4,1.2,0.3,2.2,0.1,3.2c-0.3,1.1-0.5,2.1-2.1,0.9c-0.7-0.5-2.1-0.1-3.2-0.1c1.9,1.5,3.6,3,5.5,3.4
		c1.3,0.3,3-0.9,4.5-1.3c2.4-0.6,2-2.4,1.7-4c-0.6-2.4-1.3-4.8-2.3-7.1c-0.9-2.1,0.8-4.9-1.7-6.6c-0.1-0.1,0-0.6,0-0.9
		c-1-3.9-1.8-7.9-3-11.8c-0.8-2.7-2.3-5.1-2.9-7.8c-1.4-6.1-1.5-12.3-0.7-18.6c0.5-4,1.6-7.9,1.8-11.8c0.6-8.2,1.6-16.4,3.9-24.3
		c0.4-1.6,0.5-3.3,0.6-5c0.1-1.6-0.1-3.3,0.2-4.9c0.3-1.7,1.1-3.4,1.3-5.1c0.2-1.8,0.2-3.6,0.1-5.5c-0.1-2.5-0.5-4.9-0.3-7.4
		c0.4-3,1.4-6,1.9-9c0.1-0.7-0.3-1.5-0.5-2.2c-0.2-0.8-0.7-1.5-0.7-2.3c-0.1-4-0.1-8.1-0.2-12.1c0-0.5,0-1.3-0.3-1.5
		c-1.7-1.3-1.2-3.1-1.2-4.7c0-0.5,0-0.9,0-1.4c-0.3-0.1-0.6-0.1-0.9-0.2c-1.8,4.4-1.8,9.4-3.3,13.7c1.9,0.4,3,0.8,2.5,2.8
		c-1-0.3-1.7-0.6-2.4-0.8c-2.3,3.5-2.8,7.3-2.5,11.3c0.2,2-0.4,4.2-1,6.2c-1.3,4.3-2.9,8.4-4.1,12.7c-0.8,2.7-0.9,5.7-1.6,8.4
		c-1.2,5.1-3.1,10-3.9,15.2c-0.9,5.1-1.2,10.3-1.1,15.5c0.1,4.8,1.1,9.5,1.7,14.2c0.7,4.9,1.3,9.8,2.1,14.7c0.3,2.1,1,4.1,1.5,6.1
		c0.2,0,0.4-0.1,0.7-0.1c0-3.5,0-7.1,0-10.7c1.5-0.8,2.1-0.1,2.3,1.5c0.4,3.2,0.5,6.5,1.5,9.5c1.6,4.4,4,8.6,6,13
		c-0.9,1.5-2.1,3-0.3,5c0.4,0.4,0.4,1.3,0.4,1.9c-0.1,1.3-0.4,2.7-0.5,4C227.2,181.9,226.5,183,224.1,182.2z M244.4,424.8
		c1.9,1.9,5.6,1.8,6.4,0.1c0.6-1.1,1.3-2.2,1.9-3.3c0.8-1.6,1.9-2.7,1.3-5.1c-0.7-2.6-0.8-5.8,0.6-8.8c1.2-2.5,1.3-5.5-0.7-8.1
		c-0.3-0.4-0.1-1.3,0-1.9c0.4-1.3,1.1-2.5,1.4-3.9c0.8-4.2,0.8-8.7,3.7-12.3c1.2-1.5,2.4-3.2,2.1-5.6c-0.8-5.1-1.3-10.2-1.9-15.3
		c-0.1-0.9-0.4-2.2,0.1-2.8c1.6-2.1,1.1-4.4,0.9-6.6c-0.2-1.7-0.6-3.5-0.9-5.2c-0.5-3.1-1-6.2-1.5-9.5c-3.1,0.5-6,0.9-8.8,1.4
		c-0.5,0.1-1.3,0.7-1.3,1c0,1.6-0.3,4,0.6,4.7c1.1,0.9,3.3,0.4,5,0.4c0.4,0,0.7-0.4,1.6-0.8c-0.2,1.1-0.1,2.1-0.4,2.1
		c-2.1,0.6-4.3,1.1-6.7,1.7c-0.5,1.3,0.2,2.1,2.1,1.9c1-0.1,2-0.2,3-0.1c0.9,0.1,1.8,0.4,2.7,0.6c0,0.3-0.1,0.6-0.1,0.9
		c-2,0.2-4,0.2-6,0.5c-0.6,0.1-1.7,0.6-1.7,1c-0.2,1.3,0,2.6,0.1,4.1c2.7-0.6,5-2.2,7.9-0.8c-2.2,0.9-4,1.9-5.9,2.3
		c-1.9,0.5-2.1,1.4-2,3.1c0.4,3.7,0.6,7.5,1,11.3c0.1,0.6,0.3,1.2,0.3,1.5c2,0.4,3.8,0.7,5.6,1c0,0.2,0,0.5,0.1,0.7
		c-1.7,0.6-3.4,1.2-5.4,1.9c-0.7,2.1,0,3.9,2.6,3.9c-0.3,7.7-0.5,15.1-0.8,22.9c-0.8-0.3-1.5-0.7-2.3-1c-0.2,1.2-1.6,2.5-0.2,3.9
		c0.1,0.1,0.1,0.3,0,0.4c-1.8,2.2-1.3,4.9-1.4,7.5c-0.2,2.7-0.3,5.4-0.6,8.1c0,0.4-0.5,0.7-0.8,1C245.4,424,244.9,424.4,244.4,424.8
		z M324.1,198.8c0,0.4-0.1,0.8-0.1,1.2c0.6,0.1,1.2,0.3,1.8,0.4c2,0.3,4.1,0.4,6.1,1c4.2,1.1,8.4,2.3,12.6,3.6
		c3.6,1.1,7.3,2,10.7,3.5c2.4,1,4.6,1.5,7.2,1.4c1.5-0.1,3.1,0.4,4.6,0.7c2.5,0.4,4.9,1,7.4,1.3c1.6,0.2,3.3-0.1,5-0.2
		c0-0.2,0-0.4,0-0.6c-2-0.4-4.4-0.3-6.1-1.3c-4.7-2.7-10.1-2.3-15.1-3.9c-2.8-0.9-5.8-0.8-8.6-1.6c-3.6-1.1-7.1-2.8-10.7-4
		c-1-0.4-2.3-0.6-3.4-0.3c-2.4,0.6-4.6,0.4-6.9-0.5C327.3,198.7,325.6,198.9,324.1,198.8z M186,156.6c-0.1,0.2-0.2,0.5-0.3,0.7
		c1.3,1.6,2.5,3.3,3.9,4.9c3.1,3.4,6.2,6.6,9.3,9.9c1.3,1.4,2.3,2.9,3.7,4.2c2.7,2.6,5.4,5.2,8.2,7.7c2.1,1.8,4.3,3.5,6.4,5.2
		c0.1,0.1,0.5,0,1.1-0.1c-0.4-0.5-0.6-0.8-0.9-1c-2.3-2.3-4.9-4.3-6.7-6.8c-1.7-2.4-2.6-5.4-4.9-7.6c-3-2.9-5.7-6.2-8.7-9
		c-2.5-2.3-5.3-4.3-8.1-6.4C188.2,157.5,187.1,157.1,186,156.6z M77.2,94.1c5.7,3.3,10.7,7.8,17.4,9.3c-2.5-2-5.4-3.5-7.9-5.4
		C83.8,95.6,80.8,94.4,77.2,94.1z M379.8,105.4c5.9-0.8,11.5-2.3,16.7-5.2c-2.1-0.7-3.7,0.6-5.5,1.5c-1.8,0.9-4.1,0.5-6.1,1.2
		C383.1,103.4,380.9,103.3,379.8,105.4z M52.2,249.3c2.4,3,8.9,1.6,10.5-2.2c-1.5,0.3-2.6,0.6-3.8,0.9
		C56.3,245.6,54.8,249.2,52.2,249.3z M217.5,157.5c0.8,3.7,1.5,7.3,2.3,10.8c0.3,0,0.7,0,1,0c0.1-0.6,0.4-1.1,0.4-1.6
		c0-1.1-0.3-2.1-0.3-3.2c0-1.3,0.2-2.5,0.2-3.3C219.8,159.2,218.9,158.5,217.5,157.5z M142.6,287.1c-0.2,0-0.3-0.1-0.5-0.1
		c0,6.5,0,13.1,0,19.6c0.2,0,0.3,0,0.5,0C142.6,300.1,142.6,293.6,142.6,287.1z M234.8,109.7c0.3,0.1,0.5,0.2,0.8,0.3
		c4.2-4.1,4.2-4.1,2.4-7.8C237,104.7,235.9,107.2,234.8,109.7z M239.6,127.1c-0.3-0.1-0.5-0.1-0.8-0.2c-0.4,4.9-5.3,8.3-4,13.7
		C236.4,136.1,238,131.6,239.6,127.1z M327.7,134.8c2.9,0.2,8-3.4,8.6-6.4C333.2,130.7,330.5,132.7,327.7,134.8z M67.6,215.7
		c0.2,0.2,0.3,0.5,0.5,0.7c0.8-0.7,1.5-1.5,2.3-2.1c0.7-0.6,1.5-1.3,2.4-1.5c1.5-0.4,2.5-1,3.1-2.7
		C71.6,210.2,69.8,213.2,67.6,215.7z M139.1,297.9c-1.5,4.3-1.4,11.8,0,13.4C139.1,306.8,139.1,302.3,139.1,297.9z M71.3,274.8
		c-0.1-1.7-0.2-3.1-0.4-5.2c-1.2,0.5-2.2,1-3.3,1.5c0.5,0.8,1,1.6,1.7,2.3C69.8,274,70.5,274.2,71.3,274.8z M209.3,188.6
		c0.2-0.2,0.3-0.3,0.5-0.5c-1.7-1.9-3.4-3.8-5.1-5.6c-0.2,0.2-0.4,0.3-0.6,0.5C204.9,185.7,206.5,187.7,209.3,188.6z M235.9,77.9
		c0.2,0,0.4-0.1,0.7-0.1c-0.4-2.2-0.8-4.4-1.2-6.8C233.7,72.4,234.1,75.1,235.9,77.9z M43.7,258c-0.5,3.3,3,2.5,3.9,4.3
		c0-1,0-2,0-2.9C46.3,258.9,45.1,258.5,43.7,258z M161.2,275.7c0.5,0,1-0.1,1.5-0.1c-0.6-2.4-1.1-4.8-1.7-7.2
		c-0.2,0-0.5,0.1-0.7,0.1C160.6,270.9,160.9,273.3,161.2,275.7z M166.4,253.4c-0.2,0-0.4,0-0.6,0c-0.8,2.9-0.5,5.7,0.6,8.5
		C166.4,259.1,166.4,256.3,166.4,253.4z M174.1,246.3c-1.8,2.1-1.4,4.2-0.7,6.3c0.2,0,0.4,0,0.7,0
		C174.1,250.6,174.1,248.4,174.1,246.3z M388.3,212c0-0.1,0-0.2,0-0.3c-1.3,0.2-2.6,0.5-3.9,0.7c0.1,0.3,0.1,0.7,0.2,1
		c2.2-0.4,4.5-0.9,6.7-1.3c-0.1-0.3-0.2-0.7-0.3-1C390.1,211.4,389.2,211.7,388.3,212z M226.5,145.1c-0.3,0.1-0.5,0.2-0.8,0.2
		c0.3,1.6,0.6,3.1,1,4.7c0.3-0.1,0.5-0.1,0.8-0.2C227.3,148.2,228.4,146.3,226.5,145.1z M318.9,263.1c-0.2,0-0.5,0.1-0.7,0.1
		c0,0.9-0.2,1.9,0.1,2.8c0.1,0.2,1.5,0,2.3,0c0.1-0.2,0.1-0.5,0.2-0.7C320.2,264.6,319.5,263.9,318.9,263.1z M230,104.2
		c0.5-1.8,1-3.6,1.4-5.4C228.6,100,230.1,102.2,230,104.2z M225.2,168.7c-1.5-0.2-2.4,2.1-2,5.1
		C223.9,171.9,224.5,170.4,225.2,168.7z M169.1,254.6c0.2,1.8,0.3,3.1,0.5,4.7C171.1,257.6,171.5,256.3,169.1,254.6z M250.4,383.3
		c-0.4,0-0.7,0-1.1,0c0,1.3,0,2.6,0,3.9c0.2,0,0.3,0,0.5,0C250,385.9,250.2,384.6,250.4,383.3z M158.2,279.8c0.3,0,0.6-0.1,0.8-0.1
		c-0.2-1.7-0.4-3.3-0.6-5c-0.3,0-0.5,0.1-0.8,0.1C157.8,276.5,158,278.2,158.2,279.8z M342.5,126.2c-0.2-0.2-0.4-0.5-0.6-0.7
		c-1,0.4-2.7,0.2-2,2.6C340.8,127.5,341.6,126.8,342.5,126.2z"/>
	<path class="st0" d="M221.6,244.9c0.3,0.2,1,0.4,1.6,0.7c-1.7,1.6-9.6,4.4-11.8,4c0.6-1,1.2-1.9,1.8-2.7c-2-1.1-0.3-1.5,0.3-2.1
		c1.3-3,2.6-5.9,3.9-9c-0.5-1-1.4-2.2-1.7-3.4c-0.1-0.7,0.9-2.1,1.6-2.2c2.7-0.6,5.6-0.8,8.4-1.2c0.2,0.4,0.3,0.8,0.5,1.2
		c-1.1,0.9-2.2,1.7-3.4,2.6c1,0.7,3.4-0.8,2.9,1.8c-0.2,1.3-0.9,2.5-1.5,3.9c0.3,0.2,0.7,0.5,1.2,0.8c-0.7,2.9-5.1,0-5.5,3.7
		c0.7-0.2,1.3-0.4,2.3-0.7C222,243.1,221.8,243.9,221.6,244.9z"/>
	<path class="st0" d="M212.7,260.5c1.2,0,2.3,0,3.5,0c1.1,0,2.2,0.2,3.7,0.3c-1.3,1.4-2.2,2.4-3.1,3.5c-1.8,0-3.9,0.1-5.9-0.1
		c-0.6,0-1.3-0.7-1.6-1.2c-1.3-2.3-0.5-4.3,1.9-5.2c0.7-0.3,1.4-0.6,2.1-1.2c-1.4,0.2-2.9,0.3-4.3,0.5c-0.1-0.1-0.2-0.3-0.4-0.4
		c1.3-1.4,2.3-3.1,3.9-4.1c2.2-1.5,7.3-1.8,8.4-1.1c-0.4,1.5-0.7,2.9-1.1,4.4c0.1,0,0.2,0,0.2-0.1c0.1,0.9,0.5,1.9,0.2,2.6
		c-0.6,1.2-1.5,0.2-2.4,0c-1.6-0.3-3.5,0.6-5.2,1.1C212.6,259.8,212.6,260.2,212.7,260.5z"/>
	<path class="st0" d="M204.6,237.5c0.7-1.7,1-4.3,2.3-5c2.7-1.5,3.4-4.4,5.4-6.3c0.2-0.2,0.3-0.4,0.4-0.5c3.1-3.7,5.7-4.1,9.8-1.6
		c0.9,0.5,1.6,1.2,2.5,1.8c-1,0.5-1.9,1-2.9,1.4c-1.8,0.7-3.6,1.2-5.4,1.8c-0.2,0.1-0.6-0.1-0.9-0.2c0.7-1.4,1.4-2.8,2.1-4.1
		c-0.3-0.2-0.6-0.3-0.9-0.5c-0.6,1.3-1.4,2.5-1.8,3.8c-0.4,1.4-0.7,2.7-2.5,3.1c-0.4,0.1-0.8,1.1-1,1.8c-0.2,0.7-0.1,1.5-0.2,2.3
		c-0.8-0.3-1.7-0.6-3-1.2c-0.1,1.4-0.5,3.1-0.4,4.7c0.1,1.7-0.4,2.4-2,2.4C205.6,239.8,205.1,238.7,204.6,237.5L204.6,237.5z"/>
	<path class="st0" d="M232.2,318.5c0.4,2.4,0.8,4.8,1,7.2c0.2,2.9,0.1,5.9,0.3,8.8c0,0.8,0.5,1.5,0.8,2.3c0.2,0.7,0.6,1.4,0.6,2.2
		c0.3,6.5,0.6,13,0.6,19.5c0.1,4.2-0.2,8.4-0.4,12.6c0,0.6-0.4,1.2-0.7,1.8c-0.2,0-0.4,0-0.6-0.1c-0.1-0.8-0.3-1.7-0.3-2.5
		c-0.4-5.3-0.2-10.4,0.4-15.7c0.5-4.2-0.6-8.5-0.8-12.8c-0.1-1.3,0.3-2.7,0.4-4c-0.3,0.1-0.6,0.1-0.8,0.2c-0.3-0.7-1-1.5-1-2.2
		c-0.1-4.6-0.1-9.2-0.1-13.8c0-1.1-0.2-2.3-0.3-3.4C231.7,318.6,232,318.6,232.2,318.5z"/>
	<path class="st0" d="M212.3,274.2c-2.2-0.5-4.3-0.9-6.7-1.5c1-1.5,1.8-3.7,2.5-3.6c1.8,0.1,3.6,1,5.2,2c0.7,0.5,1.3,2.1,1,2.9
		c-0.5,1.3-1.5,3-2.6,3.3c-2.2,0.6-4.7,0.5-6.7-1c-0.2-0.2-0.5-0.7-0.4-0.9c0.1-0.2,0.6-0.5,0.9-0.5c1.5,0,3,0.2,4.5,0.2
		c0.8,0,1.6-0.1,2.4-0.2C212.3,274.7,212.3,274.4,212.3,274.2z"/>
	<path class="st0" d="M168.3,287.8c-0.2-5.2-0.2-5.2,1.5-5.9c0.3,1.8,0.8,3.6,0.8,5.3c0,1.4-0.6,2.6-2.4,2.7c-0.7,0-1.5,0.9-1.9,1.6
		c-1.1,2-1.8,4.1-2.9,6.1c-1,1.8-2.4,1.1-3.9,0c1.1-1.3,2.2-2.6,3.3-3.9c0.5-0.6,1-1.2,1.1-1.9C164.5,288.2,164.5,288.2,168.3,287.8
		z"/>
	<path class="st0" d="M204.5,237.5c0.4,2.1,0.7,4.1,1,6.2c0,0.3-0.3,0.7-0.5,1c-0.3-0.3-0.8-0.5-0.9-0.8c-0.3-1.1-0.4-2.3-1.1-3.4
		c0,1.5,0.1,3,0,4.5c-0.1,0.8-0.5,1.6-0.7,2.3c-0.5-0.6-1.1-1.2-1.5-1.9c-0.3-0.6-0.4-1.3-0.7-2.5c-0.6,2.3-1,4-1.5,5.8
		c-2.4-0.3-3-1.3-1.9-3.3c0.4-0.7,0.6-1.6,0.8-2.3c0.6-1.8,0.6-1.8,2-1.5C201.5,240.1,203,238.8,204.5,237.5L204.5,237.5z"/>
	<path class="st0" d="M227.5,292.5c5.8,7.3,6.8,15.7,5.8,24.7c-0.3-0.8-0.6-1.6-0.7-2.5c-0.5-3.8-0.9-7.5-1.3-11.3
		c0-0.2,0-0.4-0.1-0.4c-2.6-1.5-1.6-4.9-3.7-6.8C226.2,295.1,226.2,293.7,227.5,292.5z"/>
	<path class="st0" d="M195.8,244.9c-0.9,2.8-1.5,4.8-2.2,6.9c-0.3-0.1-0.5-0.1-0.8-0.2c-0.1-0.8-0.3-1.7-0.4-2.5c-0.1,0-0.2,0-0.4,0
		c-0.2,0.8-0.4,1.6-0.7,2.6c-0.8,0-1.5-0.1-2.4-0.1c0,0.4,0,0.7,0,1c-0.1,0.7-0.1,1.8-0.4,1.9c-1.3,0.5-1.4-0.5-1.5-1.5
		c-0.2-2.2,2.2-5.9,4.4-6.6c0.6-0.2,1.2-0.6,1.8-0.8C194.1,245.3,195,245.1,195.8,244.9z"/>
	<path class="st0" d="M384,226.2c-1.6-0.5-3.6-1.1-5.4-1.9c-0.4-0.2-0.9-1.5-0.6-1.9c0.3-0.5,1.5-1,1.9-0.7c1.2,0.7,1.8,0.2,2.9-0.2
		c1.6-0.5,3.7,0,5.5,0.2c0.2,0,0.5,1.2,0.3,1.3C387.3,224.1,385.8,225,384,226.2z"/>
	<path class="st0" d="M227,212.4c0.6-0.2,1.2-0.4,2.1-0.6c-0.7,4.6-1.8,8.4-6.4,10c-0.7,0.2-1.5,0.3-2.2,0.2c-0.2,0-0.5-1.1-0.3-1.3
		c1.1-1.1,2.5-2,3.5-3.3C225,215.9,226,214.1,227,212.4L227,212.4z"/>
	<path class="st0" d="M185.6,253.1c0.1,0.9,0.1,1.7,0.3,2.5c0.6,3,0.6,3.1-2.6,3c-0.1,0.8-0.1,1.7-0.4,2.4c-0.2,0.4-1,0.6-1.5,0.9
		c-0.2-0.5-0.6-1.1-0.5-1.4c0.6-1.2,1.4-2.3,2.1-3.4c0.3-0.5,0.2-1.1,0.3-1.6C183.5,254.2,183.6,252.8,185.6,253.1z"/>
	<path class="st0" d="M240.9,412.7c-2.1,0.9-3.8-0.4-3.8-2.5c0-1.2-0.5-2.5-0.5-3.8c0-0.8,0.5-1.7,0.9-2.5c0.1-0.2,1.1-0.1,1.2,0
		c0.2,0.6,0.2,1.3,0.4,2c0.3,1.6,0.5,3.1,0.9,4.7C240.1,411.4,240.5,412,240.9,412.7z"/>
	<path class="st0" d="M180.1,262.3c0.1,0.6,0.3,1.4,0.1,1.9c-1,2.3-2.2,4.6-3.4,6.9c-1.4-0.5-1.9-1.5-1.2-2.8
		c1.2-2.1,2.4-4.2,3.6-6.2C179.5,262.2,179.8,262.2,180.1,262.3z"/>
	<path class="st0" d="M312.6,220.7c1.3-0.7,2.1-2.4,4.2-1.7c0.9,0.3,2.2-0.8,3.4-1.4c0.3,3.7,0.2,3.8-3.3,3.2
		c-0.5-0.1-1.1,0.3-1.7,0.4c-0.8,0.1-1.7,0.1-2.5,0.2C312.7,221.2,312.6,221,312.6,220.7z"/>
	<path class="st0" d="M229.8,198.4c1.7-0.8,3.2-1.9,5-2.4c1-0.3,2.3,0.4,3.3,0.8c0.2,0.1,0.3,1.3,0.1,1.4c-0.6,0.3-1.6,0.8-2,0.5
		c-1.6-1.2-2.6-0.5-3.9,0.6c-0.5,0.4-1.7,0-2.6,0C229.8,199,229.8,198.7,229.8,198.4z"/>
	<path class="st0" d="M189,286.8c-0.5-2,0-2.7,1.6-2.2c0.4,0.1,1,0.4,1,0.7c0,0.4-0.2,0.9-0.5,1.3c-0.8,1.1-1.6,2.1-2.5,3.1
		c-0.4,0.5-1,0.8-1.6,1c-0.2,0.1-0.9-0.5-0.9-0.8c0-0.6,0.2-1.4,0.6-1.7C187.4,287.5,188.3,287.2,189,286.8z"/>
	<path class="st0" d="M232.3,203.6c-1.2,1-1.9,1.9-2.8,2.2c-0.4,0.1-1.8-1.5-1.7-1.7c0.6-1.1,0.3-3.2,2.3-2.9
		C230.8,201.2,231.3,202.4,232.3,203.6z"/>
	<path class="st0" d="M235.7,389.2c0-2.1,0-3.7,0-5.7c0.9,0.3,2.4,0.5,2.5,1c0.3,1.3,0.3,2.8-0.1,4.1C238,389,236.5,389,235.7,389.2
		z"/>
	<path class="st0" d="M319.9,247.1c1.3,2.1,2.4,3.8,3.9,6c-1.2-0.2-2.5-0.1-3.1-0.6C319.2,251.2,319.1,249.4,319.9,247.1z"/>
	<path class="st0" d="M153,309.6c-0.9-1.5-2.2-2.8-1-4.4c0.3-0.3,2.2-0.1,2.5,0.4C155.5,307.1,154.7,308.4,153,309.6z"/>
	<path class="st0" d="M330.7,255.7c-0.7,0-1.9,0.3-2.7-0.1c-0.8-0.4-1.3-1.6-1.8-2.5c-0.1-0.2,0.3-0.9,0.6-1c0.3-0.1,1,0,1.2,0.2
		C328.9,253.3,329.6,254.4,330.7,255.7z"/>
	<path class="st0" d="M345.1,249.2c-2.6,1.6-6.9,0-7.4-2.6C340.1,247.4,342.6,248.3,345.1,249.2z"/>
	<path class="st0" d="M284.3,222.2c1.2-1.1,2.3-2.3,3.6-3.3c0.2-0.2,1.1,0.5,1.7,0.8c-0.7,1-1.3,2.2-2.3,2.9
		c-0.6,0.5-1.8,0.3-2.7,0.3C284.5,222.7,284.4,222.4,284.3,222.2z"/>
	<path class="st0" d="M384.7,249.3c-2.7-1-1.1-3.1-1.5-4.9C386.1,245.7,386.4,246.5,384.7,249.3z"/>
	<path class="st0" d="M171.5,303c-0.2,1.2-0.3,2.4-0.7,3.6c-0.1,0.3-1.7,0.4-1.7,0.3c-0.3-0.8-0.7-1.9-0.4-2.5
		c0.4-0.7,1.4-1.1,2.2-1.6C171.1,302.8,171.3,302.9,171.5,303z"/>
	<path class="st0" d="M329.6,219.4c-1.3,0.2-2.7,0.5-4,0.6c-0.3,0-0.9-0.5-1-0.9c-0.1-0.4,0.1-1,0.3-1.4c0.2-0.2,0.8,0,1.2,0
		c1.2,0.3,2.3,0.6,3.5,0.8C329.6,218.9,329.6,219.1,329.6,219.4z"/>
	<path class="st0" d="M174.5,275.4c-1-0.4-2.1-0.8-3.2-1.2c0.2-0.9,0.4-1.9,0.6-2.9c0.3-0.1,0.5-0.2,0.8-0.3c0.8,1.3,1.6,2.7,2.5,4
		C174.9,275.2,174.7,275.3,174.5,275.4z"/>
	<path class="st0" d="M302.2,218.2c0.8,1.5,2.4,2.8,0.3,3.7c-0.7,0.3-1.7-0.6-2.6-0.9C300.7,220.1,301.5,219.1,302.2,218.2z"/>
	<path class="st0" d="M381.1,238.6c-0.5-0.9-0.9-1.5-1.6-2.6c1.7,0,2.9,0,4.2,0.1c0.2,0,0.4,1.1,0.3,1.1
		C383.1,237.7,382.1,238.1,381.1,238.6z"/>
	<path class="st0" d="M394.8,221.1c-0.2,1.7-0.6,3.1-2.5,3c-0.5,0-1.5-0.8-1.5-1C391.4,221.1,393.1,221.3,394.8,221.1z"/>
	<path class="st0" d="M413,220.5c-0.1-0.8-0.2-1.6-0.4-2.5c0.9,0,1.7-0.2,2.2,0.1c0.6,0.4,1,1.2,1.5,1.8c-0.7,0.3-1.3,0.7-2,0.9
		C414,220.8,413.5,220.6,413,220.5L413,220.5z"/>
	<path class="st0" d="M142,318.7c1.1-0.8,1.7-1.5,2.1-1.4c0.7,0.2,1.3,0.9,1.9,1.4c-0.5,0.6-0.9,1.7-1.4,1.7
		C143.9,320.3,143.2,319.5,142,318.7z"/>
	<path class="st0" d="M235.8,396.7c-0.2-2.8,0-3,2.8-2.5C238.5,397.3,238.4,397.4,235.8,396.7z"/>
	<path class="st0" d="M225.9,284c0.8,1,1.6,1.8,1.5,2c-0.3,0.6-1.1,1.4-1.7,1.4c-0.5,0-1.1-0.9-1.7-1.4
		C224.4,285.5,225,285,225.9,284z"/>
	<path class="st0" d="M348.3,246.5c1,1.6,1.7,2.5,2.3,3.5c0.1,0.3-0.3,0.8-0.5,1.2c-0.8-0.4-2.1-0.7-2.3-1.3
		C347.5,249.1,348,248,348.3,246.5z"/>
	<path class="st0" d="M336.6,254c1.2,0.4,2.5,0.8,3.8,1.2c-0.6,1.4-1.7,1.8-2.9,1.2c-0.6-0.3-1-1.2-1.5-1.8
		C336.1,254.4,336.4,254.2,336.6,254z"/>
	<path class="st0" d="M344.3,221.8c-1.3-0.1-2.8,0-2.4-1.8c0.1-0.6,1.1-1.6,1.4-1.5C344.9,219,344.9,220.2,344.3,221.8z"/>
	<path class="st0" d="M358.7,251.4c-0.8-0.4-2-0.6-2.3-1.2c-0.4-0.9-0.1-2.2-0.1-3.3c0.2,0,0.5,0,0.7-0.1c0.7,1.3,1.4,2.6,2.1,3.9
		C359,250.9,358.9,251.1,358.7,251.4z"/>
	<path class="st0" d="M337.5,219c-0.2,0.9-0.2,2-0.4,2.1c-1.1,0.3-2.3,0.4-3.4,0.5c0.2-0.5,0.2-1.2,0.6-1.4
		C335,219.8,336,219.6,337.5,219z"/>
	<path class="st0" d="M352.1,217.2c0.8,0.9,1.4,1.4,1.9,2c-0.6,0.4-1.3,1.2-1.9,1.1c-0.6-0.1-1.1-1-1.6-1.5
		C350.9,218.3,351.4,217.9,352.1,217.2z"/>
	<path class="st0" d="M363.1,220.8c-1.5,0.5-2.8,0.7-3.2-1.1c-0.1-0.5,0.7-1.6,1.1-1.7C362.8,217.9,362.9,219.4,363.1,220.8z"/>
	<path class="st0" d="M320.7,239.9c1.2-0.3,2.5-0.5,3.7-0.8c0.9,2-0.8,2.2-1.7,2.4c-0.7,0.1-1.6-0.6-2.3-0.9
		C320.4,240.4,320.5,240.1,320.7,239.9z"/>
	<path class="st0" d="M137.1,339.8c0.9,0.9,1.6,1.5,2.2,2.1c-0.5,0.5-0.9,1-1.4,1.4c-0.6-0.6-1.4-1.3-1.9-2
		C136,341.2,136.6,340.6,137.1,339.8z"/>
	<path class="st0" d="M413,220.5c-0.4,0.1-0.7,0.2-1.1,0.2c-1,0.1-2.1,0.5-2.8,0.1c-0.5-0.3-0.5-1.6-0.7-2.5
		c0.2-0.1,0.4-0.2,0.6-0.3C410.3,218.9,411.7,219.7,413,220.5C413,220.5,413,220.5,413,220.5z"/>
	<path class="st0" d="M388.9,236.9c-0.7,0.6-1.4,1.5-2.2,1.8c-0.5,0.2-1.3-0.5-1.9-0.8c0-0.3,0-0.5,0.1-0.8c1.2-0.4,2.4-0.8,3.5-1.2
		C388.6,236.3,388.7,236.6,388.9,236.9z"/>
	<path class="st0" d="M397.1,239.7c0.6-2.5,1.6-2.9,2.9-2.3c0.4,0.2,0.5,1,0.8,1.5C399.7,239.2,398.6,239.4,397.1,239.7z"/>
	<path class="st0" d="M141,326.1c-1.6-1.6-1.9-2.6-0.7-3.5c0.5-0.3,1.4-0.1,2.1-0.1C142,323.6,141.6,324.7,141,326.1z"/>
	<path class="st0" d="M392.3,234.8c1.3,0.8,2.3,1.5,3.4,2.2c-0.6,0.3-1.1,0.7-1.7,0.8C392.6,237.8,391.5,237.3,392.3,234.8z"/>
	<path class="st0" d="M304.3,220.6c1.7-0.1,2.9-0.2,4.1-0.3c-0.1,0.5-0.1,1.3-0.5,1.5C306.8,222.6,305.6,222.8,304.3,220.6z"/>
	<path class="st0" d="M213.5,284.6c0.9-1.4,1.4-2.3,1.9-3.1c0.4,0.3,0.9,0.6,1.3,0.9c-0.2,1-0.3,2-0.5,3
		C215.4,285.1,214.6,284.9,213.5,284.6z"/>
	<path class="st0" d="M229.3,280.4c-0.6-0.5-1.8-1-1.8-1.4c0.1-0.9,0.8-1.7,1.3-2.5c0.3,0.1,0.5,0.2,0.8,0.3
		c0.1,1.1,0.2,2.1,0.2,3.2C229.6,280.1,229.4,280.2,229.3,280.4z"/>
	<path class="st0" d="M366.6,249.5c0.6,0.5,1.3,0.9,1.9,1.4c0,0.3,0,0.5,0,0.8c-1,0.2-2,0.3-2.9,0.5c0.1-0.8,0.2-1.7,0.2-2.5
		C366.1,249.6,366.4,249.6,366.6,249.5z"/>
	<path class="st0" d="M309.6,229c0.6,0.9,1.2,1.5,1.1,1.8c-0.4,0.8-1,1.5-1.5,2.2c-0.3-0.4-0.9-0.9-0.8-1.3
		C308.5,231,309,230.3,309.6,229z"/>
	<path class="st0" d="M205.6,279.2c1.3-0.2,2.7-0.4,4.3-0.6c-1,2.4-1.9,2.5-4.2,1.3C205.7,279.7,205.6,279.4,205.6,279.2z"/>
	<path class="st0" d="M400,221c1.1,0.3,2.1,0.6,3.2,0.9c-0.2,0.5-0.3,1.2-0.6,1.3c-1.5,0.7-2.3-0.3-2.9-1.4
		C399.8,221.6,399.9,221.3,400,221z"/>
	<path class="st0" d="M212,267.7c-1.6-0.3-2.5-0.5-3.4-0.7c-0.1-0.2-0.1-0.4-0.2-0.6c1.1-0.4,2.2-0.8,3.4-1.2
		C211.8,266,211.9,266.7,212,267.7z"/>
	<path class="st0" d="M139.2,338.7c1.4-0.2,2.9-0.5,4.3-0.7c0.1,0.3,0.1,0.5,0.2,0.8c-1.3,0.7-2.6,2-4.3,0.9
		C139.3,339.3,139.3,339,139.2,338.7z"/>
	<path class="st0" d="M229.7,263c-0.2,1-0.4,1.9-0.6,2.9c-0.2,0.1-0.5,0.1-0.7,0.2c-0.3-0.7-0.9-1.5-0.8-2.2c0.1-0.5,1-0.9,1.6-1.4
		C229.3,262.7,229.5,262.8,229.7,263z"/>
	<path class="st0" d="M229.5,270.5c-0.7,0.7-1.2,1.2-1.6,1.7c-0.4-0.6-1-1.1-1.2-1.7c-0.1-0.3,0.7-1.1,1.1-1.1
		C228.3,269.3,228.8,269.9,229.5,270.5z"/>
	<path class="st0" d="M267.1,217.1c-1-0.2-1.9-0.3-2.9-0.5c0.2-0.6,0.4-1.1,0.6-1.7c0.9,0.4,1.7,0.7,2.6,1.1
		C267.3,216.3,267.2,216.7,267.1,217.1z"/>
	<path class="st0" d="M291.6,217.2c0.8,0.2,1.5,0.4,2.3,0.5c-0.2,0.6-0.5,1.2-0.7,1.8c-0.7-0.4-1.4-0.8-2.1-1.2
		C291.3,217.9,291.4,217.6,291.6,217.2z"/>
	<path class="st0" d="M418.4,216.8c0.7,0.4,1.6,0.6,2,1.1c0.2,0.2-0.3,1.1-0.5,1.7c-0.7-0.6-1.5-1.3-2.2-1.9
		C418,217.4,418.2,217.1,418.4,216.8z"/>
	<path class="st0" d="M229.7,289.7c0.5,0.5,1.3,1,1.4,1.5c0.1,0.6-0.6,1.2-1,1.8c-0.2-0.1-0.5-0.1-0.7-0.2c-0.1-1-0.2-1.9-0.3-2.9
		C229.3,289.9,229.5,289.8,229.7,289.7z"/>
	<path class="st0" d="M137.3,327.4c0.9,0,1.9,0,2.8,0c-0.1,0.7-0.1,1.4-0.2,2.4c-1.2-0.7-1.9-1.1-2.7-1.6
		C137.3,327.9,137.3,327.6,137.3,327.4z"/>
	<path class="st0" d="M126.1,347.4c-0.8-0.2-1.6-0.4-2.2-0.8c-0.1-0.1,0.2-1,0.3-1.5c0.8,0.3,1.6,0.7,2.4,1
		C126.4,346.5,126.2,346.9,126.1,347.4z"/>
	<path class="st0" d="M284.4,218.8c0.1-1.3-0.1-2.2,0.2-2.3c0.8-0.4,1.8-0.5,2.7-0.7c0.1,0.3,0.2,0.5,0.3,0.8
		C286.8,217.1,285.9,217.7,284.4,218.8z"/>
	<path class="st0" d="M241.4,202.5c-0.1-0.6-0.2-1.1-0.4-2.2c1,0.2,1.8,0.2,2.5,0.6c0.2,0.1,0.2,0.9,0.2,1.4
		C242.9,202.4,242.1,202.5,241.4,202.5L241.4,202.5z"/>
	<path class="st0" d="M147.7,312c1.3,0.5,1.9,0.8,2.5,1c0.1,0.2,0.1,0.4,0.2,0.5c-0.9,0.3-1.8,0.6-2.7,0.9
		C147.7,313.7,147.7,313,147.7,312z"/>
	<path class="st0" d="M230.7,235.5c-0.6,0.4-1.2,0.8-2.5,1.7c0-1.2-0.1-2.4,0-2.5c0.8-0.2,1.6-0.1,2.5-0.1
		C230.7,234.9,230.7,235.2,230.7,235.5z"/>
	<path class="st0" d="M241.3,202.5c0.1,0.1,0.3,0.1,0.4,0.2c0.6,0.5,2.4,0.3,1.4,1.8c-0.3,0.5-1.7,0.2-3.1,0.4
		C240.8,203.7,241.1,203.1,241.3,202.5C241.4,202.5,241.3,202.5,241.3,202.5z"/>
	<path class="st0" d="M239.8,198.2c1.3,0.1,2.7,0.3,4,0.4c0,0.2,0,0.4,0,0.6c-1.3,0-2.7,0-4,0C239.8,198.8,239.8,198.5,239.8,198.2z
		"/>
	<path class="st0" d="M182.5,232.3c-1.1,1.3-1.6,2.4-2.5,3c-0.8,0.5-2,0.2-3,0.3c-0.7,0.1-1.6,0.1-1.9,0.6c-2.2,2.6-5.3,2.3-8.2,2.4
		c-0.5,0.9-0.8,1.9-1.5,2.5c-0.6,0.4-1.6,0.2-2.5,0.2c0-0.7-0.1-1.5-0.1-2.2c0-0.5,0.1-1,0.3-1.5c0.1-0.5,0.2-1.3,0.5-1.4
		c1.9-0.7,4.3-2.1,5.8-1.5c1.8,0.7,2.5-0.3,3.6-0.6c1.5-0.4,2.9-0.9,4.3-1.4c0.5-0.2,1-0.5,1.5-0.8c1.7-1,3.3-2.2,5.1-3.1
		c0.5-0.2,1.5,0.6,2.3,0.9c-0.6,0.8-1,1.8-1.8,2.4C183.8,232.4,182.8,232.3,182.5,232.3z"/>
	<path class="st0" d="M145.1,260.6c-1.5,0-3.6,0.3-3.8-0.1c-0.7-1.9,1.2-2.2,2.4-2.8c3.5-1.6,3.5-1.7,2.5-5c4,0.6,5.3-2.4,7.1-5
		c1.5-2.2,3.5-4.1,5.5-5.9c0.4-0.4,1.6,0,2.5,0.1c-0.4,0.6-0.7,1.3-1.2,1.8c-3.1,2.8-5.7,6.1-7.5,10c-0.6,1.4-2.3,2.2-3.3,3.5
		c-0.7,0.9-1.3,2-1.7,3.1c-0.2,0.6,0.1,1.5-0.2,2.1c-0.1,0.3-1.5,0.5-1.6,0.3C145.4,262.1,145.3,261.3,145.1,260.6
		C145,260.4,145,260.3,145.1,260.6z"/>
	<path class="st0" d="M113.2,226.1c-2.2,2.2-4.1,5.6-6.7,6.2c-3.1,0.8-5.7,3.8-9.7,3c5.6-3.5,10.7-6.6,15.8-9.8
		C112.8,225.7,113,225.9,113.2,226.1z"/>
	<path class="st0" d="M158.2,238.3c-0.6,1.7-1.8,2.1-3.4,1.9c-1-0.2-2.1-0.2-3.1-0.3c-1.9-0.2-3.7-0.3-5.6-0.6
		c-0.2,0-0.6-0.5-0.6-0.8c0-0.3,0.3-0.7,0.6-0.9c0.4-0.2,0.9-0.3,1.3-0.3c3.3,0.1,6.7,0.3,10,0.5
		C157.6,237.9,157.8,238.2,158.2,238.3z"/>
	<path class="st0" d="M144.4,252.8c-1.5,3.7-8.5,5.8-10.3,3.7C137.4,255.3,140.6,254.2,144.4,252.8z"/>
	<path class="st0" d="M77.4,264.5c3.6,1.5,7.4-1.2,10.1,1.7c-1.7,0.3-3.7,0.7-5.6,1C80.1,267.6,78.3,266.6,77.4,264.5z"/>
	<path class="st0" d="M155.7,218.1c1.1-0.4,2.1-1,3.2-1.2c1.2-0.3,2.5-0.4,3.8-0.2c0.8,0.1,1.6,0.7,2.2,1.2c0.2,0.2-0.2,0.9-0.3,1.4
		c-0.7-0.2-1.3-0.4-2-0.5c-1.5-0.1-2.9-0.3-4.4-0.3c-0.7,0-1.5,0.3-2.2,0.5C155.9,218.7,155.8,218.4,155.7,218.1z"/>
	<path class="st0" d="M136.5,245.5c-1.9,1.7-7.2-0.8-7.8-3.2C132.3,241,133.5,244.8,136.5,245.5z"/>
	<path class="st0" d="M145.1,264.2c-1.2,1.9-2.2,3.8-3.5,5.6c-0.3,0.3-1.4,0-2.3,0c1-2.1,1.7-3.9,2.8-5.4c0.4-0.6,1.7-0.5,2.6-0.8
		C144.8,263.9,145,264.1,145.1,264.2z"/>
	<path class="st0" d="M128.6,223.2c-0.3,0.4-0.6,1.1-1,1.1c-0.6,0.1-1.3-0.2-2-0.4c0.3-0.4,0.5-1.1,1-1.2c2-0.7,4-1.3,6.6-2.1
		C131.7,223.7,130.5,224.3,128.6,223.2z"/>
	<path class="st0" d="M123.3,260.1c0.4-2,3.9-2,6.2-0.1C127.3,263.2,125.3,259,123.3,260.1z"/>
	<path class="st0" d="M150.7,241c-0.8,2.8-3.2,3.1-5.4,0.9C147.2,241.6,148.8,241.3,150.7,241z"/>
	<path class="st0" d="M121.3,227.5c-0.8-0.8-1.3-1.3-1.8-1.8c0.6-0.5,1.2-1.3,1.8-1.3c0.7,0,1.3,0.7,2,1.1
		C122.8,226,122.2,226.6,121.3,227.5z"/>
	<path class="st0" d="M169.3,220.1c1-0.8,2.1-1.6,3.2-2.3c0.2-0.1,0.9,0.5,1.4,0.7c-0.3,0.5-0.4,1.2-0.8,1.3c-1,0.5-2.2,0.7-3.3,1
		C169.6,220.7,169.4,220.4,169.3,220.1z"/>
	<path class="st0" d="M142.7,243.9c-0.9,0.1-2,0.5-2.8,0.2c-0.5-0.2-0.7-1.4-1-2.1c0.1-0.1,0.3-0.3,0.4-0.4c1.2,0.4,2.4,0.8,3.6,1.2
		C142.8,243.1,142.7,243.5,142.7,243.9z"/>
	<path class="st0" d="M186.4,226.1c0.9-0.7,1.6-1.5,1.8-1.4c0.8,0.4,1.4,1.1,2,1.7c-0.7,0.5-1.3,1.2-2,1.4
		C187.9,227.9,187.3,226.9,186.4,226.1z"/>
	<path class="st0" d="M79.9,273.8c-0.7,0.2-1.4,0.7-1.9,0.5c-1.6-0.5-2.7-1.6-2.6-4.1C77,271.5,78.3,272.5,79.9,273.8z"/>
	<path class="st0" d="M89,233.9c-0.2,2.2-1.6,2.8-2.8,3.5c-0.2,0.1-0.9-0.3-1-0.6c-0.1-0.3,0.1-1,0.4-1.1
		C86.6,235.1,87.6,234.6,89,233.9z"/>
	<path class="st0" d="M184.1,215c-1.3,2.2-2.8,2.2-4.3,2.2c-0.2,0-0.7-0.4-0.7-0.7c0-0.3,0.3-0.8,0.5-0.8
		C180.8,215.4,182.2,215.3,184.1,215z"/>
	<path class="st0" d="M85,272.5c-0.6-0.1-1.5,0-1.7-0.4c-0.5-0.9-0.8-2-1.2-3c0.2-0.1,0.5-0.2,0.7-0.3c0.8,1,1.6,2,2.4,3
		C85.2,272.1,85.1,272.3,85,272.5z"/>
	<path class="st0" d="M115,226.7c0.5-1,0.7-1.6,1.2-2.6c0.8,0.6,1.5,1.1,1.9,1.7c0.1,0.2-0.3,1.2-0.5,1.2
		C116.9,227,116.1,226.8,115,226.7z"/>
	<path class="st0" d="M76.1,238.6c1.5,0.1,2.9,0.2,4.4,0.3C78.9,241,77.2,240.9,76.1,238.6z"/>
	<path class="st0" d="M95.7,233.7c-1.4,0.4-2.9,0.8-4.3,1.2c-0.1-0.4-0.2-0.7-0.3-1.1c1.4-0.4,2.9-0.9,4.3-1.3
		C95.6,232.9,95.7,233.3,95.7,233.7z"/>
	<path class="st0" d="M82.4,235.1c0.7,1,1.5,1.6,1.4,1.9c-0.2,0.6-0.9,1-1.4,1.6c-0.3-0.4-1-0.8-1-1.2
		C81.4,236.9,81.9,236.3,82.4,235.1z"/>
	<path class="st0" d="M151,220.7c-0.2-0.5-0.7-1-0.6-1.4c0.1-0.4,0.8-0.9,1.2-0.9c0.4,0,1.1,0.7,1.1,1c0,0.6-0.5,1.2-0.8,1.8
		C151.6,221.1,151.3,220.9,151,220.7z"/>
	<path class="st0" d="M184.8,194.9c1.1,0.1,2.2,0.2,3.3,0.3c0.1-0.2,0.1-0.5,0.2-0.7c-3-1-6.2-1.8-9.1-3.2c-3-1.4-5.6-3.5-8.4-5.2
		c0.1-0.3,0.3-0.5,0.4-0.8c1.8,0.8,3.8,1.4,5.4,2.6c3.5,2.6,7.6,4,11.7,4.6c2.9,0.4,4.8,2,7,3.2c1.2,0.7,2.3,1.4,3.5,2.1
		c-0.9,2-2.7,1.2-3.9,1c-3.2-0.5-6.4-1.3-9.9-2C185.1,196.3,185,195.6,184.8,194.9L184.8,194.9z"/>
	<path class="st0" d="M135.3,131.5c2.2-0.1,3.7,0.2,5.2,1.6c1.2,1.1,3.4,0.9,5.1,1.4c0.5,0.2,1,0.7,1.4,1.1c0.1,0.1-0.4,0.9-0.7,1
		c-0.7,0.1-1.4,0-2.1-0.2c-0.7-0.2-1.2-0.6-1.9-0.8c-1-0.3-2.1-0.4-3.1-0.8c-1.5-0.5-2.7-2.3-4.7-1.1c-0.2,0.1-1-0.8-1.5-1.2
		c0.5-0.3,1.1-0.7,1.6-1C135,131.3,135.3,131.5,135.3,131.5z"/>
	<path class="st0" d="M199.3,196.4c-2.7,0-6.5-3.3-6.3-5.3C196.9,191.9,198.8,193.5,199.3,196.4z"/>
	<path class="st0" d="M121.3,143.6c-0.9,1.2-1.8,2.5-2.8,3.6c-0.1,0.2-0.8,0.1-1,0c-0.3-0.3-0.6-1-0.4-1.1c1.1-1.1,2.4-2.1,3.6-3.1
		C120.9,143.1,121.1,143.4,121.3,143.6z"/>
	<path class="st0" d="M105.7,134.4c-0.3-0.7-1.1-1.6-0.9-2.1c0.5-1.1,1.5-2,2.3-3c0.3,0.2,0.5,0.4,0.8,0.5c-0.5,1.5-1,2.9-1.5,4.4
		C106.2,134.3,105.9,134.3,105.7,134.4z"/>
	<path class="st0" d="M92.1,108.8c-0.4,1.2-0.7,2.1-1.1,3.1c-0.6-0.4-1.7-0.7-1.8-1.2C88.9,109.2,89.8,108.5,92.1,108.8z"/>
	<path class="st0" d="M175.8,154.6c-1,1.9-2.2,3.2-4.6,1.6C172.1,153.5,174.3,154.9,175.8,154.6L175.8,154.6z"/>
	<path class="st0" d="M112.5,131.4c-0.7,1.1-1.3,2.2-2,3.3c-0.3-0.1-0.6-0.1-0.9-0.2c0-0.9-0.4-2,0-2.8c0.3-0.6,1.5-0.8,2.2-1.2
		C112,130.8,112.2,131.1,112.5,131.4z"/>
	<path class="st0" d="M117.1,133.2c-0.9,3-2.2,3.2-4.6,1C114.2,133.9,115.4,133.6,117.1,133.2z"/>
	<path class="st0" d="M111.3,142.8c-0.7-0.8-1.4-1.3-1.3-1.4c0.5-0.8,1.1-1.6,1.7-2.4c0.4,0.3,1.1,0.7,1.1,0.9
		C112.4,140.7,111.9,141.6,111.3,142.8z"/>
	<path class="st0" d="M175,164.8c0.8,0.7,1.6,1.4,2.4,2.1c-0.4,0.4-0.9,0.9-1.3,1.3c-0.7-0.9-1.4-1.7-2-2.6
		C174.4,165.4,174.7,165.1,175,164.8z"/>
	<path class="st0" d="M99.6,117.2c1.7-1.8,2.7-0.3,4,0.6C102,119.3,100.8,119,99.6,117.2z"/>
	<path class="st0" d="M164.3,147.8c-0.6,1.8-2,1.6-3.3,1.1c-0.4-0.1-0.6-0.7-0.8-1.1c0.5-0.3,0.9-0.8,1.4-0.7
		C162.5,147.2,163.4,147.6,164.3,147.8C164.4,147.8,164.3,147.8,164.3,147.8z"/>
	<path class="st0" d="M149.2,140.3c-1.3,0.5-2.6,0.5-3.5-0.8c-0.2-0.2,0.3-0.9,0.5-1.3c1.1,0.4,2.2,0.9,3.3,1.3
		C149.4,139.7,149.3,140,149.2,140.3z"/>
	<path class="st0" d="M133.5,129.2c-0.9,1.5-1.4,2.4-1.9,3.3c-0.2,0-0.5,0-0.7,0c-0.2-1-0.3-2-0.5-3
		C131.2,129.3,132,129.3,133.5,129.2z"/>
	<path class="st0" d="M181.3,171.6c1,1.1,1.7,2,2.5,3C181.3,175.1,180.7,174.4,181.3,171.6z"/>
	<path class="st0" d="M110.2,119c-1.2,0-2.3,0.1-3.5-0.1c-0.4-0.1-0.6-0.8-0.9-1.2c0.4-0.1,0.9-0.3,1.3-0.2c1.1,0.3,2.1,0.8,3.1,1.2
		C110.2,118.8,110.2,118.9,110.2,119z"/>
	<path class="st0" d="M116.9,122.4c-1.4,0.2-2.3,0.4-3.8,0.6c0.7-1.3,1.1-2.1,1.7-3C115.5,120.8,116,121.4,116.9,122.4z"/>
	<path class="st0" d="M116.2,124.3c0.8-0.1,1.6-0.3,2.5-0.3c0.1,0,0.2,0.9,0.3,1.4c-0.8,0.1-1.7,0.3-2.5,0.4
		C116.4,125.3,116.3,124.8,116.2,124.3z"/>
	<path class="st0" d="M94.1,112.9c-0.2,0.9-0.4,1.8-0.6,2.8C91.5,114.3,91.5,114.3,94.1,112.9z"/>
	<path class="st0" d="M249.1,222.4c1.2,0.2,2.4,0.3,3.5,0.5c0,0.2,0.1,0.4,0.1,0.7c-0.5,0.3-1.1,0.6-1.6,0.9
		c-0.4,0.3-0.7,0.6-1.1,0.9c0.4,0.4,0.8,1.1,1.2,1.1c0.9,0,1.9-0.4,2.8-0.5c0.5-0.1,1-0.1,1.5,0c0.1,0,0.3,0.9,0.2,0.9
		c-0.4,0.2-0.9,0.3-1.3,0.3c-2.3,0.1-2.1,2.2-3,3.5c-0.2,0.3-0.1,0.9-0.3,1.3c-0.3,0.4-0.7,0.9-1.1,0.9c-0.4,0-0.8-0.5-1-1
		c-0.3-0.6-0.3-1.3-0.5-2.1c-1,0.1-1.8,0.1-2.7,0.2c-0.1,3-0.3,3.2-3,2.3c2-1,1-4.5,4.4-4.2c-0.3-0.1-0.8-0.2-1-0.4
		c-0.4-0.3-0.9-0.8-0.8-1.2c0.1-0.5,0.8-1.4,1-1.3C248.7,225.7,248.5,223.6,249.1,222.4C249.1,222.3,249.1,222.4,249.1,222.4z"/>
	<path class="st0" d="M302.8,325.3c3.3,3.2,6.6,6.5,9.9,9.7c1.3,1.3,2.5,2.6,3.9,3.7c2.7,2.1,5.5,4.1,8.1,6.2
		c0.6,0.5,0.8,1.4,1.3,2.3c-0.8,0.3-1.4,0.6-1.4,0.6c-3-2.4-5.8-4.4-8.3-6.8c-2.5-2.3-4.6-5-6.9-7.5c-2.3-2.6-4.7-5.1-7-7.7
		C302.4,325.7,302.6,325.5,302.8,325.3z"/>
	<path class="st0" d="M333,348.6c-8.6-6.5-17.2-12.5-22.4-21.9c3.3,3.3,6.4,6.7,9.8,9.8c2.9,2.6,6.1,4.8,9.2,7.3
		c1.3,1.1,3.4,1.5,3.6,3.6C333.3,347.6,333.1,347.9,333,348.6z"/>
	<path class="st0" d="M321.4,328.1c-1.7-1.4-3.4-2.5-4.6-3.9c-1.3-1.4-2.7-2.8-2.5-5.1c0-0.5-1-1.2-1.6-1.6
		c-0.4-0.3-1.1-0.4-1.7-0.7c1.8-1.5,3.9-1.1,4.7,0.9c1.3,3.2,3.2,5.7,5.8,7.9C322.4,326.4,322.6,327.5,321.4,328.1z"/>
	<path class="st0" d="M277.7,257.9c1,1.2,1.7,1.9,2.3,2.6c-0.6,0.4-1.3,1.3-1.7,1.2c-0.7-0.2-1.2-1-1.7-1.6c-0.4-0.4-0.7-0.9-1-1.3
		c-0.4-0.5-0.9-0.9-1.3-1.4c0.9-0.8,1.7-1.5,2.6-2.3c0.3,0.6,0.7,1.2,0.9,1.8C277.9,257.4,277.6,258,277.7,257.9z"/>
	<path class="st0" d="M243.6,234.5c1.1-0.2,2.2-0.3,3.2-0.5c-0.3,0.9-0.3,2-0.9,2.5c-0.4,0.3-1.6-0.3-2.4-0.6
		C243.6,235.5,243.6,235,243.6,234.5z"/>
	<path class="st0" d="M310.6,311.8c-0.9,0.6-1.6,1.3-1.8,1.2c-0.7-0.5-1.3-1.2-1.8-1.9c-0.1-0.1,1-1.3,1.2-1.2
		C308.9,310.3,309.5,310.9,310.6,311.8z"/>
	<path class="st0" d="M253.1,290.1c-0.7-0.4-1.7-0.7-2.1-1.3c-0.2-0.3,0.5-1.3,0.8-1.9c0.7,0.7,1.4,1.4,2.1,2.2
		C253.6,289.4,253.4,289.7,253.1,290.1z"/>
	<path class="st0" d="M276.2,252.3c-0.7,0.8-1.5,1.6-2.2,2.4c-0.3-0.6-1-1.7-0.9-1.8c0.8-0.6,1.7-1,2.6-1.5
		C275.8,251.7,276,252,276.2,252.3z"/>
	<path class="st0" d="M281.4,266.6c1.1,0.5,2.1,1,3,1.4c-0.5,0.4-1,1.1-1.6,1.2C281.4,269.6,281.1,268.7,281.4,266.6z"/>
	<path class="st0" d="M292.8,321.4c-0.7-0.9-1-1.4-1.4-2c0.5-0.3,1-1,1.5-1c0.5,0,1,0.6,1.4,1C293.9,319.9,293.5,320.5,292.8,321.4z
		"/>
	<path class="st0" d="M320,332.1c1.5-0.7,2.6-1.1,3.8-1.6C323.9,333.5,323.5,333.6,320,332.1z"/>
	<path class="st0" d="M272.8,251.1c-1.1,0.7-1.7,1.4-2,1.3c-0.7-0.3-1.3-0.9-1.9-1.4c0.3-0.3,0.7-0.9,1-0.9
		C270.6,250.2,271.4,250.6,272.8,251.1z"/>
	<path class="st0" d="M244.2,240.5c0.7-0.7,1.4-1.3,2.1-2c0.3,0.6,0.9,1.7,0.7,1.8c-0.6,0.5-1.5,0.8-2.3,1.1
		C244.6,241.1,244.4,240.8,244.2,240.5z"/>
	<path class="st0" d="M245.7,246.9c1-0.3,1.9-0.7,3.1-1c0,1.9,0,1.9-2.8,1.8C245.9,247.4,245.8,247.1,245.7,246.9z"/>
	<path class="st0" d="M256.9,326.4c-1-0.4-2.5,1.5-3.2-0.6C255.8,324.3,256.1,324.3,256.9,326.4L256.9,326.4z"/>
	<path class="st0" d="M281.4,265.3c-1.3-0.4-1.9-0.5-3.1-0.9c1.1-0.7,1.9-1.2,2.7-1.7C281.1,263.5,281.2,264.3,281.4,265.3z"/>
	<path class="st0" d="M387.9,111.3c-0.1,0.4-0.1,0.6-0.1,0.7c-3.3,2.2-5.2,5.9-9.4,7.2c-2.6,0.8-4.8,3.4-6.9,5.4
		c-1.3,1.2-2.2,2.9-3.6,4.9c-0.2,0-1-0.1-2.5-0.2c1.3-2,2-4,3.4-5.1c2.3-1.9,3.8-4.7,7.1-5.7c2.4-0.8,4.4-3,6.6-4.6
		C384.1,112.6,385.4,110.8,387.9,111.3z"/>
	<path class="st0" d="M302,194.1c5.5,0.3,11,0.6,16.6,0.8c-1.3,2.6-2.2,2.8-4.5,1.9c-1.1-0.4-2.5-0.4-3.7-0.3
		c-2,0.2-4.1-0.5-6.2,0.4c-0.5,0.2-1.7-1.1-2.6-1.7C301.8,194.8,301.9,194.4,302,194.1z"/>
	<path class="st0" d="M347.1,151.2c-1.3,1.6-2.4,3.2-3.8,4.5c-0.5,0.5-1.8,0.1-2.7,0.2c0.1-0.7,0.1-2,0.4-2.1
		c2.1-0.5,3.2-3.1,5.6-2.8C346.8,151,347,151.2,347.1,151.2z"/>
	<path class="st0" d="M283.1,188.9c-1.6,2-4.4,3-6.5,2.2c-0.6-0.2-0.8-1.3-1.4-2.2C278.2,188.9,280.5,188.9,283.1,188.9z"/>
	<path class="st0" d="M355.9,142.3c-0.1-0.1-0.7-0.5-1.9-1.3c0.6-0.3,1-0.7,1.4-0.7c1.4-0.1,1.8-0.8,1.8-2c0-0.4,0.8-1.1,1.3-1.1
		c0.5,0,1.4,0.5,1.5,0.9c0.1,0.5-0.3,1.3-0.7,1.7C358.4,140.7,357.3,141.3,355.9,142.3z"/>
	<path class="st0" d="M258.5,193.1c2.2-0.4,4.4,1.8,4,3.4c-0.1,0.3-0.7,0.8-1,0.7c-0.8-0.3-1.8-0.6-2.2-1.2
		C258.7,195.2,258.7,194.1,258.5,193.1z"/>
	<path class="st0" d="M265.1,189.8c0.6,1.6,1.2,3.1,2,5.4c-1.3-0.3-2.7-0.2-3.1-0.7C263.1,193.1,262.8,191.4,265.1,189.8z"/>
	<path class="st0" d="M395,116.1c-0.8,0.9-1.3,1.5-1.8,2.1c-0.6-0.6-1.9-1.5-1.8-1.9c0.4-1-0.4-3.1,1.5-2.9
		C393.6,113.5,394.2,115,395,116.1z"/>
	<path class="st0" d="M286.9,194.7c1.5-0.3,2.8-0.6,4.7-1c0,1,0.4,2.2-0.1,2.9C290.8,197.6,288.4,196.6,286.9,194.7z"/>
	<path class="st0" d="M376.2,135.9c1,1,1.8,1.6,2.3,2.4c0.1,0.2-1.1,1.5-1.3,1.4c-1-0.5-1.8-1.2-2.7-1.9
		C375,137.3,375.4,136.8,376.2,135.9z"/>
	<path class="st0" d="M372.8,146.1c-1.7-1.7-2.1-2.8-0.6-3.7c0.5-0.3,1.3,0.1,1.9,0.2C373.7,143.6,373.3,144.6,372.8,146.1z"/>
	<path class="st0" d="M324.3,193.6c-1.3-0.5-2.5-0.6-2.8-1.1c-0.6-1.3-2-2.6-0.7-4.3C321.9,189.7,322.9,191.3,324.3,193.6z"/>
	<path class="st0" d="M369,150.5c-1.3,0.3-2.6,0.8-3.1-0.9c-0.1-0.4,0.7-1.6,1.1-1.6C368.5,148,369.2,148.9,369,150.5z"/>
	<path class="st0" d="M283.9,199.4c-0.9-0.4-1.8-0.9-3.4-1.6c1.2-0.7,2-1.1,3.1-1.7c0.2,0.8,0.5,1.8,0.9,2.8
		C284.2,199,284.1,199.2,283.9,199.4z"/>
	<path class="st0" d="M362.8,152.9c1.1,0,2.2,0,3.3,0c-0.1,0.5-0.1,1.1-0.4,1.3C364.6,155.2,363.6,155.1,362.8,152.9z"/>
	<path class="st0" d="M382.7,135.1c-0.5-0.6-1.1-1.1-1.7-1.8c0.9-0.5,1.6-0.9,3.1-1.6c-0.2,1.5-0.4,2.5-0.5,3.5
		C383.2,135.1,382.9,135.1,382.7,135.1z"/>
	<path class="st0" d="M351,145.6c0.4-0.7,0.7-1.4,1.1-2.1c0.8,0.5,1.6,0.9,2.4,1.4c-0.1,0.3-0.2,0.6-0.3,0.9
		c-0.8,0.1-1.7,0.3-2.5,0.4C351.5,145.9,351.2,145.7,351,145.6z"/>
	<path class="st0" d="M326.6,188.1c0.3,1.5,0.6,2.9,1,4.4c-0.1,0.1-0.2,0.2-0.3,0.4c-0.5-0.5-1.4-0.9-1.4-1.4
		c-0.2-1.1,0.1-2.3,0.2-3.5C326.3,188,326.5,188.1,326.6,188.1z"/>
	<path class="st0" d="M294.8,194.2c1.6,0.1,2.6,0.1,3.6,0.2c0,0.2,0,0.3,0.1,0.5c-0.7,0.5-1.4,0.9-2.3,1.5
		C296.1,196.1,295.6,195.5,294.8,194.2z"/>
	<path class="st0" d="M287.3,187.8c0.2-2.4,0.9-2.6,3.9-1.2C289.7,187.1,288.6,187.4,287.3,187.8z"/>
	<path class="st0" d="M346.3,148.1c1.3-0.3,2.5-0.6,3.6-0.9c0.1,0.2,0.3,0.5,0.4,0.7c-0.6,0.7-1.3,1.5-2,2.3
		C347.6,149.5,347,148.9,346.3,148.1z"/>
	<path class="st0" d="M279.9,197.8c-0.8-0.1-1.5-0.1-2.3-0.2c0.2-0.7,0.3-1.3,0.5-2c0.7,0.4,1.4,0.7,2.1,1.1
		C280.1,197.1,280,197.4,279.9,197.8z"/>
	<path class="st0" d="M385.7,123.5c1.5-0.2,2.6-0.4,3.9-0.6C388.8,125,388.3,125.1,385.7,123.5z"/>
	<path class="st0" d="M333.7,192c-2.1-0.5-2.6-1.6-2-4.3C332.4,189.2,333,190.5,333.7,192z"/>
	<path class="st0" d="M250.5,106.8c0.6,1.7,1.1,2.8,1.4,3.9c0.1,0.4,0,0.9-0.3,1.2c-0.2,0.3-1.1,0.4-1.1,0.3
		c-0.6-1.2-1.2-2.5-1.5-3.8C248.9,107.9,250,107.3,250.5,106.8z"/>
	<path class="st0" d="M241.3,51.1c1.2,0.2,2.1,0.4,3.6,0.7c-0.8,0.8-1.4,1.5-2.1,1.9c-0.4,0.2-1.5-0.1-1.6-0.4
		C241,52.6,241.2,51.7,241.3,51.1z"/>
	<path class="st0" d="M240.2,57.4c1.1-0.4,2.1-0.7,3.2-1.1c0.2,0.5,0.3,1.1,0.5,1.6c-1.1,0.2-2.2,0.5-3.4,0.7
		C240.4,58.3,240.3,57.9,240.2,57.4z"/>
	<path class="st0" d="M253,119c-0.2,0.7-0.3,1.3-0.6,2.6c-0.8-0.8-1.4-1.4-1.9-2c0.7-0.4,1.4-0.8,2.2-1.2
		C252.7,118.6,252.8,118.8,253,119z"/>
	<path class="st0" d="M219.3,144.2c-2.2-0.9-2-3-2.5-4.6c0-0.1,1.2-0.8,1.5-0.6C220.1,140,220.4,142.3,219.3,144.2z"/>
	<path class="st0" d="M229.1,67.3c-1.6-1.3-1.8-2.6-1.1-4.3c0.2-0.5-0.1-1.2-0.1-1.8c0-0.5,0.1-1,0.1-1.8c0.9,0.7,1.5,1.1,1.8,1.3
		C229.5,63,229.3,65,229.1,67.3z"/>
	<path class="st0" d="M223,97.4c1.5,0,3-0.3,3,1.6c0,0.3-1.3,0.9-2,0.9C222.2,99.7,222.4,98.6,223,97.4z"/>
	<path class="st0" d="M219,123.8c0.8,0.9,1.8,1.4,1.8,2c0,0.6-0.9,1.1-1.4,1.7c-0.6-0.6-1.3-1.1-1.6-1.8
		C217.6,125.3,218.4,124.6,219,123.8z"/>
	<path class="st0" d="M227.2,77.4c2,1,2.5,2,1.2,3.1c-0.3,0.3-1,0.1-1.6,0.2C226.9,79.5,227.1,78.5,227.2,77.4z"/>
	<path class="st0" d="M225.4,94.3c-0.5-1.1-1.1-2.2-1.6-3.2c0.6,0.1,1.4,0,1.9,0.4C226.5,92.1,227.6,93,225.4,94.3z"/>
	<path class="st0" d="M218.6,118.9c1-0.4,1.9-0.9,2.9-1.3c0.1,0.6,0.2,1.2,0.4,1.9c-1,0.2-1.9,0.4-2.9,0.6
		C218.8,119.6,218.7,119.3,218.6,118.9z"/>
	<path class="st0" d="M224.2,104.8c-0.4,0.8-0.8,1.6-1.2,2.4c-0.6-0.4-1.1-0.8-1.7-1.1c0.6-0.7,1.3-1.3,1.9-2
		C223.5,104.3,223.8,104.5,224.2,104.8z"/>
	<path class="st0" d="M227.6,57.7c-0.1-0.9-0.4-1.8-0.4-2.6c0-0.4,0.6-0.8,0.9-1.2c0.4,0.4,1,0.9,1,1.3c-0.1,0.9-0.6,1.8-0.9,2.6
		C228,57.8,227.8,57.7,227.6,57.7z"/>
	<path class="st0" d="M219.5,111.8c0.8-0.4,1.6-0.8,2.4-1c0.1,0,0.5,1,0.8,1.6c-0.9,0.2-1.9,0.4-2.8,0.7
		C219.8,112.6,219.7,112.2,219.5,111.8z"/>
	<path class="st0" d="M249.2,361.9c2-0.9,3.9-2.3,6.1-0.7C253.2,361.2,251.5,363.8,249.2,361.9z"/>
	<path class="st0" d="M253.6,368.6c-1.3,0.2-2.5,0.5-3.8,0.7c-0.1-0.2-0.1-0.5-0.2-0.7c1-1.2,2-2.4,3.7-0.9
		C253.4,368,253.5,368.3,253.6,368.6z"/>
</g>
</svg>
