<?xml version="1.0" encoding="utf-8"?>
<!-- Generator: Adobe Illustrator 24.3.0, SVG Export Plug-In . SVG Version: 6.00 Build 0)  -->
<svg version="1.1" id="圖層_1" focusable="false" xmlns="http://www.w3.org/2000/svg" xmlns:xlink="http://www.w3.org/1999/xlink"
	 x="0px" y="0px" viewBox="0 0 450 450" style="enable-background:new 0 0 450 450;" xml:space="preserve">
<style type="text/css">
	.st0{fill:#534741;}
</style>
<path class="st0" d="M389.2,12.8H60c-24.8,0-44.9,20.1-44.9,44.9v329.2c0,24.8,20.1,44.9,44.9,44.9h128.4V289.4h-58.9v-67h58.9
	v-51.1C188.4,113.1,223,81,276,81c25.4,0,51.9,4.5,51.9,4.5v57h-29.2c-28.8,0-37.8,17.9-37.8,36.2v43.5h64.3l-10.3,67h-54v142.4
	h128.4c24.8,0,44.9-20.1,44.9-44.9V57.7C434.1,32.9,414,12.8,389.2,12.8z"/>
</svg>
