<?xml version="1.0" encoding="utf-8"?>
<!-- Generator: Adobe Illustrator 24.3.0, SVG Export Plug-In . SVG Version: 6.00 Build 0)  -->
<svg version="1.1" id="圖層_1" focusable="false" xmlns="http://www.w3.org/2000/svg" xmlns:xlink="http://www.w3.org/1999/xlink"
	 x="0px" y="0px" viewBox="0 0 450 450" style="enable-background:new 0 0 450 450;" xml:space="preserve">
<style type="text/css">
	.st0{fill:#231815;}
	.st1{fill:#801C23;}
</style>
<g>
	<g>
		<g>
			<path class="st0" d="M44,375.6v11.7h7.6v1h-8.7v-12.7H44z"/>
			<path class="st0" d="M54.2,379.1v5.6c0,1,0.2,1.7,0.6,2.1c0.4,0.5,1.1,0.7,2,0.7c0.7,0,1.3-0.3,1.9-0.8c0.5-0.5,0.8-1.2,0.9-2.1
				v-5.6h1.1v9.2h-1.1v-1.5c-0.7,1.2-1.7,1.8-3.1,1.8c-2.2,0-3.4-1.3-3.4-3.8v-5.7H54.2z"/>
			<path class="st0" d="M63.9,375.4v8.4l5.1-4.6h1.5l-4,3.6l4.4,5.5h-1.4l-3.8-4.8l-1.8,1.6v3.2h-1.1v-12.9H63.9z"/>
			<path class="st0" d="M78.7,379.9c0.5,0.6,0.8,1.4,0.8,2.5v5.9h-1v-1.8c-0.4,0.5-0.9,1-1.5,1.3c-0.7,0.4-1.5,0.7-2.4,0.7
				c-0.9,0-1.6-0.2-2.1-0.7c-0.6-0.5-0.9-1.1-0.9-1.8c0-1.1,0.4-1.8,1.3-2.3c0.7-0.5,1.8-0.7,3.2-0.7l2.3,0v-0.6
				c0-1.7-0.9-2.6-2.7-2.6c-0.7,0-1.3,0.1-1.8,0.5c-0.5,0.3-0.9,0.8-1,1.5l-1-0.1c0.2-0.9,0.6-1.6,1.4-2.1c0.7-0.4,1.5-0.7,2.6-0.7
				C77.1,378.9,78.1,379.2,78.7,379.9z M76.1,383.8c-2.3,0-3.5,0.8-3.5,2.2c0,0.5,0.2,0.9,0.6,1.2c0.4,0.3,0.9,0.5,1.6,0.5
				c0.9,0,1.8-0.3,2.5-1c0.7-0.6,1.1-1.3,1.1-2v-1L76.1,383.8z"/>
			<path class="st0" d="M89.2,382.6v5.6h-1.1v-5.6c0-2-0.9-2.9-2.6-2.9c-0.7,0-1.3,0.3-1.8,0.8c-0.5,0.5-0.8,1.3-0.9,2.2v5.5h-1.1
				v-9.2h1.1v1.5c0.3-0.5,0.7-1,1.2-1.3c0.5-0.3,1.1-0.5,1.7-0.5C88,378.9,89.2,380.1,89.2,382.6z"/>
			<path class="st0" d="M98.5,381v-1.8h1.1v8.5c0,2.9-1.4,4.4-4.1,4.4c-1.2,0-2.1-0.3-2.8-0.8c-0.6-0.5-1-1.2-1.2-2.2h1.1
				c0.1,0.7,0.4,1.2,0.9,1.5c0.5,0.4,1.1,0.6,2,0.6c2,0,3.1-1.2,3.1-3.4V386c-0.7,1.4-1.8,2.1-3.3,2.1c-1.3,0-2.3-0.5-3.1-1.4
				c-0.7-0.8-1.1-1.9-1.1-3.2c0-1.3,0.4-2.4,1.1-3.2c0.8-0.9,1.8-1.4,3.1-1.4C96.7,378.9,97.8,379.6,98.5,381z M92.9,380.9
				c-0.5,0.7-0.8,1.5-0.8,2.6c0,1,0.2,1.9,0.8,2.6c0.5,0.7,1.3,1.1,2.4,1.1c1,0,1.8-0.4,2.4-1.1c0.5-0.7,0.8-1.5,0.8-2.6
				c0-1.1-0.3-1.9-0.8-2.6c-0.6-0.7-1.4-1.1-2.4-1.1C94.3,379.8,93.5,380.1,92.9,380.9z"/>
			<path class="st0" d="M108.9,375.6v5.6h7.9v-5.6h1.1v12.7h-1.1v-6.1h-7.9v6.1h-1.1v-12.7H108.9z"/>
			<path class="st0" d="M127.5,380.3c0.7,0.9,1.1,2,1.1,3.4c0,1.3-0.4,2.5-1.1,3.4c-0.8,1-1.9,1.5-3.2,1.5c-1.3,0-2.4-0.5-3.2-1.5
				c-0.7-0.9-1.1-2-1.1-3.4c0-1.3,0.4-2.5,1.1-3.4c0.8-1,1.9-1.5,3.2-1.5C125.6,378.9,126.7,379.3,127.5,380.3z M121.8,381
				c-0.5,0.7-0.8,1.6-0.8,2.7c0,1.1,0.3,2,0.8,2.7c0.6,0.8,1.4,1.2,2.5,1.2c1,0,1.9-0.4,2.5-1.2c0.5-0.7,0.8-1.6,0.8-2.7
				c0-1.1-0.3-2-0.8-2.7c-0.6-0.8-1.4-1.2-2.5-1.2C123.2,379.8,122.4,380.2,121.8,381z"/>
			<path class="st0" d="M138,382.6v5.6h-1.1v-5.6c0-2-0.9-2.9-2.6-2.9c-0.7,0-1.3,0.3-1.8,0.8c-0.5,0.5-0.8,1.3-0.9,2.2v5.5h-1.1
				v-9.2h1.1v1.5c0.3-0.5,0.7-1,1.2-1.3c0.5-0.3,1.1-0.5,1.7-0.5C136.8,378.9,138,380.1,138,382.6z"/>
			<path class="st0" d="M147.2,381v-1.8h1.1v8.5c0,2.9-1.4,4.4-4.1,4.4c-1.2,0-2.1-0.3-2.8-0.8c-0.6-0.5-1-1.2-1.2-2.2h1.1
				c0.1,0.7,0.4,1.2,0.9,1.5c0.5,0.4,1.1,0.6,2,0.6c2,0,3.1-1.2,3.1-3.4V386c-0.7,1.4-1.8,2.1-3.3,2.1c-1.3,0-2.3-0.5-3.1-1.4
				c-0.7-0.8-1.1-1.9-1.1-3.2c0-1.3,0.4-2.4,1.1-3.2c0.8-0.9,1.8-1.4,3.1-1.4C145.5,378.9,146.6,379.6,147.2,381z M141.7,380.9
				c-0.6,0.7-0.8,1.5-0.8,2.6c0,1,0.2,1.9,0.8,2.6c0.6,0.7,1.3,1.1,2.4,1.1c1,0,1.8-0.4,2.4-1.1c0.5-0.7,0.8-1.5,0.8-2.6
				c0-1.1-0.3-1.9-0.8-2.6c-0.6-0.7-1.4-1.1-2.4-1.1C143.1,379.8,142.3,380.1,141.7,380.9z"/>
			<path class="st0" d="M152.8,379.1h2.4v0.9h-2.4v6.2c0,0.4,0.1,0.7,0.2,0.9c0.1,0.2,0.4,0.2,0.8,0.2h1.2v0.9h-1.3
				c-0.7,0-1.2-0.2-1.5-0.5c-0.3-0.3-0.4-0.8-0.4-1.5V380h-2v-0.9h2v-2.5l1.1-0.4V379.1z"/>
			<path class="st0" d="M163.5,379.9c0.5,0.6,0.8,1.4,0.8,2.5v5.9h-1v-1.8c-0.4,0.5-0.9,1-1.5,1.3c-0.7,0.4-1.5,0.7-2.4,0.7
				c-0.9,0-1.6-0.2-2.1-0.7c-0.6-0.5-0.9-1.1-0.9-1.8c0-1.1,0.4-1.8,1.3-2.3c0.7-0.5,1.8-0.7,3.2-0.7l2.3,0v-0.6
				c0-1.7-0.9-2.6-2.7-2.6c-0.7,0-1.3,0.1-1.8,0.5c-0.5,0.3-0.9,0.8-1,1.5l-1-0.1c0.2-0.9,0.6-1.6,1.4-2.1c0.7-0.4,1.5-0.7,2.6-0.7
				C161.9,378.9,162.9,379.2,163.5,379.9z M161,383.8c-2.3,0-3.5,0.8-3.5,2.2c0,0.5,0.2,0.9,0.6,1.2c0.4,0.3,0.9,0.5,1.6,0.5
				c0.9,0,1.8-0.3,2.5-1c0.7-0.6,1.1-1.3,1.1-2v-1L161,383.8z"/>
			<path class="st0" d="M168.2,376.1c0.2,0.1,0.3,0.4,0.3,0.6c0,0.2-0.1,0.5-0.3,0.6c-0.2,0.2-0.4,0.2-0.6,0.2
				c-0.3,0-0.5-0.1-0.6-0.2c-0.2-0.2-0.3-0.4-0.3-0.6c0-0.3,0.1-0.5,0.3-0.6c0.2-0.2,0.4-0.3,0.6-0.3
				C167.9,375.8,168.1,375.9,168.2,376.1z M168.1,379.1v9.2h-1.1v-9.2H168.1z"/>
			<path class="st0" d="M186.4,375.6v1h-4.6v11.7h-1.1v-11.7H176v-1H186.4z"/>
			<path class="st0" d="M193,379.1v1.1c-0.5-0.1-0.9-0.2-1.4-0.2c-0.8,0-1.5,0.4-2,1.1c-0.5,0.7-0.7,1.5-0.7,2.4v4.8h-1.1v-9.2h1.1
				v1.8c0.2-0.6,0.6-1,1-1.4c0.5-0.4,1.1-0.6,1.8-0.6C192.2,378.9,192.6,378.9,193,379.1z"/>
			<path class="st0" d="M200.9,379.9c0.5,0.6,0.8,1.4,0.8,2.5v5.9h-1v-1.8c-0.4,0.5-0.9,1-1.5,1.3c-0.7,0.4-1.5,0.7-2.4,0.7
				c-0.9,0-1.6-0.2-2.1-0.7c-0.6-0.5-0.9-1.1-0.9-1.8c0-1.1,0.4-1.8,1.3-2.3c0.7-0.5,1.8-0.7,3.2-0.7l2.3,0v-0.6
				c0-1.7-0.9-2.6-2.7-2.6c-0.7,0-1.3,0.1-1.8,0.5c-0.5,0.3-0.9,0.8-1,1.5l-1-0.1c0.2-0.9,0.6-1.6,1.4-2.1c0.7-0.4,1.5-0.7,2.6-0.7
				C199.4,378.9,200.3,379.2,200.9,379.9z M198.4,383.8c-2.3,0-3.5,0.8-3.5,2.2c0,0.5,0.2,0.9,0.6,1.2c0.4,0.3,0.9,0.5,1.6,0.5
				c0.9,0,1.8-0.3,2.5-1c0.7-0.6,1.1-1.3,1.1-2v-1L198.4,383.8z"/>
			<path class="st0" d="M212,375.4v12.9h-1v-1.8c-0.6,1.4-1.7,2.1-3.2,2.1c-1.3,0-2.4-0.5-3.1-1.5c-0.7-0.9-1-2-1-3.4
				c0-1.3,0.3-2.5,1-3.4c0.7-1,1.8-1.5,3-1.5c1.5,0,2.5,0.7,3.2,2.2v-5.7H212z M205.5,380.9c-0.5,0.7-0.8,1.6-0.8,2.7
				c0,1.2,0.2,2.1,0.7,2.8c0.6,0.8,1.3,1.2,2.4,1.2c1,0,1.8-0.4,2.3-1.1c0.5-0.7,0.8-1.6,0.8-2.7v-0.2c0-1.1-0.3-2-0.8-2.7
				c-0.6-0.7-1.3-1.1-2.2-1.1C206.8,379.8,206,380.2,205.5,380.9z"/>
			<path class="st0" d="M215.9,376.1c0.2,0.1,0.3,0.4,0.3,0.6c0,0.2-0.1,0.5-0.3,0.6c-0.2,0.2-0.4,0.2-0.6,0.2
				c-0.3,0-0.5-0.1-0.6-0.2c-0.2-0.2-0.3-0.4-0.3-0.6c0-0.3,0.1-0.5,0.3-0.6c0.2-0.2,0.4-0.3,0.6-0.3
				C215.5,375.8,215.7,375.9,215.9,376.1z M215.8,379.1v9.2h-1.1v-9.2H215.8z"/>
			<path class="st0" d="M220.8,379.1h2.4v0.9h-2.4v6.2c0,0.4,0.1,0.7,0.2,0.9c0.1,0.2,0.4,0.2,0.8,0.2h1.2v0.9h-1.3
				c-0.7,0-1.2-0.2-1.5-0.5c-0.3-0.3-0.4-0.8-0.4-1.5V380h-1.9v-0.9h1.9v-2.5l1.1-0.4V379.1z"/>
			<path class="st0" d="M226.5,376.1c0.2,0.1,0.3,0.4,0.3,0.6c0,0.2-0.1,0.5-0.3,0.6c-0.2,0.2-0.4,0.2-0.6,0.2
				c-0.3,0-0.5-0.1-0.6-0.2c-0.2-0.2-0.3-0.4-0.3-0.6c0-0.3,0.1-0.5,0.3-0.6c0.2-0.2,0.4-0.3,0.6-0.3
				C226.1,375.8,226.3,375.9,226.5,376.1z M226.4,379.1v9.2h-1.1v-9.2H226.4z"/>
			<path class="st0" d="M236.4,380.3c0.7,0.9,1.1,2,1.1,3.4c0,1.3-0.4,2.5-1.1,3.4c-0.8,1-1.9,1.5-3.2,1.5c-1.3,0-2.4-0.5-3.2-1.5
				c-0.7-0.9-1.1-2-1.1-3.4c0-1.3,0.4-2.5,1.1-3.4c0.8-1,1.9-1.5,3.2-1.5C234.5,378.9,235.6,379.3,236.4,380.3z M230.7,381
				c-0.6,0.7-0.8,1.6-0.8,2.7c0,1.1,0.3,2,0.8,2.7c0.6,0.8,1.4,1.2,2.5,1.2c1,0,1.9-0.4,2.5-1.2c0.5-0.7,0.8-1.6,0.8-2.7
				c0-1.1-0.3-2-0.8-2.7c-0.6-0.8-1.4-1.2-2.5-1.2C232.1,379.8,231.3,380.2,230.7,381z"/>
			<path class="st0" d="M246.8,382.6v5.6h-1.1v-5.6c0-2-0.9-2.9-2.6-2.9c-0.7,0-1.3,0.3-1.8,0.8c-0.5,0.5-0.8,1.3-0.9,2.2v5.5h-1.1
				v-9.2h1.1v1.5c0.3-0.5,0.7-1,1.2-1.3c0.5-0.3,1.1-0.5,1.7-0.5C245.7,378.9,246.8,380.1,246.8,382.6z"/>
			<path class="st0" d="M255.8,379.9c0.5,0.6,0.8,1.4,0.8,2.5v5.9h-1v-1.8c-0.4,0.5-0.9,1-1.5,1.3c-0.7,0.4-1.5,0.7-2.4,0.7
				c-0.9,0-1.6-0.2-2.1-0.7c-0.6-0.5-0.9-1.1-0.9-1.8c0-1.1,0.4-1.8,1.3-2.3c0.7-0.5,1.8-0.7,3.2-0.7l2.3,0v-0.6
				c0-1.7-0.9-2.6-2.7-2.6c-0.7,0-1.3,0.1-1.8,0.5c-0.5,0.3-0.9,0.8-1,1.5l-1-0.1c0.2-0.9,0.6-1.6,1.4-2.1c0.7-0.4,1.5-0.7,2.6-0.7
				C254.2,378.9,255.2,379.2,255.8,379.9z M253.3,383.8c-2.3,0-3.5,0.8-3.5,2.2c0,0.5,0.2,0.9,0.6,1.2c0.4,0.3,0.9,0.5,1.6,0.5
				c0.9,0,1.8-0.3,2.5-1c0.7-0.6,1.1-1.3,1.1-2v-1L253.3,383.8z"/>
			<path class="st0" d="M260.2,375.4v12.9h-1.1v-12.9H260.2z"/>
			<path class="st0" d="M277.8,376.5c1,0.7,1.6,1.7,1.7,3h-1c-0.2-1-0.6-1.7-1.4-2.3c-0.8-0.5-1.7-0.8-2.7-0.8
				c-1.6,0-2.8,0.6-3.7,1.7c-0.8,1-1.2,2.4-1.2,4c0,1.6,0.4,3,1.2,4c0.9,1,2,1.6,3.6,1.6c1.1,0,2-0.3,2.8-0.9
				c0.8-0.6,1.4-1.5,1.6-2.7h1c-0.3,1.5-0.9,2.6-2,3.4c-1,0.7-2.1,1.1-3.5,1.1c-1.9,0-3.4-0.7-4.4-1.9c-1-1.2-1.5-2.7-1.5-4.6
				c0-1.9,0.5-3.4,1.5-4.6c1.1-1.3,2.6-2,4.5-2C275.7,375.4,276.8,375.7,277.8,376.5z"/>
			<path class="st0" d="M282.6,375.4v5.4c0.3-0.6,0.7-1.1,1.3-1.4c0.5-0.3,1.1-0.5,1.7-0.5c1,0,1.9,0.3,2.4,0.9
				c0.6,0.6,0.9,1.5,0.9,2.6v5.9h-1.1v-5.7c0-0.9-0.2-1.6-0.7-2.1c-0.5-0.5-1.1-0.7-1.9-0.7c-0.8,0-1.4,0.3-1.9,0.9
				c-0.5,0.6-0.8,1.4-0.8,2.3v5.3h-1.1v-12.9H282.6z"/>
			<path class="st0" d="M292.9,376.1c0.2,0.1,0.3,0.4,0.3,0.6c0,0.2-0.1,0.5-0.3,0.6c-0.2,0.2-0.4,0.2-0.6,0.2
				c-0.3,0-0.5-0.1-0.6-0.2c-0.2-0.2-0.3-0.4-0.3-0.6c0-0.3,0.1-0.5,0.3-0.6c0.2-0.2,0.4-0.3,0.6-0.3
				C292.5,375.8,292.7,375.9,292.9,376.1z M292.8,379.1v9.2h-1.1v-9.2H292.8z"/>
			<path class="st0" d="M303,382.6v5.6H302v-5.6c0-2-0.9-2.9-2.6-2.9c-0.7,0-1.3,0.3-1.8,0.8c-0.5,0.5-0.8,1.3-0.9,2.2v5.5h-1.1
				v-9.2h1.1v1.5c0.3-0.5,0.7-1,1.2-1.3c0.5-0.3,1.1-0.5,1.7-0.5C301.9,378.9,303,380.1,303,382.6z"/>
			<path class="st0" d="M312.2,380.3c0.6,0.9,1,2.1,1,3.7h-7.4c0.1,1.1,0.4,2,0.9,2.6c0.6,0.6,1.3,1,2.3,1c0.8,0,1.5-0.2,2-0.7
				c0.4-0.4,0.7-0.9,1-1.6h1.1c-0.2,0.9-0.6,1.6-1.2,2.2c-0.7,0.7-1.7,1-2.9,1c-1.3,0-2.3-0.4-3.1-1.3c-0.8-0.9-1.2-2.1-1.2-3.5
				c0-1.3,0.4-2.5,1.1-3.4c0.8-1,1.8-1.4,3.1-1.4C310.4,378.9,311.5,379.3,312.2,380.3z M306.8,380.7c-0.6,0.6-0.9,1.4-1,2.4h6.3
				c-0.2-2.2-1.2-3.4-3.2-3.4C308.1,379.8,307.4,380.1,306.8,380.7z"/>
			<path class="st0" d="M321.7,381.7h-1c-0.1-0.6-0.4-1.1-0.8-1.4c-0.4-0.3-1-0.5-1.9-0.5c-0.7,0-1.2,0.1-1.6,0.4
				c-0.4,0.3-0.6,0.6-0.6,1.1c0,0.5,0.3,0.8,0.8,1.1c0.4,0.2,1,0.4,1.9,0.6c1.1,0.3,1.9,0.6,2.4,0.8c0.7,0.4,1.1,1.1,1.1,1.8
				c0,1.8-1.2,2.8-3.7,2.8c-2.4,0-3.6-1-3.9-3.1h1c0.1,0.8,0.4,1.4,0.8,1.7c0.4,0.3,1.1,0.5,1.9,0.5c1.8,0,2.7-0.6,2.7-1.8
				c0-0.5-0.3-1-0.9-1.3c-0.3-0.2-1-0.4-2-0.6c-1.1-0.3-1.8-0.5-2.2-0.8c-0.7-0.4-1-1-1-1.8c0-0.7,0.3-1.3,1-1.8
				c0.6-0.4,1.5-0.7,2.4-0.7C320.3,378.9,321.5,379.8,321.7,381.7z"/>
			<path class="st0" d="M330.7,380.3c0.6,0.9,1,2.1,1,3.7h-7.4c0.1,1.1,0.4,2,0.9,2.6c0.6,0.6,1.3,1,2.3,1c0.8,0,1.5-0.2,2-0.7
				c0.4-0.4,0.7-0.9,1-1.6h1.1c-0.2,0.9-0.6,1.6-1.2,2.2c-0.7,0.7-1.7,1-2.9,1c-1.3,0-2.3-0.4-3.1-1.3c-0.8-0.9-1.2-2.1-1.2-3.5
				c0-1.3,0.4-2.5,1.1-3.4c0.8-1,1.8-1.4,3.1-1.4C328.9,378.9,330,379.3,330.7,380.3z M325.3,380.7c-0.5,0.6-0.9,1.4-1,2.4h6.3
				c-0.2-2.2-1.2-3.4-3.2-3.4C326.5,379.8,325.8,380.1,325.3,380.7z"/>
			<path class="st0" d="M340.9,375.6l5,11.3h0.1l4.9-11.3h1.4v12.7h-1.1v-10.9h-0.1l-4.8,10.9h-1l-4.7-10.9h-0.1v10.9h-1.1v-12.7
				H340.9z"/>
			<path class="st0" d="M361.7,380.3c0.6,0.9,1,2.1,1,3.7h-7.4c0.1,1.1,0.4,2,0.9,2.6c0.6,0.6,1.3,1,2.3,1c0.8,0,1.5-0.2,2-0.7
				c0.4-0.4,0.7-0.9,1-1.6h1.1c-0.2,0.9-0.6,1.6-1.2,2.2c-0.7,0.7-1.7,1-2.9,1c-1.3,0-2.3-0.4-3.1-1.3c-0.8-0.9-1.2-2.1-1.2-3.5
				c0-1.3,0.4-2.5,1.1-3.4c0.8-1,1.8-1.4,3.1-1.4C359.9,378.9,361,379.3,361.7,380.3z M356.3,380.7c-0.6,0.6-0.9,1.4-1,2.4h6.3
				c-0.2-2.2-1.2-3.4-3.2-3.4C357.5,379.8,356.8,380.1,356.3,380.7z"/>
			<path class="st0" d="M372.4,375.4v12.9h-1v-1.8c-0.6,1.4-1.7,2.1-3.2,2.1c-1.3,0-2.4-0.5-3.1-1.5c-0.7-0.9-1-2-1-3.4
				c0-1.3,0.3-2.5,1-3.4c0.7-1,1.8-1.5,3.1-1.5c1.5,0,2.5,0.7,3.2,2.2v-5.7H372.4z M365.9,380.9c-0.5,0.7-0.8,1.6-0.8,2.7
				c0,1.2,0.2,2.1,0.7,2.8c0.5,0.8,1.3,1.2,2.4,1.2c1,0,1.8-0.4,2.3-1.1c0.5-0.7,0.8-1.6,0.8-2.7v-0.2c0-1.1-0.3-2-0.8-2.7
				c-0.6-0.7-1.3-1.1-2.2-1.1C367.3,379.8,366.5,380.2,365.9,380.9z"/>
			<path class="st0" d="M376.4,376.1c0.2,0.1,0.3,0.4,0.3,0.6c0,0.2-0.1,0.5-0.3,0.6c-0.2,0.2-0.4,0.2-0.6,0.2
				c-0.3,0-0.5-0.1-0.6-0.2c-0.2-0.2-0.3-0.4-0.3-0.6c0-0.3,0.1-0.5,0.3-0.6c0.2-0.2,0.4-0.3,0.6-0.3
				C376,375.8,376.2,375.9,376.4,376.1z M376.2,379.1v9.2h-1.1v-9.2H376.2z"/>
			<path class="st0" d="M385.6,379.7c0.7,0.5,1.1,1.3,1.3,2.4h-1.1c-0.1-0.8-0.4-1.3-0.9-1.7c-0.5-0.4-1.2-0.6-2-0.6
				c-1,0-1.7,0.4-2.3,1.1c-0.6,0.7-0.8,1.7-0.8,2.9c0,1.2,0.3,2.1,0.8,2.8c0.5,0.7,1.3,1,2.3,1c1.7,0,2.7-0.9,2.9-2.6h1
				c-0.2,1.2-0.6,2-1.3,2.6c-0.7,0.6-1.6,0.9-2.7,0.9c-1.3,0-2.4-0.5-3.2-1.4c-0.7-0.9-1-2-1-3.4c0-1.4,0.4-2.5,1.1-3.4
				c0.8-1,1.8-1.5,3.1-1.5C384,378.9,384.9,379.1,385.6,379.7z"/>
			<path class="st0" d="M390.3,376.1c0.2,0.1,0.3,0.4,0.3,0.6c0,0.2-0.1,0.5-0.3,0.6c-0.2,0.2-0.4,0.2-0.6,0.2
				c-0.3,0-0.5-0.1-0.6-0.2c-0.2-0.2-0.3-0.4-0.3-0.6c0-0.3,0.1-0.5,0.3-0.6c0.2-0.2,0.4-0.3,0.6-0.3
				C389.9,375.8,390.1,375.9,390.3,376.1z M390.1,379.1v9.2h-1.1v-9.2H390.1z"/>
			<path class="st0" d="M400.4,382.6v5.6h-1.1v-5.6c0-2-0.9-2.9-2.6-2.9c-0.7,0-1.3,0.3-1.8,0.8c-0.5,0.5-0.8,1.3-0.9,2.2v5.5h-1.1
				v-9.2h1.1v1.5c0.3-0.5,0.7-1,1.2-1.3c0.5-0.3,1.1-0.5,1.7-0.5C399.2,378.9,400.4,380.1,400.4,382.6z"/>
			<path class="st0" d="M409.6,380.3c0.6,0.9,1,2.1,1,3.7h-7.4c0.1,1.1,0.4,2,0.9,2.6c0.6,0.6,1.3,1,2.3,1c0.8,0,1.5-0.2,2-0.7
				c0.4-0.4,0.7-0.9,1-1.6h1.1c-0.2,0.9-0.6,1.6-1.2,2.2c-0.7,0.7-1.7,1-2.9,1c-1.3,0-2.3-0.4-3.1-1.3c-0.8-0.9-1.2-2.1-1.2-3.5
				c0-1.3,0.4-2.5,1.1-3.4c0.8-1,1.8-1.4,3.1-1.4C407.7,378.9,408.8,379.3,409.6,380.3z M404.1,380.7c-0.6,0.6-0.9,1.4-1,2.4h6.3
				c-0.2-2.2-1.2-3.4-3.2-3.4C405.4,379.8,404.7,380.1,404.1,380.7z"/>
		</g>
		<path class="st0" d="M291.5,302.3h2.8c0,0-0.6-0.9-1.2-3.1h17.1c-0.6,2.3-1.2,3.1-1.2,3.1h2.8c1.8-0.7,3.2-1.9,4.2-3.1h17.1v-4.5
			h-14.9c0.8-2.6,0.7-4.8,0.7-4.8h-7.7c0,1.8-0.1,3.4-0.2,4.8h-18.6c-0.1-1.4-0.2-3-0.2-4.8h-7.7c0,0-0.1,2.2,0.7,4.8h-14.8v4.5h17
			C288.4,300.4,289.7,301.5,291.5,302.3z M90.9,336.2l-2.8,1.8c0,0,4,6.1,5.8,13.8l-25.4,1.9l12.6-27h-9L63,354.1l-7.6,0.6l0.3,4.5
			l39-3c0.1,1,0.2,2,0.2,3h9.1C104,359.2,101.4,346.1,90.9,336.2z M130.6,333.9v4.5h7c0,10.4-13.3,14.7-13.3,14.7v1.6
			c16.7-2.9,19.9-13.4,19.9-20.8H130.6z M79.7,300.1c-0.7-1.4-1.8-4.1-1.8-9H69c0,0-0.3,5.9,5.5,9H44.6c0,10.2-1.8,14.1-1.8,14.1
			h5.8c0,0,2.6-3.7,2.6-9.6h47.6c0,3.6-0.8,9.5-0.8,9.5h5.4c1.7-4.8,2-14.6,2-14.6l-6.8,0.6H79.7z M298.6,301.5v5.7h-8.4v27.7
			l6.6-2.2h9.7l6.6,2.2v-28.3l-6.8,0.6h-1.6v-5.7H298.6z M306.6,328.1h-9.7v-6h9.7V328.1z M306.6,311.6v6h-9.7v-6H306.6z
			 M372.1,291.1h-8.8c-1.1,8-8.4,15-15.1,17.1v3.5C356.7,310.6,370.1,302.7,372.1,291.1z M411.1,296h-32.9v4.5h32.9V296z
			 M147.2,349.2c0,1.7-1.1,3-6.6,3l2.8,7.1c0,0,10.9-1.7,10.9-7.9c0-0.9,0-1.6,0-2.1v-2.1v0v-21.7h-7.1V349.2z M101.2,321.3v-4.5
			H70.1c0.7-3.4,1-6.8,0.7-10h-8c0.2,3.5,0,6.8-0.5,10H47v4.5h14.5c-3.4,14.4-12.7,25.2-21.6,32.4h5.9c7.3-3.8,18.6-17.9,23.2-32.4
			H101.2z M306,343.9v3.1c0,0,12.2,11.2,28,11.2v-7.7C331.9,350.5,318.2,351.4,306,343.9z M333.1,338.2h-28.3V335h-6.2v3.2H270v4.5
			h20.9c-1.4,1.6-8.9,9.8-22.6,13.1v2.4c0,0,18.5-0.6,30.4-12.7v13.6h6.2v-16.5h28.3V338.2z M331.2,323.7l-2.2,1.1
			c0,0,0.3,1,0.5,2.5l-4.9,0.7c7.8-6.1,8.9-17.3,8.9-17.3h-7.7c-0.2,2.5-0.6,4.8-1.2,6.7h-2.7c2.6-5.4,3.7-12.2,3.7-12.2H318
			c0,9.4-3.3,17.9-3.3,17.9h2.8c0.5-0.3,1-0.7,1.5-1.2h3.9c-1.9,3.7-4.3,6-5.6,7.1l-2.8,0.4l0.6,4.4l14.9-2c0,0.7,0,1.3-0.1,2h5.4
			C335.2,333.8,335.6,327.5,331.2,323.7z M156,340.2v3.2c6.5,11.8,19.1,12.7,19.1,12.7v-7.4C161.4,347.6,156,340.2,156,340.2z
			 M366.1,306.6c-2.3,9.8-10.9,19.1-17.9,22.2v3.5c3.9-0.9,8-2.7,11.9-5.3v32.2h6.7v-37.9c3.9-4.1,6.9-9,8.2-14.8H366.1z
			 M374.2,315.4v4.5h23.9v29.3c0,1.7-1.1,3-6.6,3l2.8,7.1c0,0,10.9-1.7,10.9-7.9c0-0.9,0-1.6,0-2.1v-2.1v0v-27.2h9.8v-4.5H374.2z
			 M167.9,331.9h-6.2c0,6.6-2.2,8.8-2.2,8.8h2.8C167.9,338.4,167.9,331.9,167.9,331.9z M271,329l-2.8,0.4l0.6,4.4l14.9-2
			c0,0.7,0,1.3-0.1,2h5.4c0,0,0.4-6.2-4-10.1l-2.2,1.1c0,0,0.3,1,0.5,2.5l-4.9,0.7c7.8-6.1,8.9-17.3,8.9-17.3h-7.7
			c-0.2,2.5-0.6,4.8-1.2,6.7h-2.7c2.6-5.4,3.7-12.2,3.7-12.2h-7.7c0,9.4-3.3,17.9-3.3,17.9h2.8c0.5-0.3,1-0.7,1.5-1.2h3.9
			C274.7,325.6,272.4,327.9,271,329z M168.7,320.3h13.7v-4.5h-17.1c-1.1-1.6-2.2-3.3-3.2-5.1h15.7v-4.5h-29.1
			c0.8-1.7,1.5-3.4,2.1-5.1h27v-4.5h-25.7c0.5-2.5,0.7-5,0.5-7.4h-8c0.1,2.6,0,5-0.4,7.4h-20.6v4.5h19.6c-0.5,1.7-1.1,3.4-1.7,5.1
			h-17.9v4.5h15.7c-1,1.8-2,3.5-3.1,5.1h-17.1v4.5h13.7c-5.3,6.4-11.5,11.7-16.6,15.8h5.9c4.4-2.2,11.3-8.2,17.4-15.8H162
			c6.1,7.5,13,13.5,17.4,15.8h5.9C180.3,332,174.1,326.7,168.7,320.3z M143,315.8c1.2-1.7,2.3-3.4,3.3-5.1h8.9
			c1,1.7,2.2,3.4,3.3,5.1H143z M228.2,305.4v-14.6h-6.7v14.6h-24.1v31.9l6.6-2.2v-1.6h17.5v25.8h6.7v-25.8h17.5v1.6l6.6,2.2v-32.5
			l-6.8,0.6H228.2z M221.5,328.9h-17.5v-19.1h17.5V328.9z M245.8,328.9h-17.5v-19.1h17.5V328.9z"/>
	</g>
	<g>
		<path class="st1" d="M279.6,175.5c0-0.6,0.1-1.2,0-1.9c0-0.9-0.2-1.8-0.2-2.7c0-0.5,0-1-0.1-1.5c-0.1-0.7-0.4-1.4-0.4-2.1
			c-0.1-1.9-0.7-3.8-1.2-5.6c0-0.2-0.1-0.3-0.2-0.5c-0.4-1.3-0.7-2.7-1.1-4c-0.3-0.9-0.7-1.8-1.1-2.6c-0.3-0.7-0.6-1.5-1-2.2
			c-0.5-1-1.1-2-1.6-3c-0.2-0.4-0.4-0.9-0.7-1.3c-0.6-0.9-1.2-1.7-1.8-2.6c0,0-0.1-0.1-0.1-0.1c-0.4-0.6-0.9-1.2-1.3-1.8
			c-0.1-0.2-0.3-0.3-0.3-0.4c-0.1-0.5-0.5-0.8-1-1.1c-0.4-0.2-0.5-0.5-0.4-0.9c0.2-0.5,0.5-0.9,0.8-1.4c0.2-0.4,0.4-0.9,0.7-1.4
			c0.1-0.3,0.2-0.6,0.3-0.8c0.6-0.9,1.3-1.8,1.9-2.7c0.3-0.4,0.4-0.8,0.6-1.2c0.1-0.2,0.2-0.5,0.4-0.5c0.6,0,0.6-0.4,0.7-0.8
			c0-0.3,0.2-0.5,0.3-0.8c0.3-0.7,0.8-1.4,1-2.1c0.2-1,0.8-1.8,1.2-2.6c0.6-1.5,1.2-2.9,1.6-4.4c0.3-0.9,0.4-1.8,0.7-2.7
			c0.2-0.6,0.3-1.2,0.5-1.8c0.2-1,0.3-2,0.5-3c0.2-1.5,0.5-2.9,0.6-4.4c0.1-0.9,0-1.7,0-2.6c0-0.6-0.1-1.1-0.1-1.7
			c0-0.9,0.1-1.8,0-2.7c-0.1-1-0.2-2-0.3-3c-0.1-0.7-0.2-1.4-0.3-2.1c-0.1-0.8-0.3-1.6-0.5-2.4c-0.2-1-0.5-2-0.8-3
			c-0.2-0.9-0.5-1.8-0.8-2.7c-0.2-0.5-0.4-1.1-0.6-1.6c-0.3-0.7-0.8-1.4-1-2.2c-0.5-1.6-1.5-3.1-2.3-4.6c-0.8-1.5-1.7-2.8-2.6-4.2
			c-0.6-0.9-1.4-1.8-2.1-2.7c-0.5-0.6-1-1.1-1.4-1.6c-0.6-0.6-1.1-1.2-1.7-1.8c-0.4-0.5-0.8-1-1.3-1.5c-1.1-1-2.1-1.9-3.3-2.8
			c-1.1-0.9-2.3-1.7-3.4-2.6c-1-0.7-1.9-1.3-2.9-2c-0.2-0.1-0.3-0.2-0.5-0.2c-0.7-0.3-1.5-0.6-2.2-1c-0.8-0.4-1.5-0.8-2.2-1.2
			c-0.5-0.3-1.1-0.4-1.7-0.6c-1.1-0.4-2.2-0.9-3.4-1.1c-0.3,0-0.7-0.2-1-0.3c-0.5-0.2-0.9-0.5-1.4-0.6c-0.7-0.2-1.4-0.2-2.1-0.4
			c-1-0.2-2-0.5-3-0.6c-1.2-0.2-2.4-0.3-3.5-0.4c-0.5-0.1-1-0.2-1.4-0.2c-0.4,0-0.8,0-1.2,0c-0.3,0-0.7-0.3-1,0.1c0,0-0.1,0-0.2,0
			c-0.9-0.1-1.9-0.2-2.8-0.2c-0.9,0-1.8,0-2.8,0.1c-1.5,0.2-3,0.5-4.4,0.7c-0.6,0.1-1.1,0.2-1.7,0.4c-0.2,0.1-0.5,0.2-0.7,0.3
			c0,0,0,0,0-0.1c-0.1,0-0.3,0-0.4,0c-1,0.3-2.1,0.5-3.1,0.8c-0.8,0.2-1.5,0.5-2.3,0.8c-1.2,0.4-2.4,0.9-3.6,1.4
			c-0.6,0.2-1.1,0.6-1.7,0.9c-1.2,0.6-2.5,1.1-3.6,1.8c-1.3,0.9-2.6,1.6-3.8,2.5c-0.8,0.6-1.6,1.2-2.4,1.8c-0.8,0.6-1.6,1.2-2.3,1.9
			c-0.8,0.8-1.6,1.6-2.4,2.4c-0.6,0.6-1.2,1.2-1.7,1.8c-0.5,0.6-1,1.2-1.4,1.8c-0.8,1-1.7,2-2.4,3.1c-1,1.5-1.9,3-2.8,4.5
			c-0.7,1.3-1.4,2.7-2,4.1c-0.6,1.4-1.2,2.8-1.7,4.2c-0.3,0.9-0.5,1.8-0.8,2.7c-0.7,2-1.3,4.1-1.3,6.3c0,0.1-0.1,0.2-0.1,0.3
			c-0.1,0.4-0.2,0.7-0.2,1.1c-0.1,1.2-0.2,2.4-0.3,3.5c0,0.5-0.2,1-0.2,1.5c0,1.7,0.1,3.3,0.3,5c0.5,6.1,1.9,11.2,4.3,16.8
			c0.4,0.9,0.8,1.9,1.3,2.8c0.4,0.8,0.7,1.6,1.2,2.3c0.4,0.6,0.8,1.2,1.2,1.8c0.6,0.9,1.2,1.7,1.8,2.6c0.2,0.3,0.5,0.5,0.7,0.8
			c0.4,0.7,0.7,1.4,1.4,1.9c0.1,0,0.1,0.1,0.1,0.2c0,0.2,0.1,0.5,0,0.7c-0.4,0.7-0.9,1.4-1.4,2.1c-1,1.4-2,2.8-3,4.3
			c-0.7,1-1.5,2.1-2.1,3.2c-0.7,1.2-1.2,2.6-1.7,3.9c-0.1,0.2-0.2,0.4-0.3,0.6c-0.2,0.6-0.4,1.3-0.6,1.9c-0.2,0.7-0.3,1.3-0.8,1.8
			c0,0,0,0.1,0,0.1c-0.1,0.6-0.3,1.3-0.4,1.9c-0.1,0.6-0.3,1.1-0.4,1.7c-0.2,0.8-0.4,1.7-0.7,2.5c-0.1,0.4-0.4,0.9-0.2,1.3
			c0,0.1,0,0.1-0.1,0.2c0,0.2-0.1,0.4-0.1,0.6c0,0.3,0,0.6,0,0.9c-0.2,1.1-0.4,2.1-0.5,3.2c-0.1,0.7-0.2,1.4-0.1,2.1
			c0.1,0.4,0.1,0.8,0.1,1.2c-0.1,0.6,0,1.3,0,1.9c0,0.2,0.2,0.4,0.2,0.6c0,0.2,0,0.4,0,0.6c0,0.1-0.1,0.2-0.1,0.3
			c0.1,1,0.1,2.1,0.2,3.1c0.1,1.1,0.3,2.1,0.5,3.2c0,0.2,0.1,0.3,0.1,0.5c0.1,0.4,0.2,0.8,0.3,1.1c0.2,0.9,0.4,1.8,0.6,2.7
			c0.1,0.3,0.2,0.7,0.3,1c0.1,0.3,0.1,0.6,0.2,0.8c0.4,0.9,0.7,1.8,1.1,2.6c0.1,0.1,0.1,0.3,0.1,0.4c0.2,0.6,0.3,1.3,0.6,1.8
			c0.6,1,1.1,2.1,1.5,3.2c0.1,0.3,0.4,0.6,0.5,0.9c0.6,1,1.1,2,1.7,3c0.5,0.9,1.1,1.7,1.6,2.5c0.2,0.3,0.3,0.6,0.5,0.8
			c0.3,0.4,0.7,0.8,1.1,1.2c0.7,0.8,1.3,1.6,1.9,2.4c0.3,0.4,0.8,0.6,1.1,1c0.8,1.3,2,2.1,3,3.2c0.7,0.1,1,0.6,1.4,1.1
			c0.1,0.2,0.3,0.3,0.5,0.5c1.1,0.9,2.3,1.7,3.3,2.8c0.4,0.4,0.9,0.6,1.3,0.9c0.8,0.5,1.6,0.9,2.4,1.4c1.2,0.7,2.4,1.2,3.6,2
			c1.4,0.9,3.1,1.2,4.6,2c0.1,0,0.2,0.1,0.2,0.1c0.9,0.3,1.7,0.6,2.6,0.8c1.7,0.5,3.5,0.9,5.2,1.4c0.3,0.1,0.5,0.1,0.8,0.1
			c1,0.2,2.1,0.4,3.1,0.6c0.5,0.1,0.9,0,1.4,0c1.1,0.1,2.3,0.2,3.4,0.3c0.8,0,1.5,0,2.3-0.1c0.4,0,0.8,0,1.2-0.1
			c0.8,0,1.5-0.1,2.3-0.1c0.4,0,0.8,0.1,1.2,0c1.3-0.2,2.7-0.4,4-0.7c0.9-0.1,1.7-0.3,2.6-0.5c1.6-0.4,3.1-0.8,4.7-1.4
			c1.5-0.5,3.1-1,4.5-1.8c1.3-0.6,2.7-0.9,3.8-1.9c0,0,0.1-0.1,0.2-0.1c1-0.6,2.1-1.1,3.1-1.7c0.9-0.6,1.7-1.2,2.5-1.8
			c0.9-0.7,1.8-1.5,2.8-2.3c0.3-0.3,0.6-0.5,0.9-0.8c0.5-0.5,1.1-0.9,1.6-1.4c0.7-0.7,1.4-1.5,2.1-2.2c0.8-0.9,1.7-1.8,2.5-2.7
			c0.6-0.8,1.2-1.6,1.8-2.4c0.4-0.6,0.8-1.2,1.2-1.9c0.6-1,1.1-2,1.7-3c0.7-1.1,1.5-2.1,1.8-3.4c0.2-0.7,0.6-1.3,0.9-2
			c0.4-1.2,0.8-2.5,1.2-3.7c0.4-1.4,0.9-2.7,1.3-4.1c0.4-1.6,0.7-3.2,1-4.8c0.2-1.1,0.1-2.2,0.2-3.3c0.1-1,0.2-1.9,0.3-2.9
			C279.7,176.5,279.6,176,279.6,175.5z M187.1,130.2c-1.2-0.5-1.5-1.5-2.1-2.4c-0.5-0.8-0.9-1.7-1.3-2.7c-0.2-0.5-0.3-1.2-0.5-1.7
			c-0.2-0.4-0.4-0.9-0.6-1.3c-0.3-0.8-0.6-1.6-0.9-2.4c-0.2-0.7-0.5-1.5-0.7-2.2c-0.3-1.2-0.7-2.3-0.7-3.5c0-0.5-0.2-1-0.3-1.5
			c-0.1-0.3-0.2-0.7-0.1-1c0.3-1.1,0.1-2.1-0.2-3.2c0-0.2,0-0.3,0-0.5c0.1-0.7,0.2-1.3,0.3-2c0-0.4,0-0.8,0-1.2c0-0.1,0-0.2,0-0.2
			c-0.4-1,0-1.9,0-2.8c0-0.1,0-0.1,0-0.2c-0.2-0.7,0.2-1.4,0.3-2c0.1-0.4,0.1-0.9,0.1-1.3c0.2-0.9,0.2-1.9,0.7-2.8
			c0.2-0.4,0.3-0.8,0.4-1.3c0.3-0.8,0.6-1.6,0.8-2.5c0.1-0.4,0.3-0.9,0.5-1.3c0.4-1,0.7-2.1,1.2-3.1c0.2-0.5,0.6-1,0.9-1.5
			c0.2-0.4,0.4-0.7,0.6-1.1c0.1-0.2,0.3-0.4,0.5-0.7c0.5-0.7,0.9-1.4,1.3-2.1c0.3-0.6,0.5-1.2,0.8-1.8c0.1-0.2,0.3-0.3,0.4-0.5
			c0.5-0.5,1.1-1,1.3-1.8c0-0.1,0.1-0.2,0.2-0.3c0.7-0.7,1.5-1.4,2.2-2.2c0.3-0.4,0.6-0.8,0.9-1.1c0.1-0.1,0.1-0.2,0.2-0.2
			c0.5-0.5,1-1,1.5-1.5c0.8-0.7,1.6-1.3,2.4-2c0.7-0.5,1.3-1.1,2-1.6c0.2-0.1,0.4-0.3,0.5-0.4c0.2-0.1,0.3-0.3,0.5-0.5
			c0.2-0.2,0.5-0.3,0.7-0.4c1.4-0.8,2.8-1.6,4.2-2.4c0.6-0.3,1.3-0.5,1.9-0.8c0,0,0.1,0,0.1-0.1c1.1-0.8,2.4-1.2,3.6-1.7
			c0.6-0.2,1.3-0.4,2-0.6c1-0.3,2-0.5,2.8-1c1-0.5,2-0.4,3-0.6c0.7-0.1,1.3-0.3,2-0.4c0.4-0.1,0.9-0.1,1.3-0.1c0.4,0,0.8,0,1.2,0
			c0.1,0,0.1,0,0.2,0c0.5-0.3,1-0.3,1.6-0.3c0.9,0,1.8,0,2.7,0c0.3,0,0.5,0.1,0.8,0.1c1.6-0.2,3.1,0.1,4.6,0.3
			c0.4,0,0.8,0.1,1.2,0.1c0.7,0.1,1.5,0.2,2.2,0.4c1.3,0.3,2.6,0.8,3.9,0.9c0.9,0.1,1.7,0.5,2.5,0.7c0.8,0.2,1.6,0.8,2.4,1.1
			c0.7,0.3,1.5,0.6,2.2,0.9c0.5,0.2,1.1,0.5,1.6,0.8c0.3,0.2,0.7,0.3,1,0.5c0.1,0.1,0.3,0.1,0.3,0.1c0.6,0.7,1.5,0.9,2.3,1.3
			c0.5,0.3,0.9,0.7,1.3,1c0.5,0.4,1.1,0.7,1.6,1.1c0.8,0.7,1.6,1.4,2.4,2.1c0.1,0.1,0.2,0.2,0.3,0.3c0.6,0.2,1,0.7,1.4,1.1
			c1.3,1.4,2.6,2.7,3.8,4.1c0.4,0.5,1,1,1.4,1.6c0.6,0.9,1.1,1.9,1.7,2.8c0.2,0.3,0.5,0.6,0.8,0.9c0.4,0.5,0.8,0.9,1.1,1.4
			c0.4,0.7,0.8,1.5,1.1,2.2c0.4,0.8,0.8,1.5,1.2,2.3c0.2,0.4,0.3,0.9,0.5,1.3c0,0.1,0.1,0.3,0.2,0.4c0.4,1,0.9,2,1.2,3.1
			c0.3,1,0.5,2,0.6,3c0.2,1.3,0.4,2.6,0.6,3.9c0.1,0.3,0.2,0.6,0.2,0.9c0.1,0.9,0.2,1.8,0.4,2.7c0.2,1.2,0.1,2.3,0.1,3.5
			c0,0.9,0,1.9,0,2.8c0,0.8-0.2,1.6-0.3,2.4c-0.1,0.7-0.2,1.3-0.3,2c-0.1,0.3-0.2,0.6-0.3,1c-0.2,1.2-0.5,2.4-0.7,3.5
			c0,0.1-0.1,0.2-0.1,0.3c-0.1,0.5-0.3,0.9-0.4,1.4c-0.1,0.5-0.3,1-0.5,1.4c-0.3,0.9-0.6,1.7-0.9,2.6c-0.1,0.2-0.1,0.5-0.2,0.7
			c-0.7,1.3-1.4,2.7-2.1,4c-0.6,1.1-0.8,1.5-1.9,2.1c-0.3,0.2-2.7,1.1-2.8,1.3c0-0.1,0.1-0.3,0.1-0.4c-0.9,0.3-1.8,0.1-2.7-0.1
			c-0.6-0.1-1.1-0.3-1.7-0.4c-0.3-0.1-0.6-0.1-0.9-0.2c-2.2-0.5-4.4-1.1-6.7-1.5c-1.1-0.2-1.9-0.7-2.8-1.2c-0.8-0.5-1.8-0.8-2.8-1.3
			c-0.2-0.1-0.4-0.3-0.6-0.4c-0.4-0.3-0.8-0.5-1.2-0.9c-0.6-0.5-1.2-1-1.8-1.5c-1.3-1.3-2.7-2.6-3.9-4c-0.4-0.4-0.6-0.9-0.8-1.4
			c-0.5-0.9-1.1-1.8-1.7-2.7c-0.5-0.8-1.2-1.5-1.7-2.2c-0.1-0.1-0.1-0.3,0-0.4c0.2-0.5,0.4-0.9,0.2-1.4c-0.2-0.6-0.3-1.3-0.3-1.9
			c-0.1-1.4-1.3-1.9-2.4-1.9c-0.6,0-1.3,0.5-1.5,1.1c-0.2,0.6-0.6,1.2-0.8,1.8c-0.3,0.6-0.7,1.2-0.9,1.9c-0.1,0.2,0.1,0.5,0,0.7
			c-0.1,0.3-0.2,0.4-0.3,0.6c-0.2,0.6-0.5,1.1-0.7,1.6c0,0.1-0.1,0.2-0.1,0.2c-0.4,0.7-0.5,1.4-0.6,2.2c-0.3,1.4-1.2,2.2-2.3,3
			c-0.5,0.4-0.9,0.8-1.3,1.3c-0.3,0.5-0.8,0.8-1.2,1.2c-0.2,0.2-0.4,0.4-0.6,0.5c-0.5,0.3-0.9,0.6-1.4,0.9c-0.7,0.4-1.3,0.8-2,1.2
			c-0.1,0.1-0.3,0.2-0.4,0.2c-0.8,0.1-1.3,0.7-1.5,1.4c-0.2,0.8,0.2,1.8,1,2.1c0.8,0.3,1.7,0.7,2.6,0.1c0.1-0.1,0.2-0.2,0.4-0.2
			c1-0.1,1.8-0.7,2.6-1.3c0.9-0.7,1.9-0.8,3-1c1-0.2,2.1-0.3,3.1-0.4c0.2,0,0.6,0,0.8,0.2c0.5,0.5,1.1,0.5,1.7,0.3
			c0.7-0.2,1.4-0.1,2.1,0c0.9,0.1,1.7,0.2,2.6,0.5c1.3,0.5,3-0.1,4.4,0.1c1.8,0.3,3.6,0.9,5.3,1.6c0.4,0.1,0.7,0.3,1.1,0.4
			c0.3,0.1,0.6,0.2,0.9,0.3c1.3,0.5,2.3,1.3,3.6,1.8c1.1,0.4,2.3,0.8,3.5,1.1c1.7,0.5,4.2,1,5.4,2.4c1.5,1.8-1,4.8-2.4,6
			c-0.6,0.5-1.1,1.1-1.7,1.7c0,0-0.1,0.1-0.1,0.2c-0.9,0.6-1.8,1.3-2.7,1.9c-0.7,0.5-1.4,1-2.1,1.5c-0.6,0.4-1.2,0.7-1.7,1.1
			c-1,0.9-2.2,1.4-3.2,2.2c-0.2,0.1-0.4,0.2-0.6,0.3c-0.2,0.1-0.3,0.1-0.4,0.2c-0.2,0.3-0.5,0.3-0.9,0.4c-0.8,0.1-1.6,0.3-2.4,0.5
			c-0.8,0-1.7,0.6-2.5,0.8c-1,0.3-2.1,0.2-3.1,0.3c-1,0.1-2.1,0.1-3.1,0.1c-1.6-0.1-3.1-0.5-3.2-2.4c0-1.3,0.2-2.4,0.4-3.7
			c0.2-0.9,0.3-1.9,0.1-2.9c-0.1-0.2-0.1-0.4-0.3-0.6c-0.1-0.1-0.2-0.2-0.4-0.2c-0.5-0.3-1.1-0.6-1.6-0.8c-1.3-0.7-3.6-1.5-4.5,0.3
			c-0.2,0.4-0.4,1-0.3,1.4c0.3,1.1,0.9,2,1.3,3.1c0.6,1.7,0.6,4.8-1.5,5.4c-0.5,0.2-1.1,0.1-1.6,0.1c-1-0.1-2.1-0.2-3.1-0.3
			c-1.7-0.1-3.2,0.1-4.8-0.5c-0.8-0.3-1.5-0.8-2.3-0.9c-0.7-0.1-1.4-0.4-2.1-0.5c-0.3-0.1-0.6-0.3-0.9-0.5c-0.6-0.3-1.2-0.7-1.8-1
			c-0.2-0.1-0.5-0.2-0.6-0.4c-0.4-0.7-1.1-0.8-1.8-1.2c-0.6-0.3-1.1-0.7-1.6-1.1c-0.1,0-0.1-0.1-0.2-0.2c-0.5-0.3-1.1-0.6-1.4-1.1
			c-0.8-0.8-1.9-1.1-2.8-1.7c-0.1-0.1-0.2-0.2-0.3-0.3c-0.1-0.2-0.2-0.5-0.3-0.6c-0.5-0.2-0.7-0.6-1-1c-0.4-0.7-1-1.1-1.7-1.5
			c-0.5-0.3-0.8-0.6-1.1-1.2c-0.2-0.6-0.7-1-1.1-1.5c-0.1-0.2-0.3-0.4-0.4-0.6c0.3-0.1,0.5-0.3,0.8-0.3c0.8,0,1.6,0,2.5,0
			c0.3,0,0.6,0,1,0c0.5,0,0.9-0.1,1.3-0.5c0-0.1,0.2-0.1,0.2-0.1c1,0.2,1.6-0.5,2.4-0.9c1-0.5,2-1,2.9-1.5c0.2-0.1,0.4-0.1,0.5-0.3
			c0.8-0.9,1.9-1.6,2.6-2.8c0.3-0.5,0.9-0.8,1.3-1.2c0,0,0.1-0.1,0.1-0.1c0.3-1,1.2-1.4,1.9-2c0.6-0.5,1.1-1.1,1.6-1.6
			c0.7-0.7,1.3-1.5,2-2.2c0.2-0.2,0.3-0.4,0.5-0.5c0.8-0.9,1.5-1.8,2.3-2.6c0.5-0.5,1-1,1.3-1.7c0.3-0.7,0.9-1.2,1.3-1.8
			c0.3-0.4,0.5-0.8,0.8-1.2c0.1-0.2,0.2-0.5,0.4-0.7c0.7-0.7,1.1-1.6,1.5-2.5c0.1-0.1,0.2-0.3,0.3-0.4c0.1-0.1,0.2-0.3,0.3-0.5
			c0.3-0.8,0.5-1.7,1.1-2.3c0.1-0.1,0.1-0.2,0.1-0.4c0-0.2,0-0.4,0.2-0.5c0.7-0.6,0.8-1.5,1.1-2.3c0.4-0.8,0.8-1.5,1.1-2.3
			c0.3-0.7,0.5-1.4,0.7-2.2c0.2-0.8,0.5-1.5,0.8-2.3c0-0.1,0.2-0.2,0.3-0.2c0.6,0,1.1,0.1,1.7,0.1c1,0,1.9-0.1,2.9-0.1
			c0.3,0,0.7,0.1,1,0.1c0.1,0,0.4,0.2,0.4,0.1c0.7-0.6,1.6,0.3,2.3-0.3c1-0.7,1.4,0.3,2.3,0.2c1.2-0.1,2.4-0.5,3.7-0.5
			c0.6,0,1.2,0,1.8,0.1c0.6,0.1,0.9,0.3,1.4,0.3c0.3,0,0.5-0.1,0.8-0.1c1.1-0.4,4.3-0.3,4.9,0.3c1.4,1.5,1.1,4.1,1.4,6
			c0.1,0.3,0.1,0.7,0.2,1c0.1,0.5,0.2,0.9,0.3,1.4c0.1,0.2,0.1,0.5,0.3,0.7c0.2,0.3,0.6,0.6,0.9,0.7c0.5,0.2,1,0.5,1.5,0.6
			c0.3,0.1,0.7,0.2,0.9,0c1-0.8-0.2-3.3-0.1-4.3c0-0.1,0-0.3,0-0.4c0-0.1-0.1-0.3-0.1-0.4c-0.1-0.2-0.1-0.3-0.1-0.5
			c0-0.4,0-0.8,0.1-1.3c0-0.4,0.1-0.7,0.1-1.1c0.1-2.5-0.3-5-0.1-7.5c0.1-1.7,0.5-3.6,0.9-5.3c0-0.2,0.1-0.4,0.1-0.6
			c0-0.2-0.1-0.5-0.1-0.7c0-0.5,0.4-0.9,0.5-1.4c0-0.2,0-0.4,0-0.5c0.1-1.6,1.6-3.2,1.3-4.7c-0.1-0.4-0.3-0.7-0.5-1
			c-0.4-0.7-0.8-1.4-1.4-1.9c-0.8-0.8-2-1.1-3.2-1c-0.5,0.1-1,0.2-1.5,0.4c-1.3,0.5-2.4,1.3-3.6,1.7c-1.3,0.4-2.7,0.6-4.1,0.6
			c-2.8,0.1-5.6,0-8.4,0.1c-1.4,0-1.6-0.3-3-0.2c-0.7,0.1-1.4,0.2-2.1,0.3c-0.1,0-0.6,0.2-0.7,0.2c-0.2-0.1-0.1-0.3-0.3-0.4
			c-0.1,0-0.1,0-0.2,0c0,0-0.1,0-0.1-0.1c-0.3-0.2,0-1.1,0.1-1.3c0.1-0.6,0.3-1.2,0.5-1.9c0.2-0.8,0-1.6,0.5-2.4
			c0.4-0.6,0.4-1.4,0.6-2.2c0.2-1,0-1.5-0.9-1.9c-0.5-0.3-1-0.5-1.6-0.7c-0.4-0.2-0.8-0.3-1.2-0.4c-0.6-0.2-1.3,0-1.7,0.4
			c-0.4,0.4-0.7,0.6-1.2,0.8c-0.1,0.1-0.4,0.4-0.3,0.4c0.3,0.6,0.1,1.2,0.1,1.8c-0.1,1.1,0.6,1.9,0.9,2.9c0.2,0.9,0.6,1.8,0.4,2.8
			c-0.2,0.8,0.2,1.3-0.4,1.9c-0.8,0.8-2.1,0.3-3.1,0.5c-0.2,0-0.4,0-0.6,0c-3.2,0.1-6.4,0.3-9.5,0c-3.3-0.3-7.3-1-10.3-2.4
			c-0.3-0.1-0.6-0.3-0.9-0.3c-0.3,0-0.6,0-0.9,0.1c-0.9,0.2-1.7,0.4-2.6,0.6c-0.2,0-0.4,0.1-0.6,0.2c-0.2,0.1-0.4,0.3-0.6,0.5
			c-1.2,1.5-1.6,2.1-0.6,3.6c1,1.5,1.4,2.8,1.6,4.6c0.6,4.9,0.8,9.8,1.2,14.8c0.2,2.1,0.3,4.4-0.6,6.3c-0.1,0.2-0.2,0.4-0.2,0.6
			c0,0.4,0.4,0.6,0.7,0.7c0.4,0,0.7-0.1,1.1-0.2c0.4-0.2,0.9-0.4,1.3-0.7c1-0.8,1.3-2.3,1.4-3.7c0.3-3.1-0.2-6,0.1-9.1
			c0.1-1,0.4-2.2,0.2-3.2c0-0.1-0.1-0.3-0.1-0.4c0-0.3,0.2-0.6,0.2-0.9c0-0.3-0.1-0.7-0.1-1c0-0.6,0-1.1,0-1.7
			c0.3-1.6,1.4-3,2.8-3.9c1.7-1,3.2-0.8,5.1-0.8c1.5,0,3-0.3,4.5-0.4c1.5-0.1,2.9,0.1,4.3-0.1c1.1-0.1,2.7-0.1,3.4-0.1
			c0.7,0,1.4-0.3,2.1,0c0.1,0,0.2,0,0.3,0c0.5,0,0.9,0,1.4,0c0.2,0,0.5,0.1,0.7,0.1c0.9-0.1,2-0.4,3-0.4c0.9,0,1.7,0.3,2.6,0.3
			c2.1,0,4.1,0,6.2,0.1c0.2,0,0.4,0,0.6,0.1c0.2,0,0.3,0.1,0.5,0.2c0.2,0.1,0.5,0,0.7,0c1.6-0.1,3.2-0.2,4.8-0.1
			c0.5,0,1,0.2,1.5,0.3c3.1,1.2,4.7,5.9,2.6,8.7c-1.1,1.4-3.1,1.5-4.7,1.5c-1.7,0.1-3.4,0.6-5.1,0.4c-0.1,0-0.3,0-0.4,0.1
			c-0.6,0.6-1.3,0.4-2,0.5c-1,0.3-2,0.4-3.1,0.6c-0.7,0.1-1.4,0.1-2.1,0.1c-0.5,0-2.8,0.3-3.1-0.1c-0.3-0.3,0.1-1.4,0-1.9
			c-0.1-1.3-1.3-4-2.9-4.1c-0.4,0-0.9,0.1-1.3,0.3c-0.1,0-0.2,0.1-0.3,0.2c-0.2,0.1-0.2,0.3-0.3,0.5c-0.1,0.4-0.2,0.7-0.3,1.1
			c0,0.9,0.2,1.5,0.4,2.4c0.1,0.6,0.3,1.6-0.4,1.8c-0.9,0.3-1.8,0.1-2.8,0c-1.2-0.1-2.1-0.8-3.2-1c-0.8-0.2-1.6-0.5-2.5-0.3
			c-0.2,0-0.4,0-0.6-0.1c-1.1-0.5-2.3-0.6-3.4-0.8c-0.2,0-0.4-0.1-0.6-0.1c-0.4,0-0.7,0.2-1,0.4c-1,0.5-2,1.1-3,1.8
			c-0.2,0.1-0.3,0.2-0.4,0.4c-0.1,0.2-0.1,0.3-0.1,0.5c-0.1,0.8-1.1,1.8-0.2,2.3c0.6,0.4,2.6-0.1,3.3,0c1,0.1,2,0.4,3,0.1
			c1.1-0.3,1.5-0.1,2.6,0c0.3,0,0.7,0,1,0c0.3,0,0.6,0,0.9,0c0.9,0.1,1.9,0.1,2.8-0.1c0.7-0.1,1.3-0.2,2-0.3c0.1,0,0.2,0,0.4,0
			c0.5,0,1,0,1.5,0.1c0.3,0,0.5,0.1,0.7,0.4c0.1,0.4-0.1,0.4-0.3,0.6c-0.3,0.4-0.4,0.9-0.6,1.4c0,0.1-0.1,0.3-0.1,0.4
			c0.2,1-0.5,1.7-0.9,2.5c-0.1,0.1-0.1,0.3-0.1,0.5c-0.1,0.2-0.1,0.4-0.2,0.6c-0.6,0.6-0.8,1.3-0.9,2.1c0,0,0,0,0,0.1
			c-0.3,0.6-0.7,1.2-1,1.8c-0.3,0.5-0.5,0.9-0.8,1.4c-0.2,0.4-0.5,0.7-0.7,1.1c-0.3,0.5-0.5,1-0.7,1.4c0,0.1-0.1,0.2-0.2,0.3
			c-0.7,0.5-1,1.1-1.4,1.8c-0.3,0.5-0.8,0.8-1.3,1.2c-0.3,0.3-0.5,0.6-0.8,0.9c-0.5,0.8-1,1.7-1.6,2.5c-0.5,0.7-1,1.3-1.6,1.9
			c-0.5,0.5-1.1,0.8-1.7,1.2c-0.1,0-0.1,0.1-0.2,0.1c-0.9,1.1-2.3,1.4-3.5,2.2c-0.6,0.4-1.2,0.8-1.9,1.2c-0.2,0.1-0.5,0.3-0.7,0.3
			c-0.7,0.1-1.3,0.4-1.8,0.9c-0.1,0.1-0.2,0.2-0.3,0.2c-1.5,0.5-3.1,0.9-4.6,1.4c-0.4,0.1-0.7,0.3-1.1,0.4c-0.4,0.1-0.7,0.1-1.1,0
			c-1-0.2-1.9,0.2-2.9,0.3C189.8,130.7,188.5,130.8,187.1,130.2z M232.8,118.2c0,0.1,0.1,0.2,0.2,0.4c0.2,0.3,0.5,0.6,0.7,0.8
			c0.8,1.2,1.4,2.2,2.4,3.2c0.6,0.5,1.3,0.8,1.9,1.3c0.2,0.2,1.1,1.6,1,1.6c-2.6-0.9-4.9-0.6-7.6-0.8c-0.8-0.1-1.6-0.5-2.3-0.4
			c-0.6,0.1-1.2,0.4-1.8,0.5c-0.1,0-0.2,0-0.3-0.1c-0.2-0.2,0-0.5,0.2-0.7c0.5-0.5,1-1.1,1.4-1.6c1.2-1.6,1.8-3.4,3.1-4.9
			c0.3-0.3,0.7-0.7,1.1-0.4C232.5,116.8,232.8,118.2,232.8,118.2z M189.4,198.1c-0.3-0.1-0.5,0-0.8,0c-0.4,0-0.8-0.3-1.2-0.5
			c-0.5-0.3-1.1-0.5-1.6-0.9c-1.1-0.8-1-2.3-1.6-3.4c-0.2-0.4-0.5-0.8-0.6-1.3c-0.1-0.4-0.1-0.8-0.2-1.2c-0.1-0.4-0.3-0.9-0.6-1.3
			c-0.3-0.5-0.7-0.9-0.4-1.6c0.1-0.3,0-0.6-0.2-0.9c-0.4-0.7-0.5-1.5-0.4-2.3c0-0.1,0-0.2-0.1-0.3c-0.1-0.5-0.3-1.1-0.4-1.6
			c-0.1-0.7-0.2-1.4-0.2-2c-0.1-1.5-0.2-3-0.2-4.4c0-0.5-0.1-1-0.2-1.4c0-0.1,0-0.1,0-0.2c0.5-1.3,0.1-2.6,0.2-4
			c0-0.2,0.1-0.4,0.1-0.5c0.1-0.8,0.2-1.5,0.3-2.3c0.3-1.1,0.1-2.3,0.7-3.4c0.1-0.2,0.2-0.5,0.2-0.7c-0.1-0.7,0.3-1.3,0.4-1.9
			c0.2-0.8,0.4-1.5,0.6-2.3c0.2-0.6,0.4-1.1,0.7-1.7c0.3-0.7,0.7-1.5,1-2.2c0.3-0.6,0.6-1.1,0.8-1.7c0.3-0.6,0.5-1.2,0.9-1.7
			c0.2-0.4,0.5-0.8,0.8-1.2c0.1-0.2,0.3-0.3,0.3-0.5c0.1-0.4,0.2-0.7,0.6-0.9c0.1,0,0.2-0.2,0.2-0.2c-0.1-0.4,0.8-1.2,1-1.5
			c0.6-0.9,0.9-1.7,2-2.2c0.3-0.2,0.7-0.3,1-0.2c0.4,0.1,0.8,0.5,1.1,0.8c1.3,1.5,3.2,2.6,5,3.5c0.3,0.2,0.7,0.3,1,0.5
			c0.2,0.1,0.4,0.2,0.7,0.3c3.2,1.6,6.6,3.5,10,4.3c0.4,0.1,0.8,0.2,1.2,0.2c0.4,0.1,0.9,0.1,1.3,0.3c0.5,0.3,0.8,0.1,1.3,0.1
			c0.8,0,1.6,0.3,2.3,0.3c0.8,0,1.6,0.4,2.4,0.1c0.2-0.1,0.6,0.1,0.8,0.1c1,0.3,2.3,0.3,3.4,0.3c0.6,0,1.1-0.2,1.7,0
			c0.5,0.2,0.8,0.6,0.9,1.1c0.2,0.5,0.2,1,0.2,1.5c0,0.3,0,1.2,0,1.5c0,0.9-0.3,0.8-1,1.2c-0.2,0.1-0.4,0.3-0.6,0.5
			c0,0,0.1,0.1,0.1,0.1c-0.6,0.1-1.2,0.2-1.8,0.2c-2.9,0-5.6-0.3-8.5-0.8c-2.8-0.4-5.6-0.8-8.3-1.2c-0.6-0.1-1.3-0.2-1.9-0.1
			c-1.2,0.1-2.2,0.9-2.8,1.9c-0.2,0.3-0.3,0.7-0.2,1.1c0.1,0.4,0.4,0.8,0.7,1c1.3,1,3.1,0.9,4.8,0.8c4-0.2,8.1,0.2,12.1,0.2
			c2.2,0,4.5,0,6.3,1.2c0.1,0.1,0.2,0.1,0.3,0.2c0.1,0.2,0.1-0.3,0.1-0.1c0,0.8,0.3,1.9,0,2.7c-0.2,0.8-0.9,1.4-1.2,2.2
			c-0.2,0.4-1,1-1.4,0.9c-0.7-0.1-1.3-0.3-2-0.4c-0.5-0.1-1.1-0.4-1.6-0.5c-0.7-0.2-1.3,0-2,0.2c-0.5,0.1-1,0.2-1.4,0.1
			c-0.6-0.1-1.1-0.1-1.7,0c-0.1,0-0.2,0.1-0.3,0c-0.8-0.1-1.5-0.2-2.3-0.3c-0.7-0.1-1.5-0.3-2.2-0.4c0,0-0.1,0-0.1,0
			c-0.7,0.6-1.4,0-2-0.1c-2.1-0.4-4.2-0.5-6.3-0.2c-0.1,0-0.2,0-0.3,0c-1-0.4-2.1,0-3.1-0.1c-0.5,0-1,0-1.5,0.2
			c-0.3,0.1-0.6,0.4-0.8,0.6c-0.8,1-2,2.2-1.6,3.7c0.1,0.4,0.3,0.7,0.6,1c0.4,0.3,0.9,0.4,1.4,0.5c3.2,0.4,5.9-0.5,8.9-1.2
			c0.9-0.2,1.5-0.5,2.4-0.5c0.5,0,1,0.3,1.4-0.1c0.8,0.3,1.7-0.2,2.5,0.3c0.4,0.3,1,0,1.4,0c-0.9,1.8-1.8,3.5-2.4,5.4
			c-0.4,1.6-0.9,3.4-2.4,4c0,0.7-0.4,1.3-0.7,1.9c-1.7,2.9-3.5,6-6.2,8c-2.6,1.9-5.7,2.9-8.8,3.6c-0.4,0.1-0.8,0.2-1.2,0
			C189.8,198.2,189.6,198.1,189.4,198.1z M265.9,203c-0.3,1.2-0.9,2.2-1.8,3.1c-0.4,0.4-0.6,0.9-0.9,1.3c-0.3,0.4-0.7,0.7-1.1,1.1
			c-0.4,0.4-0.9,0.8-1.3,1.2c-0.6,0.6-1.2,1.2-1.8,1.8c-0.7,0.6-1.5,1.2-2.3,1.7c-0.6,0.5-1.4,0.8-2,1.3c-0.6,0.6-1.4,1-2.2,1.4
			c-0.4,0.2-0.7,0.4-1,0.6c-0.5,0.3-0.9,0.7-1.4,1c-0.4,0.3-0.9,0.4-1.4,0.6c-0.6,0.3-1.2,0.6-1.9,0.8c-0.8,0.3-1.5,0.5-2.3,0.9
			c-1.4,0.7-2.9,1-4.5,1.4c-0.6,0.1-1.2,0.4-1.8,0.5c-0.6,0.1-1.2,0.2-1.9,0.4c-1.1,0.3-2.2,0.3-3.3,0.4c-1,0.1-2,0.2-3,0.2
			c-1.7,0-3.3,0.2-5-0.2c-0.4-0.1-0.7,0-1.1-0.1c-0.3,0-0.6-0.1-0.9-0.2c-0.1,0-0.3-0.1-0.4,0c-0.4,0.2-0.7,0.1-1.1-0.1
			c-0.2-0.1-0.5,0.1-0.7,0.1c-0.8-0.1-1.6-0.2-2.3-0.3c-0.5-0.1-1-0.1-1.5-0.5c-0.2-0.2-0.7-0.2-1-0.3c-0.9-0.3-1.8-0.5-2.6-0.9
			c-0.9-0.3-1.8-0.7-2.7-1c-0.7-0.2-1.3-0.7-1.9-1.1c-0.1-0.1-0.3-0.2-0.5-0.2c-1.3-0.4-2.6-0.9-3.9-1.3c-0.5-0.2-0.9-0.6-1.4-0.9
			c-0.2-0.2-0.5-0.3-0.7-0.4c-0.5-0.2-0.8-0.2-1.1-0.7c0,0-0.1-0.1-0.1-0.1c-2-1-3.5-2.6-5.3-3.9c-0.7-0.5-1.4-1.2-2.1-1.8
			c-0.4-0.4-0.7-0.9-1-1.3c0-0.1-0.1-0.2-0.1-0.2c-0.7-0.1-0.7-0.7-1-1.1c-0.4-0.6-1-1.2-1.4-1.9c-0.1-0.1-0.1-0.3-0.1-0.4
			c0.3-0.2,0.6-0.5,0.9-0.5c1.4,0.2,2.4-0.7,3.6-1.2c1.1-0.5,2.3-0.5,3.4-1.2c1-0.6,1.9-1.4,2.9-2.1c0.6-0.4,0.6-1.1,1.2-1.5
			c0.5-0.4,1.1-0.4,1.6-0.8c1-0.8,1.9-2.1,2.6-3.2c0.9-1.2,1.7-2.6,2.5-3.9c0.8-1.3,1.6-2.7,2.2-4.1c0.6-1.3,1-2.7,1.6-4
			c0.6-1.3,1.4-2.3,1.7-3.7c0.1-0.3,0.1-0.6,0.3-0.8c0.1-0.1,0.2-0.1,0.3-0.2c0.2-0.2,0.4-0.5,0.3-0.8c0.2-0.1,0.4-0.2,0.6-0.3
			c-0.1,0.2,0.1,0.4,0.3,0.4c0.2,0,0.4,0,0.6-0.1c1.2-0.3,2.6-0.3,3.8-0.2c1.2,0.1,2.5,0.6,3.7,0c0.1-0.1,0.3,0,0.4-0.1
			c0,0.1,0.1,0.3,0,0.4c-0.2,0.5-0.4,1.1-0.5,1.6c-0.1,0.5-0.2,1-0.3,1.5c0,0.6,0.1,1.1,0,1.7c0,0.6-0.1,1.1-0.2,1.7
			c0,0.3,0,0.6,0.1,0.9c0.2,0.7,0.4,1.3,0.5,2c0.1,0.2,0,0.5,0,0.7c0,0.6,0,1.1,0.1,1.7c0,0.5,0.2,1-0.1,1.4
			c-0.1,0.1-0.1,0.3-0.1,0.4c0.1,0.6,0.2,1.2,0.3,1.8c0,0.3-0.1,0.7,0.1,1c0.3,0.5,0.2,1.1,0.2,1.6c0,1,0.2,2.1,0,3
			c-0.1,0.8-0.5,1.5-0.6,2.3c-0.4,2.3,0.3,4.7,0,7c-0.1,1-0.4,2-0.5,3c-0.4,3,0.4,6.1,2.1,8.5c0.1,0.2,0.2,0.3,0.4,0.4
			c2.2,1.3,1.8-4.7,1.8-5.4c-0.1-1.6,0.2-3.4,0.3-5c0.1-1.9,0.2-3.8,0.3-5.7c0.1-1.2,0.1-2.4,0-3.5c-0.2-2.3-1-4.4-0.6-6.8
			c0.2-0.9-0.1-1.8,0.2-2.8c0.2-0.5,0-1.2,0.1-1.7c0-0.3,0.1-0.5,0.1-0.8c0-0.4,0-0.9-0.1-1.3c-0.1-1.1-0.2-2.3,0.2-3.4
			c0.1-0.4,0-0.9,0-1.3c-0.1-0.5-0.2-1,0.1-1.4c0.1-0.1,0-0.3-0.1-0.4c-0.4-0.7-1-2-0.4-2.6c0.9-1,4.5-0.3,5.7-0.3
			c0.9,0,1.8,0.2,2.6,0.5c0.5,0.2,1.2,0.3,1.8,0.1c0.1-0.1,0.5,0,0.6,0.2c0.3,0.3,0.6,0.7,0.8,1.1c0.9,1.4,1.7,2.8,2.6,4.2
			c0.7,1.1,1.4,2.3,2,3.4c0,0.1,0.1,0.2,0.1,0.2c-0.2,0.5,0.1,0.8,0.5,1.1c0.2,0.2,0.2,0.5,0.4,0.7c0.1,0.2,0.2,0.5,0.3,0.7
			c0.2,0.3,0.4,0.6,0.5,1c0,0.1,0,0.2,0.1,0.2c0.5,0.8,1.1,1.6,1.6,2.3c0.2,0.2,0.2,0.5,0.4,0.8c0,0.1,0,0.2,0.1,0.2
			c0.8,0.7,1.4,1.7,2.4,2.2c0.3,0.2,0.5,0.6,0.7,0.9c0.4,0.7,1.2,1.1,1.9,1.5c0.8,0.4,1.5,0.8,2.3,1.3c0.4,0.3,0.9,0.6,1.2,0.9
			c0.3,0.3,0.5,0.6,0.8,0.9c0.1,0.1,0.2,0.2,0.4,0.2c0.5,0.1,1.1,0.1,1.6,0.3c0.9,0.2,1.8,0.6,2.7,0.8c0.9,0.2,1.9,0.3,2.9,0.5
			c0.2,0,0.5,0.1,0.7,0.2C265.9,202.5,266,202.7,265.9,203z M275.2,178.4c0,0.6-0.2,1.2-0.3,1.8c0,0.3,0,0.7-0.1,1
			c-0.1,0.7-0.4,1.4-0.5,2.1c0,0.1,0,0.3,0,0.5c0,0.7,0,1.3-0.2,2c-0.3,0.8-0.4,1.7-0.6,2.5c-0.2,0.7-0.5,1.4-0.7,2.1
			c-0.4,1.1-0.9,2.3-1.4,3.4c-0.2,0.5-0.3,0.9-0.4,1.4c-0.2,0.6-0.5,1-1.1,1.3c-0.9,0.3-1.9,0.4-2.7,0.7c-1,0.4-1.9-0.1-2.8,0.3
			c-0.1,0-0.3,0-0.4-0.1c-0.5-0.6-1.2-0.3-1.8-0.4c-0.6-0.1-1.3-0.3-1.9-0.4c-0.8-0.2-1.6-0.4-2.4-0.7c-0.5-0.2-1-0.5-1.4-0.8
			c-0.6-0.4-1.3-0.9-1.9-1.4c-0.3-0.2-0.6-0.4-0.8-0.7c-0.4-0.3-0.7-0.7-1.1-1c-0.9-0.6-1.3-1.4-1.9-2.3c-0.2-0.3-0.6-0.6-0.9-0.9
			c-0.3-0.5-0.5-1.1-0.9-1.6c-0.5-0.7-0.5-1.6-0.8-2.4c-0.3-0.7-0.7-1.3-1.1-1.9c-0.2-0.3-0.3-0.7-0.5-1c-0.7-1.4-2.3-3.3-2.6-4.8
			c-0.4-1.9,1.1-1.5,2.6-1.4c1.7,0.1,3.4,0.4,5.1,0.7c1.4,0.2,2.8,0,4.3,0.1c1,0.1,2.1,0.3,3,0c1-0.2,1.9-1.1,1.8-2.2
			c-0.1-0.5-0.4-1-0.8-1.4c-0.4-0.5-0.9-1.1-1.5-1.4c-0.7-0.3-1.5-0.4-2.2-0.4c-2.7,0-5.2,0.1-7.8,0.6c-0.7,0.1-1.5,0-2.3,0.1
			c-0.6,0-1.1,0.2-1.7,0.3c-1.2,0.1-2.4,0.2-3.6,0.3c-0.2,0-0.3-0.1-0.5-0.2c-0.6-0.2-1.1-0.5-1.7-0.7c-0.5-0.1-1-0.2-1.5-0.4
			c-0.4-0.1-0.9,0-1.1,0.5c-0.2,0.4-0.4,0.7-0.7,1c-0.1,0.1-0.2,0.2-0.3,0.2c-0.4,0-0.8-0.1-1.3-0.1c-1.3-0.1-2.9,0-4.1-0.4
			c-0.1,0-0.2-0.1-0.2-0.1c0,0-0.1-0.1-0.1-0.1c-0.1-0.4-0.2-0.8-0.3-1.2c-0.2-1.1-0.2-2.2-0.2-3.3c0-0.8-0.1-0.9,0.5-1.5
			c0.8-0.8,2-0.8,3-0.7c2.2,0.1,4.5,0.2,6.7,0.3c1.4,0.1,2.8-0.3,4.2-0.3c2-0.1,4-0.1,6-0.1c0.4,0,0.8,0,1.2-0.1
			c0.5-0.2,0.9-0.7,1.3-1.2c0.2-0.3,0.5-0.7,0.5-1c0.1-0.6-0.4-1.1-0.9-1.5c-0.4-0.4-0.9-0.7-1.4-0.9c-1.7-0.7-3.9,0-5.6,0.4
			c-1.2,0.3-2.6,0.1-3.6,0.7c-0.3,0.2-0.8,0-1.2,0.1c-0.6,0-1.1,0.1-1.7,0.1c-0.8,0-1.5,0.4-2.3-0.1c-0.2-0.1-0.6,0-0.9,0
			c-0.2,0-0.3,0.1-0.5,0.1c-0.8,0-1.7,0-2.5,0.1c-0.6,0-1.2,0-1.8,0c-0.6,0-1-1-0.7-1.5c0.2-0.5,0.3-1.6,0.2-2.1
			c0-0.1-0.1-0.3,0-0.3c0.2-0.4,0.5-0.8,0.5-1.3c0-0.1,0.1-0.2,0.2-0.2c0.7-0.1,1.3-0.1,2-0.2c0.2,0,0.4-0.1,0.6-0.1
			c0.7,0,1.3,0,2,0c0.8,0,1.5-0.1,2.3-0.3c0.7-0.1,1.3-0.4,2-0.6c0.8-0.2,1.7-0.2,2.5-0.4c0.2,0,0.4-0.2,0.6-0.2
			c0.5-0.1,1-0.2,1.4-0.3c0.1,0,0.2,0,0.3,0c0.9-0.2,1.7-0.4,2.6-0.6c0.5-0.2,1.1-0.4,1.6-0.6c0.9-0.4,1.9-0.7,2.8-1.2
			c1.3-0.7,2.4-1.4,3.7-2.1c0.5-0.2,0.7-0.6,1.1-0.9c0.4-0.3,0.9-0.5,1.4-0.7c0.7-0.4,1.4-0.9,2.1-1.3c0.1-0.1,0.2-0.2,0.3-0.2
			c0.9-0.1,1.4-0.8,2-1.2c0.1-0.1,0.2-0.2,0.3-0.2c0.6-0.1,1.1-0.4,1.7-0.7c0.1-0.1,0.3,0,0.4,0.1c0.6,0.7,1.3,1.3,1.9,2.1
			c0.9,1.2,1.8,2.4,2.3,3.8c0.3,0.7,0.8,1.3,1.2,1.9c0.5,0.8,0.9,1.7,1.3,2.6c0.1,0.2,0.1,0.5,0.3,0.6c0.9,0.9,0.9,2.3,1.6,3.3
			c0,0.1,0.1,0.2,0.1,0.2c-0.1,1.1,0.6,2.1,0.8,3.1c0.1,0.5,0.2,0.9,0.3,1.4c0.2,0.8,0.3,1.5,0.5,2.3c0,0.1,0,0.1,0.1,0.2
			c0.7,0.7,0.5,1.5,0.6,2.4c0,0.8,0.2,1.7,0.3,2.5c0.1,0.8,0,1.6,0.1,2.5c0,0.3,0,0.5,0,0.8C275.3,175.9,275.3,177.2,275.2,178.4z"
			/>
		<path class="st1" d="M246.2,203.1c-0.9-0.4-1.9-0.8-2.9-1.1c-0.9-0.2-1.8-0.3-2.7-0.5c0,0-0.1,0-0.1,0c-0.6-0.2-1.1-0.4-1.7-0.6
			c-0.6-0.2-1.2-0.3-1.7-0.7c-0.6-0.5-1.1-0.5-1.7-0.4c-0.4,0-1.2,0.6-1.2,0.9c0.1,0.6,0.1,1.3,0.7,1.8c0.2,0.1,0.4,0.2,0.6,0.3
			c0.4,0.3,0.7,0.6,1.1,0.9c0.5,0.3,1.1,0.6,1.6,0.9c0.3,0.2,0.7,0.2,1,0.3c1.3,0.5,2.7,1.1,3.8,1.9c0.7,0.5,1.6,0.4,2.2,1.2
			c0.1,0.1,0.4,0.1,0.4,0.1c0.2,0,0.4,0,0.5,0c0.5-0.2,1.1-0.3,1.3-0.9c0.1-0.5,0.3-0.8,0.7-1.1c0.1-0.1,0.2-0.4,0.1-0.5
			C247.7,204.7,247.2,203.6,246.2,203.1z"/>
		<path class="st1" d="M219.3,189.7c-0.6-0.3-1.3-0.5-1.5-1.2c-0.1-0.2-0.5-0.3-0.8-0.3c-0.2,0-0.3,0-0.5,0c-1-0.1-1.7,0.7-1.3,1.6
			c0.2,0.4,0.4,0.9,0.6,1.3c0.2,0.4,0.4,0.8,0.1,1.2c-0.1,0.1-0.1,0.3,0,0.4c0.3,0.3,0.2,0.7,0.2,1.1c0,0.2,0,0.4,0.1,0.7
			c0.3,1,0.2,2.5-0.3,3.5c0,0.1,0,0.2,0,0.3c0,0.2,0.1,0.5,0.1,0.7c0,1.1,1.1,1.9,2.2,1.5c0.4-0.1,0.8-0.4,1-0.7
			c0.3-0.7,0.5-1.4,0.7-2.1c0.2-0.6,0.3-1.3,0.5-1.9c0.2-0.7,0.4-1.4,0.6-2.1c-0.2-1-0.4-2-0.6-3
			C220.2,190.2,219.8,189.9,219.3,189.7z"/>
		<path class="st1" d="M236.1,193.9c0.8,0.5,1.4,1.2,2.4,1.5c1,0.2,2.1,0.6,3.1,0.5c0.4,0,0.7-0.1,1.1-0.2c0.3-0.1,0.6-0.2,1-0.3
			c0.6-0.1,0.8-0.4,0.8-1.3c0-0.4-0.2-0.8-0.6-0.9c-0.4-0.1-0.8-0.2-1.2-0.3c-0.7-0.2-1.3-0.5-2-0.7c-0.1,0-0.2,0-0.4,0
			c-1,0-1.7-0.5-2-1.4c0-0.1-0.1-0.2-0.2-0.4c-0.4,0.4-0.9,0.4-1.2,0c-0.6-0.8-1.1-1.5-1.6-2.3c-0.5-0.7-1.4-1.1-2-0.7
			c-0.6,0.3-0.8,1.7-0.5,2.3c0.3,0.5,0.4,1.1,0.7,1.6c0.3,0.6,0.7,1.1,1.2,1.6C235.2,193.3,235.7,193.6,236.1,193.9z"/>
		<path class="st1" d="M211.7,195.6c0-0.2,0-0.5-0.2-0.6c-0.2-0.1-0.6-0.1-0.8,0c-0.6,0.3-1.2,0.6-1.7,0.9c-0.2,0.1-0.4,0.3-0.4,0.4
			c-0.3,1.4-1.1,2.6-1.6,3.9c-0.3,0.8-0.8,1.4-1.1,2.2c-0.4,1-0.2,1.8,0.1,2.7c0.2,0.4,0.3,0.7,0.6,1c0.8,0.7,1.9,0.5,2.4-0.4
			c0.3-0.4,0.4-0.8,0.6-1.3c0.4-0.9,0.9-1.7,1.3-2.7c0.2-0.6,0.3-1.2,0.5-1.9c-0.1-0.5-0.2-1,0.1-1.6c0.2-0.5,0.1-1.2,0.1-1.9
			C211.7,196.1,211.7,195.9,211.7,195.6z"/>
	</g>
</g>
</svg>
