<?xml version="1.0" encoding="utf-8"?>
<!-- Generator: Adobe Illustrator 24.3.0, SVG Export Plug-In . SVG Version: 6.00 Build 0)  -->
<svg version="1.1" id="圖層_1" focusable="false" xmlns="http://www.w3.org/2000/svg" xmlns:xlink="http://www.w3.org/1999/xlink"
	 x="0px" y="0px" viewBox="0 0 450 450" style="enable-background:new 0 0 450 450;" xml:space="preserve">
<style type="text/css">
	.st0{fill:#534741;}
</style>
<path class="st0" d="M395.6,132.8c-3.4-1.7-7.1-2.1-10.9-2.1c-25.8,0-51.5,0-77.3,0.1c-3,0-4.4-0.5-4.6-4.1
	c-0.7-12.9-2.6-25.7-6.1-38.2c-5-17.8-12.1-34.5-23.8-48.8c-20.1-24.5-49.2-29.2-74.7-17.9C186,27,177,36.4,169.6,47.5
	c-2,2.7-3.1,5.8-5.2,8.5c-1.6,3.6-3.4,7.1-4.9,10.8c-7.4,18.6-11.7,37.9-12.5,58.1c-0.2,5.9-0.4,5.9-6,5.9c-25.3,0-50.7,0-76,0
	c-10.1,0-15.8,3.8-18.7,12.1c-1.1,3.2-0.9,6.6-0.6,9.8c1,15.2,2.3,30.4,3.3,45.6c2,30.1,4.1,60.2,6.4,90.4
	c2.1,27.7,3.7,55.4,5.6,83.1c0.4,6.6,0.7,13.3,1.7,19.8c4,24,17,40.9,44.4,40.9c79,0,157.9,0,236.9-0.1c10.6,0,20.3-3.3,28.2-11.1
	c8.5-8.4,12.6-19,14.8-30.6c1.5-7.4,1.3-14.9,1.8-22.3c2-26.8,4-53.6,5.9-80.5c2.1-28.5,4-57.1,6-85.6c1.2-16.9,2.7-33.8,3.6-50.8
	C404.8,143.6,403,136.5,395.6,132.8z M272.9,346.9c-2,3.4-4.7,6.1-7.7,8.5c-14,11.5-30.2,14.9-47.7,14.3c-14.7-0.5-28.2-5.5-41.2-12
	c-5-2.5-9.5-6.3-14-9.8c-3.8-3-4.3-6.8-1.8-10.2c2.5-3.4,6.4-4,10.3-0.9c10.5,8.2,22.2,13.7,35,16.9c8.3,2.5,16.7,2.6,25.1,1.7
	c11.8-2.2,23-5.9,30.5-16.5c8.8-12.6,7.6-29.9-6.3-42.3c-9.9-8.8-21.6-14.3-33.7-18.8c-13.4-5.1-26.9-10-38.3-19.4
	c-11.4-9.4-18.8-21-16.9-36.6c2.1-17.1,11.1-29.8,26.1-37.3c21.5-10.7,42.9-7.8,63.8,2.5c2.6,1.3,5.1,2.8,7.6,4.4
	c5.8,3.9,6.4,7.7,2.2,13.5c-2.2,1.6-4.4,1.3-6.7,0.3c-7.3-4.7-14.7-9.1-23.1-11.2c-17.3-4.4-33.5-2.9-47,10.3
	c-14.6,14.3-12,33.7,5,44.8c11.3,7.4,23.6,11.8,35.9,16.4c15.7,5.9,30.1,13.9,40.9,27.6C283.3,308.9,284.1,330.3,272.9,346.9z
	 M278.4,129.9c-17.8-0.2-35.6-0.1-53.5-0.1c-17.5,0-35.1-0.1-52.6,0.1c-3.8,0-4.7-1.2-4.4-5c1.7-19.7,5.1-39,13.8-56.8
	c5.9-12.2,13.9-22.5,26.3-28.1c19-8.6,39.3-2.8,52.2,14.9c8.5,11.6,13.6,24.8,17,38.7c2.6,10.3,4.4,20.7,5.3,31.3
	C283,128.5,282.3,129.9,278.4,129.9z"/>
</svg>
