<?xml version="1.0" encoding="utf-8"?>
<!-- Generator: Adobe Illustrator 24.3.0, SVG Export Plug-In . SVG Version: 6.00 Build 0)  -->
<svg version="1.1" id="圖層_1" focusable="false" xmlns="http://www.w3.org/2000/svg" xmlns:xlink="http://www.w3.org/1999/xlink"
	 x="0px" y="0px" viewBox="0 0 450 450" style="enable-background:new 0 0 450 450;" xml:space="preserve">
<style type="text/css">
	.st0{fill:#534741;}
</style>
<path class="st0" d="M428.2,175.3c1.9-52.9-41.8-95.6-94.4-92.7c-35.5,2-71.3,0.4-107.1,0.4c-38.6,0-77.1,1.1-115.6-0.2
	c-45.8-1.6-90,37-89.3,88.9c0.5,35.7-0.6,71.3,0.2,107.1c1.1,51.9,37.6,88,89.7,88.3c75.2,0.5,150.4,0.5,225.5,0
	c53.5-0.4,89.8-36.8,90.6-90.4C428.4,242.9,426.9,209,428.2,175.3z M205.7,281.3c-14.9,7.1-20,3.1-20.4-14
	c-0.5-27.1-0.5-54.3,0-81.5c0.4-15.5,5.3-19,19.2-11.9c33.1,17.1,65.7,35.4,103.8,56.2C270.8,248.9,238.6,265.8,205.7,281.3z"/>
</svg>
